<?xml version="1.0" encoding="UTF-8"?>
<svg xmlns="http://www.w3.org/2000/svg" width="288" height="150" viewBox="0 0 288 150" fill="none">
  <g clip-path="url(#clip0_54_3556)">
    <path d="M25 95.0689C25 95.0689 47.6727 31.6781 90.6383 32.3391C133.604 32.934 89.9112 33.0662 89.9112 33.0662C89.9112 33.0662 57.5878 32.0085 25 95.0689Z" fill="url(#paint0_linear_54_3556)"></path>
    <path d="M51.3755 78.8096C51.3755 78.8096 77.1549 12.3781 121.707 11.5187C166.259 10.5933 120.914 12.312 120.914 12.312C120.914 12.312 87.4667 12.3781 51.3755 78.8096Z" fill="url(#paint1_linear_54_3556)"></path>
    <path d="M148.345 9.33726C148.345 9.33726 126.928 -15.4506 106.371 15.7491C106.437 15.683 120.318 39.4793 148.345 9.33726Z" fill="#0E4421"></path>
    <path d="M127.985 43.6423C127.985 43.6423 120.78 10.3273 88.7866 32.8017C88.7866 32.8017 89.9764 61.9523 127.985 43.6423Z" fill="#0E4421"></path>
    <path d="M77.1512 72.6634C77.9908 72.6634 78.6715 71.9826 78.6715 71.143C78.6715 70.3033 77.9908 69.6226 77.1512 69.6226C76.3115 69.6226 75.6309 70.3033 75.6309 71.143C75.6309 71.9826 76.3115 72.6634 77.1512 72.6634Z" fill="#124520"></path>
    <path d="M63.9312 72.0034L83.7615 57.7256C83.7615 57.7256 57.916 73.9864 77.0192 78.1508L63.9312 72.0034Z" fill="#124520"></path>
    <path d="M62.2144 75.3736C62.2144 75.3736 168.703 135.658 217.948 67.3092C267.194 -1.03925 216.164 67.3752 216.164 67.3752C216.164 67.3752 179.808 119.595 62.2144 75.3736Z" fill="#124520"></path>
    <path d="M103.858 84.893C100.42 89.6523 97.5118 93.7507 95 97.254C95.7932 96.8574 96.5203 96.3947 97.3135 95.9981C101.875 89.9829 105.642 84.827 105.642 84.827C105.642 84.827 141.998 32.6071 259.592 76.8286C259.525 76.7625 153.103 16.4784 103.858 84.893Z" fill="#124520"></path>
    <path d="M96.0583 77.686C91.9601 83.3707 88.5889 88.1301 85.7466 92.03C86.2754 91.6334 86.9364 91.3029 87.6635 91.1707C92.9516 84.164 97.8431 77.6201 97.8431 77.6201C97.8431 77.6201 134.199 25.4001 251.792 69.6217C251.726 69.5556 145.304 9.33755 96.0583 77.686Z" fill="#124520"></path>
    <path d="M112.122 123.888L111.99 124.615C111.66 124.615 111.395 124.681 111.131 124.681C110.8 124.681 110.404 124.681 109.875 124.615C109.015 124.549 108.553 124.483 108.288 124.483C107.892 124.483 107.363 124.549 106.57 124.681C106.834 124.02 107.099 123.293 107.231 122.5C107.363 121.971 107.495 121.046 107.627 119.724C106.57 119.724 104.983 119.723 102.868 119.79C100.621 123.227 98.9681 125.342 97.9766 126.201C96.9851 127.061 95.9275 127.523 95.0021 127.523C94.5394 127.523 94.1428 127.457 93.8784 127.259C93.6139 127.061 93.5479 126.796 93.5479 126.532C93.5479 126.334 93.6139 126.135 93.7461 125.937C93.8783 125.805 94.0767 125.739 94.275 125.739C94.4072 125.739 94.5394 125.739 94.8038 125.805C95.3326 125.937 95.6631 126.003 95.8614 126.003C96.4563 126.003 97.1173 125.673 97.8444 125.012C99.0342 123.954 100.687 121.64 103 118.137C105.578 114.171 107.627 111.329 109.214 109.544C107.032 109.742 105.71 109.941 105.182 110.073C104.455 110.337 103.86 110.668 103.529 111.13C103.133 111.593 103 112.056 103 112.585C103 112.717 103.066 112.981 103.199 113.246C103.331 113.576 103.397 113.841 103.397 113.973C103.397 114.171 103.331 114.369 103.199 114.502C103.066 114.634 102.868 114.7 102.67 114.7C102.339 114.7 102.141 114.568 101.943 114.369C101.744 114.171 101.612 113.774 101.612 113.312C101.612 112.651 101.744 112.056 102.075 111.461C102.405 110.866 102.868 110.403 103.463 109.941C104.058 109.544 104.851 109.214 105.777 109.015C106.239 108.883 107.099 108.817 108.288 108.685C109.346 108.618 110.007 108.486 110.271 108.42C110.668 108.288 111.065 108.09 111.461 107.759C111.197 108.817 110.999 109.808 110.866 110.602L109.809 118.203L109.214 123.69C109.875 123.888 110.47 123.954 110.999 123.954C111.395 124.02 111.726 123.954 112.122 123.888ZM107.892 118.732C108.288 115.163 108.751 112.585 109.148 110.932C108.024 112.386 107.363 113.312 107.099 113.708L103.727 118.732C104.455 118.732 105.512 118.798 106.834 118.798C107.165 118.798 107.495 118.798 107.892 118.732Z" fill="#0E4421"></path>
    <path d="M123.027 113.18L123.887 112.981L122.895 116.286C122.498 117.609 122.102 119.129 121.771 120.847C121.573 121.773 121.507 122.368 121.507 122.698C121.507 123.029 121.639 123.095 121.837 123.095C121.97 123.095 122.234 123.029 122.498 122.831C123.027 122.5 123.556 122.104 124.085 121.641L124.481 122.17C123.49 123.095 122.829 123.624 122.565 123.822C121.97 124.219 121.441 124.483 120.978 124.681C120.648 124.814 120.317 124.88 119.987 124.88C119.788 124.88 119.59 124.814 119.458 124.747C119.326 124.615 119.26 124.483 119.26 124.285C119.26 124.153 119.326 123.954 119.392 123.756L119.921 121.971C119.193 122.897 118.268 123.624 117.21 124.285C116.549 124.681 115.954 124.88 115.426 124.88C114.897 124.88 114.5 124.681 114.236 124.351C113.839 123.888 113.707 123.227 113.707 122.434C113.707 121.509 113.971 120.451 114.434 119.327C114.963 118.204 115.624 117.146 116.417 116.221C117.276 115.295 118.136 114.634 119.061 114.171C119.788 113.841 120.714 113.642 121.771 113.642C122.036 113.642 122.366 113.643 122.631 113.709L123.027 113.18ZM121.441 115.163C120.978 115.097 120.582 115.031 120.251 115.031C119.458 115.031 118.797 115.229 118.202 115.692C117.607 116.154 117.078 116.882 116.549 118.071C116.021 119.195 115.822 120.319 115.822 121.442C115.822 122.037 115.954 122.5 116.153 122.764C116.351 123.029 116.615 123.161 116.946 123.161C117.541 123.161 118.202 122.831 118.929 122.17C119.656 121.509 120.119 120.583 120.449 119.327L121.441 115.163Z" fill="#0E4421"></path>
    <path d="M131.159 113.378C131.952 113.378 132.547 113.51 132.943 113.841C133.34 114.171 133.604 114.502 133.604 114.899C133.604 115.163 133.538 115.361 133.34 115.493C133.142 115.692 132.943 115.758 132.679 115.758C132.481 115.758 132.348 115.692 132.216 115.626C132.084 115.56 131.886 115.361 131.687 115.097C131.225 114.502 130.828 114.238 130.432 114.238C130.101 114.238 129.771 114.37 129.506 114.634C129.242 114.899 129.11 115.229 129.11 115.692C129.11 116.022 129.176 116.419 129.374 116.749C129.572 117.08 129.969 117.609 130.696 118.402C131.687 119.46 132.15 120.451 132.15 121.377C132.15 122.302 131.754 123.095 130.96 123.822C130.167 124.549 129.176 124.88 127.92 124.88C126.862 124.88 126.069 124.682 125.606 124.219C125.077 123.822 124.813 123.294 124.813 122.633C124.813 122.302 124.879 122.038 125.077 121.839C125.276 121.641 125.54 121.509 125.805 121.509C126.069 121.509 126.267 121.575 126.466 121.773C126.664 121.905 126.73 122.104 126.73 122.368C126.73 122.434 126.73 122.566 126.73 122.698C126.73 122.831 126.73 122.897 126.73 122.963C126.73 123.227 126.862 123.492 127.127 123.69C127.391 123.888 127.655 124.021 128.118 124.021C128.581 124.021 128.977 123.954 129.374 123.756C129.704 123.624 130.035 123.36 130.233 123.029C130.432 122.699 130.564 122.368 130.564 122.038C130.564 121.707 130.498 121.377 130.299 121.112C130.101 120.782 129.704 120.253 129.043 119.526C128.118 118.534 127.655 117.543 127.655 116.617C127.655 115.758 127.986 115.031 128.713 114.37C129.242 113.709 130.101 113.378 131.159 113.378Z" fill="#0E4421"></path>
    <path d="M141.272 121.643L141.536 122.437C139.421 124.089 137.702 124.882 136.248 124.882C135.455 124.882 134.926 124.618 134.596 124.089C134.265 123.56 134.067 122.833 134.067 122.04C134.067 120.652 134.464 119.198 135.191 117.743C135.918 116.289 136.843 115.166 137.901 114.372C138.76 113.777 139.685 113.447 140.677 113.447C141.338 113.447 141.801 113.579 142.131 113.843C142.462 114.108 142.66 114.372 142.66 114.769C142.66 115.033 142.594 115.232 142.396 115.43C142.197 115.628 141.999 115.694 141.669 115.694C141.338 115.694 140.941 115.562 140.479 115.298C139.95 114.967 139.553 114.835 139.223 114.835C138.76 114.835 138.363 115.033 137.967 115.43C137.57 115.827 137.108 116.554 136.777 117.677C136.38 118.801 136.182 119.925 136.182 121.048C136.182 121.908 136.314 122.503 136.645 122.965C136.909 123.296 137.24 123.494 137.636 123.494C138.628 123.428 139.818 122.833 141.272 121.643Z" fill="#0E4421"></path>
    <path d="M150.13 121.18L150.592 121.775C148.411 123.824 146.56 124.815 145.04 124.815C144.445 124.815 143.916 124.617 143.586 124.154C143.255 123.758 143.123 123.031 143.123 122.105C143.123 120.254 143.718 118.338 144.842 116.487C146.098 114.371 147.684 113.314 149.469 113.314C150.064 113.314 150.592 113.446 150.923 113.777C151.253 114.107 151.386 114.504 151.386 115.033C151.386 115.628 151.187 116.156 150.791 116.751C150.394 117.28 149.667 117.875 148.676 118.47C148.147 118.734 147.089 119.263 145.437 120.056C145.37 120.519 145.304 120.982 145.304 121.444C145.304 122.039 145.37 122.502 145.569 122.766C145.767 123.031 146.031 123.163 146.428 123.163C146.759 123.163 147.155 123.031 147.618 122.833C148.147 122.568 149.006 122.039 150.13 121.18ZM145.503 119.263C146.891 118.602 148.015 117.941 148.676 117.214C149.138 116.685 149.403 116.222 149.403 115.694C149.403 115.297 149.337 115.033 149.138 114.768C148.94 114.57 148.676 114.438 148.345 114.438C148.015 114.438 147.684 114.57 147.42 114.834C147.023 115.165 146.626 115.627 146.362 116.288C145.965 117.28 145.701 118.272 145.503 119.263Z" fill="#0E4421"></path>
    <path d="M159.319 121.18L159.782 121.775C157.601 123.824 155.75 124.815 154.229 124.815C153.635 124.815 153.106 124.617 152.775 124.154C152.445 123.758 152.312 123.031 152.312 122.105C152.312 120.254 152.907 118.338 154.031 116.487C155.287 114.371 156.873 113.314 158.658 113.314C159.253 113.314 159.782 113.446 160.112 113.777C160.443 114.107 160.575 114.504 160.575 115.033C160.575 115.628 160.377 116.156 159.98 116.751C159.584 117.28 158.857 117.875 157.865 118.47C157.336 118.734 156.279 119.263 154.626 120.056C154.56 120.519 154.494 120.982 154.494 121.444C154.494 122.039 154.56 122.502 154.758 122.766C154.957 123.031 155.221 123.163 155.618 123.163C155.948 123.163 156.345 123.031 156.807 122.833C157.336 122.568 158.195 122.039 159.319 121.18ZM154.692 119.263C156.08 118.602 157.204 117.941 157.865 117.214C158.328 116.685 158.592 116.222 158.592 115.694C158.592 115.297 158.526 115.033 158.328 114.768C158.129 114.57 157.865 114.438 157.534 114.438C157.204 114.438 156.873 114.57 156.609 114.834C156.212 115.165 155.816 115.627 155.551 116.288C155.155 117.28 154.824 118.272 154.692 119.263Z" fill="#0E4421"></path>
    <path d="M161.961 116.485L161.498 116.022C162.622 114.965 163.547 114.238 164.208 113.907C164.869 113.577 165.464 113.378 165.927 113.378C166.125 113.378 166.257 113.444 166.39 113.511C166.522 113.577 166.522 113.709 166.522 113.775C166.522 113.841 166.522 113.973 166.456 114.172L165.861 116.816C166.786 115.824 167.91 114.899 169.232 114.039C169.959 113.577 170.554 113.378 171.017 113.378C171.347 113.378 171.612 113.511 171.81 113.709C172.008 113.907 172.074 114.238 172.074 114.634C172.074 114.899 172.008 115.229 171.942 115.56C171.81 116.155 171.413 117.344 170.818 119.261C170.289 121.046 169.959 122.236 169.959 122.831C169.959 123.029 169.959 123.161 170.025 123.227C170.091 123.294 170.157 123.36 170.223 123.36C170.488 123.36 170.884 123.095 171.413 122.633C171.81 122.302 172.206 121.972 172.603 121.641L172.934 122.104C172.14 122.963 171.281 123.69 170.422 124.285C169.893 124.616 169.43 124.814 169.034 124.814C168.703 124.814 168.439 124.682 168.24 124.483C168.042 124.219 167.976 123.822 167.976 123.294C167.976 122.5 168.439 120.583 169.43 117.477C169.761 116.353 169.893 115.692 169.893 115.56C169.893 115.295 169.761 115.163 169.43 115.163C169.1 115.163 168.637 115.361 168.042 115.692C167.183 116.221 166.522 116.882 165.993 117.609C165.662 118.071 165.332 118.865 165.134 119.856L164.076 124.483H162.093C162.49 123.161 162.754 121.905 163.084 120.716L164.274 115.692C164.34 115.493 164.34 115.361 164.34 115.229C164.34 114.965 164.274 114.899 164.076 114.899C163.944 114.899 163.745 114.965 163.481 115.163C162.952 115.494 162.423 115.956 161.961 116.485Z" fill="#0E4421"></path>
    <path d="M184.171 121.774L184.568 122.303C183.378 123.295 182.518 123.956 181.924 124.286C181.13 124.749 180.535 124.947 180.073 124.947C179.874 124.947 179.676 124.881 179.544 124.749C179.412 124.617 179.346 124.484 179.346 124.352C179.346 124.22 179.412 123.956 179.478 123.625L179.941 122.039C178.883 123.163 178.024 123.956 177.297 124.352C176.569 124.749 175.974 124.947 175.38 124.947C174.917 124.947 174.52 124.749 174.19 124.352C173.859 123.956 173.727 123.361 173.727 122.568C173.727 121.312 174.124 119.857 174.983 118.271C175.842 116.618 176.768 115.429 177.825 114.635C178.883 113.842 179.808 113.446 180.734 113.446C180.932 113.446 181.196 113.446 181.593 113.512C181.99 111.793 182.386 110.537 182.783 109.744C183.18 108.951 183.642 108.29 184.237 107.695C184.832 107.1 185.493 106.703 186.286 106.373C187.079 106.042 187.807 105.91 188.468 105.91C188.798 105.91 189.129 105.976 189.327 106.174C189.525 106.373 189.657 106.571 189.657 106.902C189.657 107.166 189.591 107.364 189.393 107.563C189.195 107.761 188.93 107.827 188.6 107.827C188.401 107.827 187.939 107.761 187.344 107.695C186.749 107.629 186.352 107.563 186.088 107.563C185.757 107.563 185.493 107.629 185.295 107.827C185.03 108.025 184.832 108.422 184.634 109.017C184.502 109.414 184.171 110.669 183.642 112.785L181.791 120.783C181.593 121.708 181.461 122.369 181.461 122.634C181.461 122.964 181.593 123.162 181.857 123.162C181.99 123.162 182.188 123.096 182.386 122.964C182.717 122.832 183.312 122.435 184.171 121.774ZM181.329 114.966C180.602 114.834 180.139 114.702 179.808 114.702C179.213 114.702 178.619 114.966 178.09 115.363C177.495 115.825 176.966 116.751 176.437 118.073C175.908 119.395 175.644 120.585 175.644 121.576C175.644 122.039 175.776 122.369 175.974 122.7C176.239 122.964 176.503 123.096 176.768 123.096C177.164 123.096 177.561 122.964 178.024 122.634C178.685 122.171 179.213 121.576 179.61 120.849C179.874 120.386 180.139 119.329 180.602 117.61L181.329 114.966Z" fill="#0E4421"></path>
    <path d="M57.7208 134.4H58.2496L61.3563 143.39C61.5546 144.051 61.819 144.579 62.0834 145.042C62.3478 145.439 62.6783 145.703 63.0749 145.703V146.1H59.9682V145.703H60.1665C60.2987 145.703 60.2987 145.637 60.2987 145.439C60.2987 145.373 60.2987 145.306 60.2326 145.24L59.175 142.2H55.3411C54.9445 143.323 54.7462 144.183 54.7462 144.712C54.7462 144.976 54.8123 145.24 55.0106 145.439C55.2089 145.637 55.4733 145.703 55.7377 145.703H56.2004V146.1H52.2344V145.703C52.8954 145.637 53.4903 144.976 54.0191 143.588L57.7208 134.4ZM57.4564 136.912L55.6055 141.605H59.0428L57.4564 136.912Z" fill="black"></path>
    <path d="M67.7013 142.927C67.6352 142.927 67.503 142.927 67.3708 142.993C66.9742 143.059 66.6437 143.126 66.4454 143.126C65.7183 143.126 65.1234 142.927 64.6607 142.531C64.198 142.134 63.9336 141.605 63.9336 141.01C63.9336 140.217 64.3302 139.49 65.1234 138.829C65.9166 138.168 66.842 137.837 67.7675 137.837C68.0319 137.837 68.2302 137.837 68.4285 137.904C68.6268 137.97 68.9573 138.102 69.42 138.234C69.9488 138.432 70.2793 138.564 70.5437 138.631C70.742 138.697 71.0064 138.697 71.3369 138.697H71.9318V139.093H70.1471C70.2793 139.424 70.3454 139.688 70.3454 139.953C70.3454 140.283 70.2793 140.68 70.081 141.01C69.8827 141.341 69.42 141.87 68.759 142.465C68.0319 143.059 67.7013 143.522 67.7013 143.72C67.7013 143.919 67.8336 144.117 68.098 144.249C68.3624 144.381 68.759 144.58 69.42 144.778C70.3454 145.109 71.0064 145.373 71.403 145.637C71.7996 145.902 72.064 146.298 72.064 146.827C72.064 147.687 71.4691 148.48 70.3454 149.075C69.2217 149.67 67.9658 150 66.5115 150C65.4539 150 64.5946 149.802 63.9336 149.471C63.2726 149.075 62.876 148.612 62.876 148.017C62.876 147.422 63.2726 146.893 64.0658 146.431C64.859 145.968 65.9166 145.571 67.2386 145.373C67.0403 145.241 66.842 145.042 66.7759 144.91C66.6437 144.778 66.6437 144.58 66.6437 144.381C66.6437 144.117 66.7098 143.919 66.9081 143.72C67.1064 143.522 67.2386 143.258 67.7013 142.927ZM67.7013 145.703C66.5115 146.034 65.5861 146.364 64.9912 146.761C64.3963 147.158 64.0658 147.554 64.0658 148.017C64.0658 148.414 64.3302 148.81 64.7929 149.141C65.2556 149.471 66.0488 149.67 67.0403 149.67C68.1641 149.67 69.0895 149.471 69.7505 149.008C70.4115 148.546 70.742 148.083 70.742 147.488C70.742 147.158 70.6098 146.959 70.3454 146.761C70.081 146.563 69.5522 146.364 68.6929 146.1L67.7013 145.703ZM67.2386 138.3C66.6437 138.3 66.181 138.499 65.8505 138.961C65.52 139.424 65.3878 139.886 65.3878 140.481C65.3878 141.076 65.52 141.605 65.8505 142.002C66.181 142.398 66.6437 142.597 67.1725 142.597C67.7013 142.597 68.098 142.398 68.4946 142.002C68.8251 141.605 69.0234 141.076 69.0234 140.481C69.0234 139.886 68.8251 139.358 68.4946 138.961C68.1641 138.565 67.7014 138.3 67.2386 138.3Z" fill="black"></path>
    <path d="M72.791 138.695L75.1045 137.77H75.5012V140.612C76.0961 139.554 76.6249 138.827 77.0876 138.431C77.5503 137.968 78.0791 137.77 78.5418 137.77C78.7401 137.77 78.9384 137.836 79.2689 137.902V140.612H78.674C78.674 139.554 78.3435 139.025 77.7486 139.025C77.1537 139.025 76.6249 139.488 76.1622 140.48C75.6995 141.471 75.4351 142.595 75.4351 143.851C75.4351 144.578 75.5673 145.041 75.8317 145.305C76.0961 145.57 76.6249 145.636 77.4181 145.636V146.032H72.8571V145.636C73.3198 145.636 73.7164 145.503 73.9147 145.305C74.113 145.107 74.2452 144.776 74.2452 144.248V139.687C74.2452 139.158 74.0469 138.893 73.6503 138.893C73.5181 138.893 73.2537 138.959 72.8571 139.092V138.695H72.791Z" fill="black"></path>
    <path d="M84.4913 137.837C85.615 137.837 86.4743 138.168 87.1353 138.895C87.7963 139.622 88.1268 140.482 88.1268 141.671C88.1268 143.059 87.6641 144.183 86.7387 145.042C85.8133 145.902 84.8218 146.364 83.6981 146.364C82.5743 146.364 81.715 146.034 81.054 145.307C80.393 144.58 80.0625 143.654 80.0625 142.531C80.0625 141.208 80.5252 140.085 81.4506 139.16C82.376 138.234 83.3676 137.837 84.4913 137.837ZM83.7642 138.498C82.9709 138.498 82.376 138.763 81.9133 139.358C81.4506 139.953 81.2523 140.614 81.2523 141.473C81.2523 142.531 81.5828 143.456 82.2438 144.315C82.9048 145.175 83.6981 145.571 84.5574 145.571C85.2184 145.571 85.7472 145.307 86.2099 144.778C86.6726 144.249 86.8709 143.522 86.8709 142.663C86.8709 141.87 86.6726 141.142 86.3421 140.481C86.0116 139.82 85.5489 139.358 85.0862 139.027C84.6896 138.631 84.2269 138.498 83.7642 138.498Z" fill="black"></path>
    <path d="M96.5873 139.819C95.9263 138.629 95.6619 137.637 95.6619 136.976C95.6619 136.183 96.0585 135.588 96.8517 135.192C97.6449 134.795 98.4381 134.597 99.2313 134.597C99.7601 134.597 100.223 134.729 100.619 134.993C101.016 135.258 101.214 135.588 101.214 136.117C101.214 136.447 101.082 136.778 100.884 137.109C100.619 137.439 100.091 137.836 99.2313 138.43C98.7686 138.695 98.4381 138.959 98.1737 139.158C99.033 140.48 99.6279 141.471 100.025 142.132C100.553 141.273 100.95 140.281 101.082 139.158H104.255V139.62C102.801 139.62 101.479 140.612 100.355 142.529C101.545 144.115 102.404 144.908 102.933 144.908C103.263 144.908 103.792 144.446 104.321 143.52L104.718 143.719C104.123 144.842 103.66 145.569 103.33 145.966C102.999 146.363 102.669 146.495 102.404 146.495C101.743 146.495 100.686 145.702 99.4296 144.049C98.6364 145.041 98.0415 145.702 97.5788 146.032C97.1161 146.363 96.6534 146.495 96.1246 146.495C95.4636 146.495 94.9347 146.23 94.472 145.702C94.0093 145.173 93.811 144.644 93.811 143.983C93.6788 142.661 94.6703 141.339 96.5873 139.819ZM96.7856 140.215C95.7941 141.207 95.3313 142.198 95.3313 143.124C95.3313 143.719 95.4636 144.115 95.7941 144.512C96.0585 144.842 96.4551 145.041 96.9178 145.041C97.5788 145.041 98.2398 144.578 99.033 143.586C98.0415 142.264 97.3144 141.141 96.7856 140.215ZM97.9093 138.761C98.6364 138.1 99.1652 137.571 99.3635 137.175C99.5618 136.778 99.694 136.447 99.694 136.117C99.694 135.852 99.5618 135.588 99.3635 135.39C99.1652 135.192 98.8347 135.059 98.5042 135.059C98.0415 135.059 97.711 135.191 97.4466 135.522C97.1822 135.852 97.05 136.183 97.05 136.58C97.1822 137.042 97.4466 137.77 97.9093 138.761Z" fill="black"></path>
    <path d="M116.418 134.464H116.815V137.836H116.154C116.154 136.91 115.889 136.249 115.426 135.853C114.898 135.456 114.171 135.258 113.179 135.258H112.518C112.452 135.919 112.452 136.447 112.452 136.976C112.452 138.1 112.65 138.893 113.047 139.356C113.443 139.819 114.104 140.083 115.096 140.083H115.823V140.678L112.584 140.744V144.247C112.584 145.173 113.047 145.635 113.906 145.635V146.032H109.61V145.635C110.138 145.635 110.469 145.503 110.667 145.305C110.865 145.107 110.932 144.776 110.932 144.247V136.646C110.932 136.051 110.799 135.72 110.601 135.522C110.403 135.324 110.072 135.258 109.543 135.258V134.861H116.22C116.286 134.861 116.286 134.795 116.352 134.729C116.418 134.663 116.418 134.53 116.418 134.464Z" fill="black"></path>
    <path d="M117.411 145.637C117.874 145.637 118.204 145.505 118.402 145.373C118.601 145.175 118.733 144.844 118.733 144.315V139.49C118.733 139.093 118.535 138.961 118.072 138.961C117.94 138.961 117.741 139.027 117.543 139.093C117.477 139.159 117.411 139.159 117.345 139.159V138.697L119.592 137.837H120.055V144.315C120.055 144.844 120.187 145.175 120.385 145.373C120.584 145.571 120.914 145.637 121.377 145.703V146.1H117.345V145.637H117.411ZM119.394 134.136C119.658 134.136 119.857 134.202 119.989 134.4C120.121 134.599 120.253 134.797 120.253 134.995C120.253 135.193 120.187 135.392 119.989 135.59C119.857 135.722 119.658 135.854 119.394 135.854C119.196 135.854 118.997 135.788 118.799 135.59C118.667 135.458 118.535 135.259 118.535 134.995C118.535 134.731 118.601 134.532 118.799 134.4C118.997 134.202 119.196 134.136 119.394 134.136Z" fill="black"></path>
    <path d="M123.094 143.388C123.16 144.181 123.358 144.71 123.755 145.173C124.152 145.57 124.614 145.834 125.143 145.834C125.606 145.834 125.936 145.702 126.267 145.437C126.531 145.173 126.729 144.842 126.729 144.38C126.729 143.983 126.597 143.719 126.399 143.454C126.201 143.19 125.738 142.859 125.077 142.463C124.614 142.198 124.218 141.868 123.821 141.67C123.424 141.405 123.16 141.141 123.028 140.876C122.896 140.612 122.83 140.348 122.83 140.083C122.83 139.488 123.094 139.026 123.623 138.563C124.152 138.1 124.813 137.902 125.738 137.902C126.267 137.902 126.862 138.034 127.457 138.232V140.546H126.796C126.796 139.885 126.597 139.356 126.267 138.959C125.936 138.563 125.474 138.365 125.011 138.365C124.68 138.365 124.416 138.497 124.218 138.695C124.019 138.893 123.953 139.158 123.953 139.422C123.953 139.753 124.085 140.017 124.284 140.215C124.482 140.48 124.879 140.744 125.54 141.141C126.597 141.802 127.258 142.264 127.523 142.595C127.787 142.859 127.919 143.256 127.919 143.719C127.919 144.446 127.589 145.107 126.928 145.636C126.267 146.164 125.54 146.429 124.68 146.429C124.085 146.429 123.358 146.231 122.499 145.9V143.454H123.094V143.388Z" fill="black"></path>
    <path d="M131.819 133.606V134.003C131.554 134.069 131.488 134.333 131.488 134.663V140.745C132.149 139.753 132.81 139.026 133.471 138.564C134.066 138.101 134.661 137.836 135.19 137.836C135.653 137.836 135.983 137.969 136.247 138.299C136.512 138.63 136.644 139.092 136.644 139.753V144.314C136.644 144.843 136.776 145.174 136.975 145.372C137.173 145.57 137.503 145.702 138.032 145.702V146.099H134.925V145.702C135.19 145.702 135.322 145.504 135.322 145.24V140.018C135.322 139.621 135.256 139.357 135.058 139.158C134.925 138.96 134.661 138.894 134.331 138.894C133.603 138.894 132.942 139.423 132.281 140.48C131.686 141.538 131.356 142.728 131.356 143.984C131.356 145.173 131.686 145.769 132.414 145.769H132.744V146.165H128.712V145.769C129.175 145.769 129.505 145.636 129.703 145.438C129.902 145.24 130.034 144.909 130.034 144.38V135.589C130.034 135.258 129.836 135.06 129.439 135.06C129.241 135.06 128.976 135.126 128.712 135.258V134.862L131.819 133.606Z" fill="black"></path>
    <path d="M145.766 143.851C144.444 145.503 143.188 146.297 141.932 146.297C141.073 146.297 140.279 145.9 139.618 145.173C138.957 144.446 138.627 143.52 138.627 142.463C138.627 141.273 139.024 140.149 139.817 139.224C140.61 138.232 141.535 137.77 142.593 137.77C143.452 137.77 144.179 138.1 144.642 138.695C145.171 139.29 145.435 140.083 145.435 140.942H139.751C139.751 141.141 139.751 141.339 139.751 141.471C139.751 142.529 140.015 143.388 140.61 144.049C141.139 144.776 141.866 145.107 142.659 145.107C143.651 145.107 144.708 144.512 145.766 143.256V143.851ZM144.113 140.546C144.047 139.885 143.849 139.29 143.452 138.96C143.056 138.563 142.659 138.365 142.13 138.365C141.601 138.365 141.139 138.563 140.742 138.96C140.346 139.356 140.081 139.885 139.949 140.546H144.113Z" fill="black"></path>
    <path d="M146.625 138.695L148.939 137.77H149.335V140.612C149.93 139.554 150.459 138.827 150.922 138.431C151.384 137.968 151.913 137.77 152.376 137.77C152.574 137.77 152.772 137.836 153.103 137.902V140.612H152.508C152.508 139.554 152.177 139.025 151.583 139.025C150.988 139.025 150.459 139.488 149.996 140.48C149.533 141.471 149.269 142.595 149.269 143.851C149.269 144.578 149.401 145.041 149.666 145.305C149.93 145.503 150.459 145.636 151.252 145.636V146.032H146.691V145.636C147.154 145.636 147.55 145.503 147.749 145.305C147.947 145.107 148.079 144.776 148.079 144.248V139.687C148.079 139.158 147.881 138.893 147.484 138.893C147.352 138.893 147.088 138.959 146.691 139.092V138.695H146.625Z" fill="black"></path>
    <path d="M153.831 145.637C154.293 145.637 154.624 145.505 154.822 145.373C155.021 145.175 155.153 144.844 155.153 144.315V139.49C155.153 139.093 154.954 138.961 154.492 138.961C154.36 138.961 154.161 139.027 153.963 139.093C153.897 139.159 153.831 139.159 153.765 139.159V138.697L156.012 137.837H156.475V144.315C156.475 144.844 156.607 145.175 156.805 145.373C157.004 145.571 157.334 145.637 157.797 145.703V146.1H153.831V145.637ZM155.814 134.136C156.078 134.136 156.276 134.202 156.409 134.4C156.541 134.599 156.673 134.797 156.673 134.995C156.673 135.193 156.607 135.392 156.409 135.59C156.276 135.722 156.078 135.854 155.814 135.854C155.615 135.854 155.417 135.788 155.219 135.59C155.021 135.392 154.954 135.259 154.954 134.995C154.954 134.731 155.021 134.532 155.219 134.4C155.417 134.202 155.615 134.136 155.814 134.136Z" fill="black"></path>
    <path d="M165.664 143.851C164.342 145.503 163.086 146.297 161.83 146.297C160.971 146.297 160.178 145.9 159.517 145.173C158.856 144.446 158.525 143.52 158.525 142.463C158.525 141.273 158.922 140.149 159.715 139.224C160.508 138.232 161.434 137.77 162.491 137.77C163.351 137.77 164.078 138.1 164.541 138.695C165.069 139.29 165.334 140.083 165.334 140.942H159.781C159.781 141.141 159.781 141.339 159.781 141.471C159.781 142.529 160.046 143.388 160.641 144.049C161.169 144.776 161.897 145.107 162.69 145.107C163.681 145.107 164.739 144.512 165.796 143.256V143.851H165.664ZM164.012 140.546C163.946 139.885 163.747 139.29 163.351 138.96C162.954 138.563 162.558 138.365 162.029 138.365C161.5 138.365 161.037 138.563 160.641 138.96C160.244 139.356 159.98 139.885 159.847 140.546H164.012Z" fill="black"></path>
    <path d="M167.383 143.388C167.449 144.181 167.647 144.71 168.044 145.173C168.441 145.57 168.903 145.834 169.432 145.834C169.895 145.834 170.225 145.702 170.556 145.437C170.82 145.173 171.019 144.842 171.019 144.38C171.019 143.983 170.886 143.719 170.688 143.454C170.49 143.19 170.027 142.859 169.366 142.463C168.903 142.198 168.507 141.868 168.11 141.67C167.713 141.405 167.449 141.141 167.317 140.876C167.185 140.612 167.119 140.348 167.119 140.083C167.119 139.488 167.383 139.026 167.912 138.563C168.441 138.1 169.102 137.902 170.027 137.902C170.556 137.902 171.151 138.034 171.746 138.232V140.546H171.085C171.085 139.885 170.886 139.356 170.556 138.959C170.225 138.563 169.763 138.365 169.3 138.365C168.969 138.365 168.705 138.497 168.507 138.695C168.308 138.893 168.242 139.158 168.242 139.422C168.242 139.753 168.375 140.017 168.573 140.215C168.771 140.48 169.168 140.744 169.829 141.141C170.886 141.802 171.547 142.264 171.812 142.595C172.076 142.859 172.208 143.256 172.208 143.719C172.208 144.446 171.878 145.107 171.217 145.636C170.556 146.164 169.829 146.429 168.969 146.429C168.375 146.429 167.647 146.231 166.788 145.9V143.454H167.383V143.388Z" fill="black"></path>
    <path d="M177.694 134.862H181.991V135.258C181.462 135.258 181.132 135.39 180.933 135.523C180.735 135.721 180.669 136.052 180.669 136.646V145.636H181.793C183.577 145.636 184.635 144.711 184.965 142.86H185.626L184.899 146.495H184.503C184.503 146.231 184.371 146.099 184.106 146.099H177.76V145.702C178.289 145.702 178.62 145.57 178.818 145.372C179.016 145.174 179.082 144.843 179.082 144.314V136.713C179.082 136.118 178.95 135.787 178.752 135.589C178.554 135.391 178.223 135.324 177.694 135.324V134.862Z" fill="black"></path>
    <path d="M186.091 145.637C186.553 145.637 186.884 145.505 187.082 145.373C187.28 145.241 187.413 144.844 187.413 144.315V139.49C187.413 139.093 187.214 138.961 186.752 138.961C186.619 138.961 186.421 139.027 186.223 139.093C186.157 139.159 186.091 139.159 186.024 139.159V138.697L188.272 137.837H188.735V144.315C188.735 144.844 188.867 145.175 189.065 145.373C189.263 145.571 189.594 145.637 190.057 145.703V146.1H186.024V145.637H186.091ZM188.074 134.136C188.338 134.136 188.536 134.202 188.668 134.4C188.801 134.599 188.933 134.797 188.933 134.995C188.933 135.193 188.867 135.392 188.668 135.59C188.536 135.722 188.338 135.854 188.074 135.854C187.875 135.854 187.677 135.788 187.479 135.59C187.28 135.392 187.214 135.259 187.214 134.995C187.214 134.731 187.28 134.532 187.479 134.4C187.677 134.202 187.875 134.136 188.074 134.136Z" fill="black"></path>
    <path d="M198.385 140.414C199.311 139.29 199.972 138.563 200.434 138.232C200.897 137.902 201.36 137.77 201.822 137.77C202.219 137.77 202.616 137.902 202.88 138.232C203.144 138.497 203.277 138.893 203.277 139.356V144.314C203.277 144.842 203.409 145.173 203.607 145.371C203.805 145.57 204.136 145.636 204.599 145.702V146.098H201.558V145.702C201.822 145.702 201.955 145.57 201.955 145.305V140.281C201.955 139.819 201.888 139.422 201.69 139.224C201.558 138.959 201.294 138.893 200.963 138.893C200.302 138.893 199.641 139.422 199.112 140.414C198.583 141.405 198.253 142.529 198.253 143.851C198.253 144.578 198.385 145.107 198.583 145.371C198.782 145.636 199.178 145.768 199.707 145.768V146.164H196.667V145.768C196.931 145.768 197.063 145.636 197.063 145.437V140.017C197.063 139.687 196.997 139.422 196.799 139.224C196.6 139.025 196.402 138.893 196.204 138.893C195.477 138.893 194.882 139.422 194.353 140.414C193.824 141.405 193.56 142.529 193.56 143.851C193.56 144.578 193.692 145.041 193.89 145.371C194.089 145.636 194.485 145.768 195.014 145.768V146.164H190.85V145.768C191.312 145.768 191.643 145.636 191.841 145.437C192.039 145.239 192.172 144.908 192.172 144.38V139.753C192.172 139.29 191.973 139.025 191.577 139.025C191.378 139.025 191.114 139.092 190.85 139.224V138.761L193.097 137.836H193.494V140.48C194.353 139.29 195.08 138.563 195.543 138.232C196.005 137.902 196.468 137.77 196.931 137.77C197.394 137.77 197.79 137.968 197.989 138.298C198.187 138.629 198.319 139.158 198.319 139.819C198.385 140.017 198.385 140.149 198.385 140.414Z" fill="black"></path>
    <path d="M205.392 145.637C205.855 145.637 206.185 145.505 206.383 145.373C206.582 145.241 206.714 144.844 206.714 144.315V139.49C206.714 139.093 206.516 138.961 206.053 138.961C205.921 138.961 205.722 139.027 205.524 139.093C205.458 139.159 205.392 139.159 205.326 139.159V138.697L207.573 137.837H208.036V144.315C208.036 144.844 208.168 145.175 208.366 145.373C208.565 145.571 208.895 145.637 209.358 145.703V146.1H205.392V145.637ZM207.375 134.136C207.639 134.136 207.838 134.202 207.97 134.4C208.102 134.599 208.234 134.797 208.234 134.995C208.234 135.193 208.168 135.392 207.97 135.59C207.838 135.722 207.639 135.854 207.375 135.854C207.177 135.854 206.978 135.788 206.78 135.59C206.648 135.458 206.516 135.259 206.516 134.995C206.516 134.731 206.582 134.532 206.78 134.4C206.978 134.202 207.177 134.136 207.375 134.136Z" fill="black"></path>
    <path d="M213.257 135.259V135.721C212.861 135.787 212.729 136.25 212.729 136.977C212.729 137.506 212.795 137.837 212.861 138.035C212.927 138.233 213.125 138.365 213.324 138.498C213.522 138.63 213.852 138.696 214.183 138.696H214.91V139.093H212.663V144.711C212.663 144.909 212.729 145.042 212.795 145.108C212.861 145.174 212.993 145.24 213.125 145.24C213.39 145.24 213.852 144.976 214.381 144.513C214.447 144.447 214.513 144.447 214.513 144.381V144.909C213.522 145.835 212.729 146.231 212.134 146.231C211.869 146.231 211.671 146.099 211.539 145.901C211.407 145.703 211.341 145.372 211.341 144.976V139.026H210.019V138.63C210.547 138.63 210.878 138.498 211.142 138.299C211.341 138.101 211.473 137.704 211.473 137.242V135.92L213.257 135.259Z" fill="black"></path>
    <path d="M222.512 143.851C221.19 145.503 219.934 146.297 218.678 146.297C217.819 146.297 217.026 145.9 216.365 145.173C215.704 144.446 215.373 143.52 215.373 142.463C215.373 141.273 215.77 140.149 216.563 139.224C217.356 138.298 218.282 137.77 219.339 137.77C220.198 137.77 220.926 138.1 221.388 138.695C221.917 139.29 222.181 140.083 222.181 140.942H216.497C216.497 141.141 216.497 141.339 216.497 141.471C216.497 142.529 216.761 143.388 217.356 144.049C217.885 144.776 218.612 145.107 219.405 145.107C220.397 145.107 221.454 144.512 222.512 143.256V143.851ZM220.793 140.546C220.727 139.885 220.529 139.29 220.132 138.96C219.736 138.563 219.339 138.365 218.81 138.365C218.281 138.365 217.819 138.563 217.422 138.96C217.026 139.356 216.761 139.885 216.629 140.546H220.793Z" fill="black"></path>
    <path d="M228.129 134.864L231.169 133.674V134.004C230.905 134.137 230.773 134.335 230.773 134.599V144.448C230.773 144.911 230.971 145.176 231.434 145.176C231.632 145.176 231.83 145.109 232.161 144.977V145.44L229.913 146.299H229.517V143.457C228.525 144.779 227.798 145.572 227.269 145.836C226.807 146.167 226.344 146.299 225.881 146.299C225.088 146.299 224.493 145.969 224.03 145.242C223.568 144.514 223.303 143.721 223.303 142.862C223.303 141.606 223.766 140.482 224.691 139.359C225.617 138.235 226.608 137.706 227.732 137.706C227.996 137.706 228.261 137.772 228.525 137.838C228.856 137.904 229.12 138.037 229.517 138.169V135.789C229.517 135.26 229.318 135.062 228.922 135.062C228.723 135.062 228.459 135.128 228.195 135.26V134.864H228.129ZM229.451 139.425C229.054 139.094 228.657 138.83 228.261 138.631C227.864 138.433 227.468 138.367 227.137 138.367C226.41 138.367 225.815 138.764 225.352 139.491C224.89 140.284 224.691 141.143 224.691 142.135C224.691 142.928 224.89 143.655 225.286 144.25C225.683 144.845 226.146 145.109 226.74 145.109C227.534 145.109 228.195 144.581 228.79 143.523C229.385 142.465 229.649 141.408 229.649 140.416C229.517 140.086 229.517 139.755 229.451 139.425Z" fill="black"></path>
  </g>
  <defs>
    <linearGradient id="paint0_linear_54_3556" x1="67.6972" y1="32.0892" x2="66.9283" y2="95.6277" gradientUnits="userSpaceOnUse">
      <stop stop-color="#280F1A"></stop>
      <stop offset="0.1792" stop-color="#2E111B"></stop>
      <stop offset="0.3825" stop-color="#39121C"></stop>
      <stop offset="0.5521" stop-color="#6A0C36"></stop>
      <stop offset="0.9944" stop-color="#2A130C"></stop>
    </linearGradient>
    <linearGradient id="paint1_linear_54_3556" x1="96.8019" y1="10.7951" x2="95.9712" y2="79.4461" gradientUnits="userSpaceOnUse">
      <stop stop-color="#280F1A"></stop>
      <stop offset="0.1792" stop-color="#2E111B"></stop>
      <stop offset="0.3825" stop-color="#39121C"></stop>
      <stop offset="0.5521" stop-color="#6A0C36"></stop>
      <stop offset="0.9944" stop-color="#2A130C"></stop>
    </linearGradient>
    <clipPath id="clip0_54_3556">
      <rect width="288" height="150" fill="white"></rect>
    </clipPath>
  </defs>
</svg>
