<?xml version="1.0" encoding="UTF-8"?>
<svg xmlns="http://www.w3.org/2000/svg" width="288" height="150" viewBox="0 0 288 150" fill="none">
  <g clip-path="url(#clip0_54_3468)">
    <path d="M62.1781 100.586H45.1415L21.9624 58.6321L30.3648 44.7246L62.1781 100.586Z" fill="url(#paint0_linear_54_3468)"></path>
    <path d="M38.7082 100.586H0.752441L7.64823 86.7368H33.2611L38.7082 100.586Z" fill="#BCD63A"></path>
    <path d="M32.8 84.3602H8.63574L20.6889 61.5288L32.8 84.3602Z" fill="url(#paint1_linear_54_3468)"></path>
    <path d="M6.83783 86.7368L0 101.224L41.027 100.586L33.0302 86.7368H6.83783Z" fill="url(#paint2_linear_54_3468)"></path>
    <path d="M81.939 85.8094C82.0549 85.6355 82.1128 85.5196 82.1707 85.4617L82.8081 85.056C82.982 84.9401 83.2717 84.5924 83.7353 83.955C83.7933 83.897 83.9671 83.7232 84.2568 83.5493C84.4307 83.4334 84.5466 83.2596 84.6625 83.0278C84.6625 82.9119 84.6625 82.796 84.6625 82.6801C84.6625 82.3904 84.8942 82.0428 85.2999 81.6371C85.8793 81.1156 86.2271 80.7099 86.343 80.5361L87.5599 78.2761C87.5599 78.2761 87.7337 78.2182 87.9655 78.1602L88.0814 78.0444C88.0814 77.8706 88.0814 77.7546 88.0814 77.6387C88.0814 77.4649 88.0814 77.349 88.1393 77.291L88.7188 76.5377L90.9788 73.0608L91.0367 72.829C90.9208 72.7131 90.8049 72.7131 90.7469 72.7131C90.689 72.7131 90.6311 72.7132 90.5152 72.7711C90.4572 72.7711 90.3993 72.7711 90.2834 72.7711C90.1675 72.7711 89.9937 72.7711 89.8778 72.7711C89.7619 72.4814 89.7618 72.2495 89.7618 72.1336C89.7618 72.0757 89.8778 71.9018 90.0516 71.6121C90.1675 71.2065 90.2834 70.9167 90.4573 70.6849C90.6891 70.3952 90.8629 70.1054 90.9788 69.9316C91.2685 69.9316 91.5003 69.9316 91.6162 69.9896L92.6013 70.3373L92.6592 70.2793C92.7172 70.1054 92.7172 69.9895 92.7172 69.9316C92.7172 69.8157 92.6593 69.6419 92.6013 69.4101C92.8911 69.2362 93.007 69.1203 93.0649 69.0044L93.5285 68.1352C93.6444 67.9034 93.9341 67.6138 94.3977 67.1502C94.4556 66.8025 94.5136 66.5706 94.5715 66.5127C94.6295 66.4547 94.9192 66.1651 95.4407 65.7015C95.4986 65.6436 95.6726 65.2378 95.9623 64.4845C96.0782 64.3106 96.4838 63.6153 97.1791 62.5143L98.6858 59.6169L99.3233 58.9796C99.3812 58.6898 99.3812 58.5738 99.4391 58.5159C99.497 58.4579 99.6709 58.1683 100.077 57.5889C100.134 57.5309 100.135 57.4728 100.135 57.4149C100.135 57.299 100.134 57.1831 100.077 57.0672C100.192 56.9513 100.366 56.7196 100.482 56.4298C100.598 56.1401 100.772 55.9083 100.888 55.6765L101.351 56.314C101.409 56.1402 101.467 56.0242 101.467 55.9083C101.467 55.7924 101.409 55.6186 101.293 55.3868C101.467 55.0391 101.583 54.8074 101.641 54.6915C101.931 54.2859 102.047 53.9961 102.047 53.9381C102.047 53.9381 102.047 53.7643 102.047 53.4166C102.047 53.3587 102.105 53.1847 102.279 52.8949C102.337 52.779 102.51 52.4315 102.742 51.7941C102.8 51.6782 102.858 51.5043 102.974 51.1566L103.959 51.0408L103.843 50.7509L103.264 50.4612V50.1136C103.495 49.9397 103.669 49.7078 103.785 49.4761L103.553 49.2444V49.1284C103.785 48.8966 104.017 48.6069 104.191 48.2592C104.365 47.9115 104.539 47.6218 104.712 47.332C104.596 47.1002 104.539 46.9264 104.539 46.8105V46.6367V46.4049V45.9413L106.393 44.6665L106.798 44.9562C106.972 44.6665 107.03 44.4926 107.088 44.3767C107.204 44.1449 107.32 43.971 107.378 43.971C107.494 43.971 107.61 44.029 107.726 44.087C107.784 43.7972 107.957 43.5075 108.189 43.3916C108.479 43.1598 108.769 43.0439 109.001 43.0439C109.464 43.0439 109.696 43.6234 109.754 44.7244C109.928 45.4777 109.986 45.9413 110.044 46.231C110.101 46.6946 110.275 47.2162 110.623 47.7957C110.797 48.607 110.913 49.0705 110.913 49.3602C110.913 49.5341 110.913 49.7079 110.913 49.8817L109.986 50.3454C110.102 50.6351 110.275 50.8088 110.391 50.9247C110.449 50.9827 110.797 51.0407 111.434 51.2146C111.724 51.3305 112.014 51.736 112.361 52.5473C112.593 53.1267 112.709 53.4746 112.709 53.5905C112.709 53.7064 112.593 53.8801 112.419 54.1698C112.651 54.4016 112.825 54.5755 112.883 54.6335C113.289 54.9812 113.462 55.1549 113.52 55.2708L113.81 55.9662L114.274 57.1252C114.332 57.2411 114.332 57.4729 114.39 57.8785C114.853 58.3421 115.143 58.8637 115.201 59.3852C115.259 59.7909 115.259 60.0226 115.259 60.0226L115.78 60.7759C115.838 60.8918 116.186 61.5292 116.708 62.6881L116.186 62.978C116.302 63.2677 116.418 63.4994 116.534 63.6153L116.881 63.6733L116.823 64.1948C118.388 65.6435 119.141 67.0921 119.199 68.4829C119.257 68.8306 119.605 69.526 120.184 70.5691C120.996 72.1337 121.459 73.0029 121.517 73.2926C121.633 73.6403 121.807 73.93 122.039 74.2777L123.429 77.4069L123.372 78.0444C124.299 78.508 124.704 78.9715 124.704 79.4351C124.704 79.6669 124.472 79.8406 124.067 80.0724C124.183 80.3042 124.299 80.4782 124.415 80.5361C124.472 80.5941 124.588 80.652 124.878 80.7099C125.11 80.7679 125.342 81.0575 125.574 81.5211C125.689 81.7529 125.863 82.2744 126.153 83.1436C126.79 84.1288 127.196 84.7663 127.37 85.114C127.08 85.3458 126.964 85.5775 126.964 85.8672C126.964 85.9831 126.964 86.099 126.964 86.2149C126.443 86.4467 126.095 86.5626 125.863 86.6205C125.805 86.6785 125.516 86.6785 125.052 86.6785C124.82 86.6785 124.299 86.8524 123.487 87.2001C123.082 86.3308 122.85 85.6935 122.792 85.2879C122.734 84.9981 122.56 84.6503 122.386 84.2447C121.981 83.1437 121.749 82.5064 121.749 82.3905C121.749 82.2746 121.749 82.1585 121.749 82.0426C121.459 81.8108 121.343 81.5791 121.285 81.3473C121.285 81.2893 121.227 81.0576 121.227 80.6519C121.17 80.4781 121.169 80.3622 121.169 80.3043C121.169 80.1304 121.227 79.8986 121.401 79.5509L120.706 78.9136C120.88 78.6818 120.996 78.5078 121.112 78.4499C121.285 78.334 121.343 78.2182 121.343 78.1602C121.343 78.0443 121.343 77.9865 121.285 77.8706L120.184 77.9864C119.837 77.5228 119.547 77.1171 119.431 76.8274C119.373 76.6535 119.257 76.1899 119.083 75.3787L118.736 74.5675C118.562 73.5824 118.446 73.0028 118.33 72.829C118.098 72.3074 117.635 72.0178 117.055 72.0178C116.534 72.0178 116.244 72.5973 116.186 73.6983C116.07 73.7563 116.012 73.7561 115.954 73.7561C115.78 73.7561 115.549 73.6403 115.317 73.4665C114.853 73.1767 114.448 72.9449 113.984 72.887C113.752 72.829 113.462 72.7711 113.057 72.5393C112.535 72.3075 112.072 72.1336 111.724 72.1336C111.608 72.1336 111.145 72.1916 110.507 72.3655L109.87 72.2496L109.116 72.3075H108.479L107.842 72.4235H106.798C106.335 72.4235 106.045 72.4235 105.871 72.4235H105.524L104.133 72.1336L103.438 72.2496C102.974 72.1337 102.684 72.0178 102.626 72.0178C102.51 72.0178 102.163 72.0758 101.525 72.2496C101.062 72.3655 100.656 72.4233 100.308 72.4813L99.6709 71.7279C99.2074 71.8438 98.6858 72.0178 98.2222 72.2496C98.1643 72.3076 97.8166 72.3655 97.2371 72.4235C97.0054 72.4814 96.8894 72.4813 96.8894 72.4813C96.7155 72.4813 96.4838 72.4814 96.194 72.4235C95.7884 72.3655 95.4987 72.3075 95.2089 72.3075C94.9772 72.3075 94.6295 72.3655 94.05 72.5393C93.7603 72.6552 93.4126 72.7131 93.0649 72.7131C92.8911 73.0029 92.7752 73.1767 92.7752 73.2346C92.5434 73.6982 92.2537 74.1619 91.906 74.5675C91.6742 74.9731 91.2685 75.5526 90.8629 76.3639L90.4573 76.2479C90.3414 76.3638 90.2834 76.4798 90.2834 76.5957C90.2834 76.7116 90.2834 76.8274 90.3414 77.0592C90.3414 77.1751 90.3993 77.291 90.3993 77.4649C90.1095 77.8126 89.9357 77.9863 89.9357 78.1022L88.8347 80.3043C88.6608 80.594 88.429 80.9416 88.1972 81.3473L87.9655 81.6371L86.7485 82.4483C86.6906 82.5062 86.6327 82.5642 86.6327 82.6801C86.6327 82.854 86.8065 83.0857 87.1542 83.3755L86.8065 84.4185C86.4589 84.5344 86.1691 84.6503 86.0532 84.7662C85.8214 84.94 85.6476 85.2298 85.4158 85.7514C84.9522 85.9252 84.7204 86.0411 84.6045 86.157C84.3727 86.3309 84.2568 86.3887 84.1409 86.3887C84.083 86.3887 83.9671 86.3309 83.6773 86.157C83.6194 86.0991 83.5036 86.099 83.3877 86.099C83.2718 86.099 83.2138 86.099 83.0979 86.099C82.5764 86.157 82.2867 85.9253 81.939 85.8094ZM94.3977 70.1634C94.7454 69.9896 94.9192 69.8738 95.0351 69.8738C95.151 69.8738 95.3249 69.9896 95.4987 70.1634L96.194 70.0476L96.4838 70.5111C96.7735 70.3952 97.2371 70.3373 97.7587 70.3373H99.7868C100.192 70.3373 100.656 70.4531 101.293 70.6849C101.931 70.7429 102.452 70.8008 102.742 70.8588C103.032 71.3223 103.438 71.5541 103.843 71.5541L105.292 70.8588L106.045 71.0326H107.32L107.842 71.1486L108.479 71.0326L109.116 71.0906L109.754 71.0326L110.333 71.2064L111.666 70.9748L112.709 70.9168L114.737 70.6849L116.418 70.8009C116.65 70.8009 116.765 70.6849 116.765 70.5111C116.765 70.4531 116.708 70.1634 116.534 69.7577C116.476 69.6418 116.476 69.468 116.476 69.2362C116.186 69.0624 115.954 68.8306 115.838 68.5409C115.317 67.4399 115.027 66.9184 114.911 66.9184C114.737 66.6866 114.621 66.4548 114.563 66.165C114.506 65.9332 114.39 65.6436 114.216 65.3538C114.274 64.9482 114.332 64.6004 114.332 64.3687C114.332 64.1948 114.274 63.963 114.158 63.6153L113.347 63.7313C113.173 63.3836 113.057 63.1517 113.057 63.0358L112.883 62.4565L112.361 61.7609L111.782 60.7759L111.55 60.3702C111.434 59.7328 111.26 59.2112 110.971 58.6897C110.739 58.2841 110.681 57.9944 110.681 57.7047L111.145 57.4729C110.971 57.2411 110.797 57.1252 110.565 57.1252C110.449 57.1252 110.391 57.1252 110.275 57.1252C110.102 56.8355 110.044 56.6037 109.986 56.4879C109.638 55.9663 109.464 55.6765 109.464 55.6765L109.348 54.8073L109.001 54.2278L108.653 53.4166L107.9 52.4894L107.494 51.1566L107.088 50.4612C106.914 50.0556 106.683 49.6499 106.451 49.3022C106.045 49.534 105.813 49.7658 105.697 50.0556C105.466 50.5771 105.292 50.9828 105.35 51.3884H105.234C105.002 51.852 104.654 52.3155 104.249 52.8949L102.916 55.3868C102.684 55.7925 102.51 56.1981 102.452 56.4879C102.163 56.6617 101.989 56.8934 101.931 57.1252C101.641 57.7626 101.235 58.1682 100.714 58.342L100.83 58.9796L100.482 59.1534C100.192 59.0954 99.9606 59.0954 99.7289 59.0954L99.555 59.3852L100.135 59.7329C99.9607 60.3124 99.671 60.8918 99.3233 61.5293C98.6279 62.8621 97.9325 63.7891 97.2951 64.1368C97.1212 64.2527 97.0633 64.4845 97.0053 64.8902C97.0053 65.1799 96.9474 65.4697 96.7736 65.7015L96.1361 66.8604L95.6146 67.4399L95.3249 68.0774C94.9772 68.6569 94.7454 69.0044 94.6874 69.2362C94.6295 69.6419 94.5136 69.9316 94.3977 70.1634Z" fill="#1F4D25"></path>
    <path d="M134.151 71.4953C134.325 71.2056 134.498 71.0317 134.672 70.9158C134.788 70.8578 135.252 70.7419 136.005 70.5681C136.584 70.2784 136.99 70.1045 137.164 70.0466C137.28 69.9886 137.743 69.9887 138.497 69.8728L139.25 69.6409L139.656 69.5829L140.061 69.5251H140.931L142.727 69.2932C143.248 69.2353 143.596 69.1773 143.712 69.0614C144.002 68.8876 144.118 68.5979 144.118 68.1922C144.118 68.1343 144.06 67.9025 143.944 67.4389L145.103 65.9902C145.103 65.9902 144.639 65.8164 143.712 65.5267C143.654 65.4687 143.422 65.4687 143.017 65.4687C142.379 64.6574 141.974 64.1939 141.858 64.078C141.684 64.02 141.104 63.904 140.119 63.7881H139.366C139.018 63.6723 138.786 63.6723 138.729 63.6723C138.613 63.6723 138.439 63.6724 138.207 63.7303L137.801 63.2086C137.454 63.3245 137.222 63.4985 137.048 63.7303C136.874 63.9042 136.642 64.0199 136.353 64.1358C135.541 64.4835 134.904 64.8312 134.382 65.2368L134.093 65.4687C133.919 65.7584 133.745 65.9322 133.687 65.9322C133.513 66.0481 133.281 66.106 133.05 66.106C132.934 66.106 132.702 66.0482 132.238 65.8744C131.717 65.7585 131.427 65.6425 131.311 65.5845C131.195 65.4686 131.022 65.2949 130.79 65.0052C131.022 64.8313 131.253 64.6574 131.311 64.5995C131.543 64.3677 131.717 64.2518 131.833 64.2518L132.876 64.02L133.571 63.6723L135.02 63.2086L135.947 62.8031H136.874L137.917 62.5133H138.323L139.134 62.3975C139.888 62.3975 140.351 62.3975 140.525 62.3975C140.757 62.3975 141.162 62.5133 141.742 62.6871L142.263 62.7451C142.843 62.861 143.248 62.919 143.48 62.977C143.712 62.977 143.944 63.1508 144.292 63.4985C144.06 63.7303 143.886 63.9042 143.886 64.078C143.886 64.3098 144.002 64.3677 144.176 64.3677C144.292 64.3677 144.465 64.3097 144.697 64.1938C144.871 64.1359 145.045 64.0779 145.335 63.962C145.508 64.1358 145.624 64.4256 145.624 64.7153L146.204 65.121C146.262 65.2949 146.262 65.4107 146.262 65.4107L146.204 66.28C146.378 66.9175 146.551 67.381 146.725 67.4969H146.841C146.899 67.8446 146.957 68.1923 147.015 68.5979C147.073 69.4671 147.073 70.0465 147.131 70.3363C146.783 70.5681 146.609 70.742 146.609 70.9738C146.609 71.2056 146.841 71.3793 147.247 71.6111C147.247 71.785 147.247 71.9588 147.247 72.1326C147.247 72.2485 147.189 72.5383 147.131 72.944C147.131 73.1178 147.131 73.2916 147.131 73.4655C147.131 73.987 147.189 74.5665 147.363 75.3199C147.073 75.6096 146.957 75.8413 146.957 76.131C146.957 76.3628 147.073 76.6525 147.363 77.0002C147.421 77.0582 147.421 77.232 147.537 77.4059C147.595 77.5218 147.653 77.6957 147.768 78.0434C147.595 78.2172 147.479 78.4489 147.421 78.6227C147.305 78.7386 147.073 78.8545 146.725 78.9704L145.856 79.3761L145.335 79.5499C144.755 79.7238 144.465 79.8398 144.407 79.8398C144.234 79.8398 144.118 79.7818 143.886 79.6079L144.234 78.1012C143.77 78.2171 143.133 78.4489 142.321 78.7966L141.684 78.9126C141.278 79.0285 141.104 79.0284 141.046 79.0284L140.235 78.9126L139.424 79.3183L138.96 79.3761L137.106 79.7818L136.179 79.7238C135.715 79.8976 135.368 79.9556 135.252 79.9556C135.02 79.9556 134.44 79.8398 133.513 79.6659L132.586 79.5499L131.891 79.2603C131.369 79.0864 130.964 78.8546 130.732 78.6807C130.5 78.5069 130.326 78.2172 130.21 77.8116L129.689 77.6377C129.631 77.4639 129.573 77.232 129.457 76.8264L129.225 75.8414C129.225 75.7255 129.283 75.4936 129.515 75.2038C129.689 74.9721 129.92 74.5665 130.152 74.045C130.906 73.2917 131.369 72.828 131.601 72.6541C131.833 72.4803 132.296 72.2485 133.05 71.9588C133.455 71.6691 133.745 71.5531 133.861 71.5531C133.803 71.4372 133.977 71.4953 134.151 71.4953ZM132.702 76.3049C132.586 76.4787 132.47 76.7106 132.354 76.9424C132.18 77.2321 132.122 77.4059 132.122 77.4639L132.354 77.8696L132.992 77.3479C133.513 77.6956 133.861 77.9274 134.035 77.9274C134.614 78.1012 134.904 78.1592 134.962 78.1592C135.078 78.2172 135.194 78.3909 135.368 78.6227C135.715 78.6807 135.947 78.6808 136.063 78.7387C136.179 78.7387 136.295 78.7387 136.353 78.7387C136.527 78.7387 136.7 78.6227 136.99 78.4489C137.222 78.6227 137.396 78.6807 137.512 78.6807C137.57 78.6807 137.685 78.5649 138.033 78.3911L138.671 78.5069L139.888 78.1012L140.467 77.8116L140.988 77.9274L141.858 77.5797L142.843 77.174C143.075 76.7684 143.248 76.5367 143.306 76.4787C143.422 76.3628 143.712 76.2469 144.118 76.131L144.234 75.3777C144.523 75.2038 144.697 75.0301 144.755 74.7403C144.523 74.5665 144.407 74.4505 144.292 74.2767C144.292 74.0449 144.292 73.8132 144.292 73.6973V73.3495C144.292 72.9438 144.234 72.5962 144.234 72.3065C144.234 72.1906 144.234 72.1327 144.234 72.0748C144.234 71.901 144.292 71.6111 144.407 71.2634C144.292 71.2634 144.118 71.1476 143.886 70.9738H142.901L142.032 70.9158H141.336H140.931C140.873 70.9158 140.641 70.7999 140.235 70.5681L139.714 70.7419C139.134 70.7419 138.671 70.7998 138.381 70.8578C138.207 70.9157 138.033 70.9738 137.917 70.9738C137.859 70.9738 137.685 70.9157 137.396 70.8578H137.338C137.28 70.8578 137.048 70.9737 136.584 71.2634C136.527 71.3214 136.121 71.4372 135.426 71.727C134.44 72.1326 133.745 72.5383 133.339 72.944C133.281 73.0019 133.108 73.2337 132.818 73.6393C132.702 73.7552 132.47 73.9291 132.007 74.045C131.949 74.1609 131.891 74.2187 131.891 74.2767C131.891 74.3346 131.949 74.3927 132.065 74.5665L132.238 75.7834C132.412 75.8993 132.528 76.0731 132.702 76.3049Z" fill="#1F4D25"></path>
    <path d="M164.978 70.9737L164.398 71.3792C163.819 71.2054 163.355 71.1475 163.008 71.1475C162.602 71.1475 162.08 71.2054 161.559 71.2634C161.385 70.9157 161.153 70.6259 160.864 70.452L160.458 71.0315C160.168 71.0895 159.762 71.1475 159.299 71.2634C159.125 71.3213 158.951 71.3214 158.835 71.3214C158.777 71.3214 158.777 71.3214 158.719 71.3214L157.85 71.1475C157.85 71.1475 157.792 71.1474 157.792 71.2054L157.387 70.7419C157.155 70.8578 156.923 70.9157 156.749 70.9157C156.691 70.9157 156.517 70.8577 156.17 70.6839C156.112 70.6259 155.938 70.6259 155.764 70.51C154.605 70.1044 154.026 69.467 154.026 68.5398C154.026 67.7286 154.315 66.9752 154.953 66.1639C155.127 65.9322 155.532 65.5266 156.228 64.9471L156.691 64.5414L157.734 63.9041C158.835 63.2667 159.647 62.803 160.11 62.5712C161.269 62.1076 162.254 61.8179 162.95 61.8179C163.066 61.8179 163.761 61.9918 164.978 62.2816L166.137 62.0497C166.89 62.1077 167.296 62.1656 167.412 62.2235C167.701 62.3974 167.875 62.5132 167.875 62.6871C167.875 62.8609 167.817 62.9769 167.643 63.1507C167.585 63.2087 167.238 63.3825 166.542 63.8461C165.789 64.3097 165.383 64.4834 165.326 64.4834C164.34 64.4834 163.645 64.4256 163.181 64.2518C163.008 63.962 162.892 63.6722 162.718 63.4984H162.602L162.196 63.9619C161.964 63.9619 161.733 63.9619 161.617 63.9619C161.501 63.9619 161.327 63.9619 161.211 63.9619C161.037 63.9619 160.921 63.9619 160.864 63.9619C160.806 63.9619 160.632 64.02 160.284 64.0779C160.168 63.962 159.936 63.9619 159.589 63.9619C159.299 64.1937 158.777 64.4835 158.082 64.8891C157.734 65.0629 157.387 65.3526 157.155 65.7583C156.865 66.1639 156.749 66.5116 156.749 66.8593C156.749 67.0331 156.865 67.265 157.155 67.4968C157.213 67.5548 157.445 67.6706 157.966 67.8445C158.256 67.9604 158.546 68.1342 158.835 68.366C158.835 68.4819 158.835 68.5977 158.835 68.6557C158.835 68.9454 158.951 69.1193 159.241 69.1193C159.473 69.1193 159.763 68.9455 160.052 68.5398C160.4 68.5978 160.69 68.5978 160.921 68.5978C161.037 68.5978 161.443 68.5398 162.196 68.366L162.95 68.424C163.587 68.3081 163.993 68.308 164.051 68.308C164.167 68.308 164.514 68.424 165.21 68.5978L166.021 68.4818L166.832 69.0613C167.701 69.467 168.281 69.8727 168.628 70.2204C168.86 70.5101 169.034 70.7419 169.034 70.9737L169.208 71.7269C169.44 72.654 169.498 73.1757 169.498 73.2916C169.498 73.4075 169.44 73.6392 169.382 74.1028C169.324 75.0879 169.034 75.5514 168.571 75.5514C168.397 75.5514 168.223 75.5516 168.049 75.4936C167.875 76.2469 167.701 76.6526 167.585 76.7685C166.89 77.5797 166.484 78.1012 166.253 78.333C165.499 78.4489 164.862 78.6807 164.34 79.0283C164.109 79.2022 163.993 79.3182 163.935 79.3182C163.877 79.3182 163.703 79.376 163.355 79.376L161.501 79.8975C160.921 79.7816 160.574 79.7237 160.516 79.7237C160.4 79.7237 159.994 79.8396 159.183 80.0714L158.661 80.0135C157.908 79.9556 157.387 79.8976 157.039 79.8397C156.228 79.6658 155.822 79.492 155.822 79.434L155.069 78.9703C154.2 78.4488 153.62 78.0433 153.388 77.8115C152.925 77.29 152.693 76.7683 152.693 76.2468C152.693 76.1309 152.867 75.9571 153.214 75.7253L153.852 75.1459C154.431 74.7403 154.779 74.5084 154.837 74.5084C154.895 74.5084 154.953 74.5085 155.011 74.5664C155.359 74.9141 155.532 75.2618 155.532 75.6675L155.416 76.4208C155.416 76.5367 155.416 76.6525 155.532 76.7105C155.59 76.7684 155.88 76.9422 156.344 77.232C156.459 77.2899 156.575 77.4057 156.749 77.5216C157.155 77.8693 157.329 78.0433 157.329 78.0433L158.14 78.391L158.893 78.7965H159.762L160.284 78.9125C160.863 78.7387 161.327 78.6806 161.791 78.6227C162.196 78.6227 162.544 78.5647 162.718 78.4488L163.587 78.0433C164.051 77.8695 164.34 77.7534 164.398 77.6955C164.688 77.4637 165.036 76.9423 165.557 76.189C166.021 75.3777 166.311 74.4505 166.311 73.4654C166.311 73.2336 166.253 73.0017 166.079 72.8279C165.557 71.9007 165.152 71.2634 164.978 70.9737Z" fill="#1F4D25"></path>
    <path d="M173.843 70.1634C174.075 69.8157 174.422 69.1783 174.886 68.1352C175.176 67.4978 175.408 67.1502 175.523 67.1502C175.813 66.9184 176.045 66.6867 176.335 66.4549L176.856 65.8754L177.61 65.2378L178.595 64.3107L179.174 63.963L179.696 63.5575L180.217 63.3256L180.855 62.8041L182.072 62.3985C182.825 62.1667 183.288 61.9928 183.462 61.9928C183.81 61.9348 184.158 61.877 184.389 61.877C184.679 62.1667 184.911 62.3405 185.027 62.3405C185.027 62.3405 185.432 62.2246 186.186 62.0508C186.244 62.0508 186.302 62.0508 186.36 62.0508C186.36 62.0508 186.707 62.1088 187.345 62.2826C187.403 62.2826 187.577 62.3405 187.75 62.3405C188.04 62.3405 188.214 62.3985 188.33 62.3985C189.025 62.1667 189.431 62.1088 189.489 62.1088C189.779 62.1088 190.068 62.2246 190.3 62.3985C190.242 62.8041 190.126 63.0359 190.01 63.1518C189.894 63.2677 189.605 63.3836 189.257 63.4995L189.141 64.1368C188.678 64.3686 188.33 64.5424 188.214 64.6583C188.04 64.7742 187.866 64.8902 187.808 64.8902L187.461 64.8323C187.403 64.8323 187.403 64.8323 187.345 64.8323L186.533 64.8902L185.896 64.7743L185.375 64.7163C184.853 64.5425 184.447 64.4267 184.1 64.4267C183.984 64.4267 183.81 64.4267 183.578 64.4267C183.288 64.3687 183.057 64.3687 182.883 64.3687C182.767 64.3687 182.187 64.4845 181.202 64.6583C180.681 64.7163 180.333 64.7743 180.159 64.8902C179.985 65.0061 179.696 65.2958 179.174 65.7593C179.058 65.8752 178.769 65.9912 178.363 66.0492C178.305 66.3969 178.247 66.6286 178.131 66.7445C177.957 66.8604 177.725 66.9763 177.32 67.0342C177.378 67.208 177.378 67.324 177.378 67.4979C177.378 67.5558 177.146 67.9034 176.74 68.4829C176.624 68.6567 176.566 69.584 176.566 71.2644C176.566 71.6121 176.74 72.3075 177.146 73.2927C176.914 73.6983 176.798 74.046 176.74 74.2198C176.856 74.2778 177.088 74.3936 177.494 74.5095C178.131 75.3787 178.595 75.9582 178.768 76.3639L179.29 76.4219C179.522 76.7116 179.696 76.8854 179.754 76.9434L180.623 77.5227L181.26 77.9864C181.84 78.2182 182.187 78.3341 182.303 78.3921C182.419 78.45 182.767 78.45 183.346 78.5079L184.158 78.6817L184.969 78.7397L185.548 78.7976C185.838 78.7396 186.36 78.5658 187.055 78.2761L187.461 78.3921C187.634 78.2762 187.808 78.1602 187.866 78.1602C187.982 78.1023 188.272 77.8704 188.735 77.5227C189.141 77.4648 189.489 77.291 189.779 77.0592C190.01 76.8274 190.242 76.5957 190.532 76.4219C190.648 76.3639 190.764 76.2479 190.938 76.074C191.285 75.6684 191.575 75.4367 191.749 75.4367C191.865 75.4367 191.981 75.4947 192.096 75.6685C191.923 76.306 191.865 76.8274 191.865 77.2331C191.575 77.5228 191.285 77.8126 191.111 78.1602C190.764 78.2761 190.3 78.508 189.779 78.9136C189.547 78.9715 189.315 79.0294 189.141 79.2033C188.851 79.3771 188.62 79.4931 188.388 79.4931L187.634 79.4351C186.823 79.6089 186.36 79.7248 186.186 79.7248C186.128 79.7248 185.954 79.8986 185.548 80.1304C185.49 80.1884 185.432 80.1884 185.317 80.1884H183.057C182.941 80.1884 182.767 80.1883 182.419 80.2463C182.072 80.0145 181.724 79.8408 181.376 79.8408C180.97 79.7828 180.333 79.6669 179.522 79.4351L179 79.3771L178.363 79.1453C177.957 79.0294 177.725 78.9714 177.61 78.9714C177.494 78.9135 177.378 78.8556 177.262 78.7397C176.451 77.9864 176.103 77.5228 176.103 77.4069C176.103 77.291 176.103 77.1171 176.161 77.0012V76.9434L175.407 77.0592L175.35 77.0012C175.06 76.4217 174.886 76.0741 174.77 75.9582C174.538 75.6105 174.422 75.3209 174.364 75.147C174.364 75.0311 174.307 74.7993 174.249 74.3357V74.2777L174.364 73.6403C173.959 73.3506 173.727 73.1187 173.727 73.0028C173.727 72.9449 174.075 72.7131 174.77 72.3075C175.176 72.0757 175.35 71.728 175.35 71.2644C175.292 70.5691 174.77 70.2793 173.843 70.1634Z" fill="#1F4D25"></path>
    <path d="M209.075 62.8025L209.828 62.3388C210.06 62.6286 210.234 62.8024 210.292 62.8603C210.35 62.9183 210.466 62.9763 210.756 63.0922C210.929 63.1501 211.567 63.7876 212.726 65.0045C213.073 65.4102 213.363 65.7578 213.479 66.0475C213.595 66.3373 213.711 66.6849 213.885 67.0906C214.001 67.3224 214.059 67.5542 214.175 67.9019L214.001 68.0758C213.827 68.0178 213.595 67.9598 213.305 67.8439L212.436 68.1336L211.683 68.0177L210.987 68.1916C210.06 67.5542 209.539 67.2064 209.539 67.2064C209.423 67.2064 209.075 67.4962 208.496 68.1336C207.511 67.9597 206.989 67.8439 206.931 67.8439C206.699 67.8439 206.41 67.844 206.062 67.9019L205.946 67.7859C205.714 67.8439 205.077 67.8439 203.976 67.8439L203.164 67.9597L202.121 68.0758L201.078 68.2496H200.151C199.282 68.5393 198.702 68.6551 198.355 68.7131C198.297 69.2346 198.181 69.5823 198.123 69.7561C198.007 69.9879 197.833 70.2197 197.601 70.5095C198.065 70.8571 198.355 71.0889 198.355 71.2048C198.529 72.1899 198.645 72.8273 198.76 73.175L199.166 73.4068L199.05 74.2182L199.745 74.392C199.919 75.0295 200.093 75.435 200.325 75.6089C200.557 75.7827 200.904 75.9566 201.484 76.0146C201.542 76.4781 201.658 76.7678 201.832 76.8257C201.948 76.9416 202.237 76.9996 202.643 76.9996L203.049 77.5791C203.222 77.5211 203.338 77.5211 203.454 77.5211C203.57 77.5211 203.976 77.695 204.787 78.1006C204.961 78.2165 205.193 78.2166 205.366 78.2166C205.54 78.2166 205.946 78.1006 206.525 77.9268L207.974 77.7529L209.075 77.4632C209.597 77.4053 209.944 77.4052 210.118 77.3472C210.35 77.2313 210.872 76.9996 211.509 76.5361C212.146 76.1304 212.552 75.8406 212.668 75.7247C212.958 75.435 213.189 75.0293 213.421 74.6237C213.537 74.4498 213.769 74.334 214.059 74.334C214.174 74.334 214.406 74.4498 214.638 74.6237C214.522 75.1452 214.406 75.493 214.348 75.6669C213.711 76.7679 213.305 77.4632 213.131 77.8109C212.958 77.695 212.784 77.6949 212.61 77.6949C212.494 77.6949 212.262 77.8689 211.857 78.1586C211.567 78.3324 211.219 78.4483 210.814 78.4483C209.886 78.6801 209.249 78.854 208.843 78.9119C208.206 78.9699 207.858 79.0278 207.684 79.0858C207.221 79.2596 206.989 79.3176 206.931 79.3176L205.598 79.0858L204.787 79.2016H204.381C204.034 79.2596 203.744 79.2596 203.57 79.2596C203.396 79.2596 202.817 79.2017 201.89 79.0858L201.484 79.0278L201.02 78.7381C199.861 78.3904 199.282 78.1585 199.166 78.1006C199.108 78.0426 198.818 77.8109 198.413 77.4052C198.355 77.3473 198.123 77.2314 197.601 76.8837C197.196 76.6519 196.964 76.4201 196.906 76.3042L196.5 75.5509C196.442 75.435 196.211 75.1453 195.747 74.6817C195.921 74.4499 195.979 74.2761 195.979 74.1602C195.979 74.1022 195.805 73.6966 195.399 72.8853C195.284 72.6535 195.226 72.0162 195.226 70.9731C195.226 70.6255 195.341 70.1039 195.515 69.3506C195.689 68.7711 195.805 68.4233 195.921 68.3074L196.674 67.3802L197.196 66.3372C197.717 65.8736 198.297 65.2942 198.934 64.7147L200.615 63.6717L202.295 62.5126L202.933 62.3968L204.671 61.8753L205.772 61.7593C206.641 61.4116 207.163 61.2378 207.221 61.2378C208.148 61.5855 208.727 61.9912 209.075 62.8025ZM206.41 66.1634L206.815 66.6271C207.105 66.5691 207.337 66.5111 207.453 66.5111C207.858 66.4531 208.264 66.3373 208.669 66.2214L209.944 66.3372C209.944 66.3372 210.002 66.2792 210.06 66.1054C210.06 65.9895 210.06 65.9317 210.06 65.8737C210.06 65.7578 209.944 65.584 209.771 65.3522C209.713 65.2943 209.655 65.2362 209.539 65.0624C209.191 64.5988 208.959 64.367 208.843 64.367L208.09 64.0193C207.974 63.9614 207.858 63.7876 207.684 63.4978C207.221 63.4399 206.525 63.382 205.424 63.382H204.961L204.207 63.8455C204.15 63.9035 203.744 63.9613 202.991 64.1352C202.353 64.367 201.774 64.5989 201.31 64.7727C201.194 64.8306 200.905 65.1204 200.441 65.526C200.325 65.584 200.151 65.7577 199.919 65.9315V66.0475L199.977 66.1054L201.658 66.7429L202.179 67.2644L203.049 66.2214C203.107 66.1634 203.222 66.1054 203.28 66.1054C203.338 66.1054 203.686 66.2214 204.381 66.3952H204.439C204.613 66.3952 205.077 66.3372 205.714 66.1634C205.83 66.2213 206.12 66.2213 206.41 66.1634Z" fill="#1F4D25"></path>
    <path d="M232.95 62.8025L233.703 62.3388C233.935 62.6286 234.109 62.8024 234.167 62.8603C234.225 62.9183 234.341 62.9763 234.631 63.0922C234.804 63.1501 235.442 63.7876 236.601 65.0045C236.948 65.4102 237.238 65.7578 237.354 66.0475C237.47 66.3373 237.586 66.6849 237.76 67.0906C237.876 67.3224 237.934 67.5542 238.049 67.9019L237.876 68.0758C237.702 68.0178 237.47 67.9598 237.18 67.8439L236.311 68.1336L235.558 68.0177L234.862 68.1916C233.935 67.5542 233.414 67.2064 233.414 67.2064C233.298 67.2064 232.95 67.4962 232.371 68.1336C231.385 67.9597 230.864 67.8439 230.806 67.8439C230.574 67.8439 230.284 67.844 229.937 67.9019L229.821 67.7859C229.589 67.8439 228.952 67.8439 227.851 67.8439L227.039 67.9597L225.996 68.0758L224.953 68.2496H224.026C223.157 68.5393 222.577 68.6551 222.23 68.7131C222.172 69.2346 222.056 69.5823 221.998 69.7561C221.882 69.9879 221.708 70.2197 221.476 70.5095C221.94 70.8571 222.23 71.0889 222.23 71.2048C222.404 72.1899 222.52 72.8273 222.635 73.175L223.041 73.4068L222.925 74.2182L223.62 74.392C223.794 75.0295 223.968 75.435 224.2 75.6089C224.432 75.7827 224.779 75.9566 225.359 76.0146C225.417 76.4781 225.533 76.7678 225.707 76.8257C225.823 76.9416 226.112 76.9996 226.518 76.9996L226.923 77.5791C227.097 77.5211 227.213 77.5211 227.329 77.5211C227.445 77.5211 227.851 77.695 228.662 78.1006C228.836 78.2165 229.068 78.2166 229.241 78.2166C229.415 78.2166 229.821 78.1006 230.4 77.9268L231.849 77.7529L232.95 77.4632C233.472 77.4053 233.819 77.4052 233.993 77.3472C234.225 77.2313 234.746 76.9996 235.384 76.5361C236.021 76.1304 236.427 75.8406 236.543 75.7247C236.833 75.435 237.064 75.0293 237.296 74.6237C237.412 74.4498 237.644 74.334 237.934 74.334C238.049 74.334 238.281 74.4498 238.513 74.6237C238.397 75.1452 238.281 75.493 238.223 75.6669C237.586 76.7679 237.18 77.4632 237.006 77.8109C236.833 77.695 236.659 77.6949 236.485 77.6949C236.369 77.6949 236.137 77.8689 235.732 78.1586C235.442 78.3324 235.094 78.4483 234.689 78.4483C233.761 78.6801 233.124 78.854 232.718 78.9119C232.081 78.9699 231.733 79.0278 231.559 79.0858C231.096 79.2596 230.864 79.3176 230.806 79.3176L229.473 79.0858L228.662 79.2016H228.256C227.909 79.2596 227.619 79.2596 227.445 79.2596C227.271 79.2596 226.692 79.2017 225.765 79.0858L225.359 79.0278L224.895 78.7381C223.736 78.3904 223.157 78.1585 223.041 78.1006C222.983 78.0426 222.693 77.8109 222.288 77.4052C222.23 77.3473 221.998 77.2314 221.476 76.8837C221.071 76.6519 220.839 76.4201 220.781 76.3042L220.375 75.5509C220.317 75.435 220.086 75.1453 219.622 74.6817C219.796 74.4499 219.854 74.2761 219.854 74.1602C219.854 74.1022 219.68 73.6966 219.274 72.8853C219.159 72.6535 219.101 72.0162 219.101 70.9731C219.101 70.6255 219.216 70.1039 219.39 69.3506C219.564 68.7711 219.68 68.4233 219.796 68.3074L220.549 67.3802L221.071 66.3372C221.592 65.8736 222.172 65.2942 222.809 64.7147L224.49 63.6717L226.17 62.5126L226.808 62.3968L228.546 61.8753L229.647 61.7593C230.516 61.4116 231.038 61.2378 231.096 61.2378C232.023 61.5855 232.602 61.9912 232.95 62.8025ZM230.284 66.1634L230.69 66.6271C230.98 66.5691 231.212 66.5111 231.328 66.5111C231.733 66.4531 232.139 66.3373 232.544 66.2214L233.819 66.3372C233.819 66.3372 233.877 66.2792 233.935 66.1054C233.935 65.9895 233.935 65.9317 233.935 65.8737C233.935 65.7578 233.819 65.584 233.645 65.3522C233.587 65.2943 233.53 65.2362 233.414 65.0624C233.066 64.5988 232.834 64.367 232.718 64.367L231.965 64.0193C231.849 63.9614 231.733 63.7876 231.559 63.4978C231.096 63.4399 230.4 63.382 229.299 63.382H228.836L228.082 63.8455C228.025 63.9035 227.619 63.9613 226.866 64.1352C226.228 64.367 225.649 64.5989 225.185 64.7727C225.069 64.8306 224.779 65.1204 224.316 65.526C224.2 65.584 224.026 65.7577 223.794 65.9315V66.0475L223.852 66.1054L225.533 66.7429L226.054 67.2644L226.923 66.2214C226.981 66.1634 227.097 66.1054 227.155 66.1054C227.213 66.1054 227.561 66.2214 228.256 66.3952H228.314C228.488 66.3952 228.952 66.3372 229.589 66.1634C229.705 66.2213 229.995 66.2213 230.284 66.1634Z" fill="#1F4D25"></path>
    <path d="M243.844 64.2529C243.96 63.7314 244.366 63.3256 245.003 63.0359C245.699 62.4564 246.22 62.2247 246.568 62.2247C246.915 62.2247 247.147 62.3405 247.205 62.5144C247.263 62.5723 247.263 62.978 247.263 63.8472C247.263 64.079 247.437 64.4846 247.785 65.0641C248.364 64.3108 248.77 63.9053 248.828 63.9053L249.639 63.3837C250.218 62.8622 250.624 62.6304 250.798 62.6304C250.972 62.6304 251.204 62.8042 251.377 63.1519C252.189 62.5724 253.058 62.2247 253.869 62.2247C254.043 62.2247 254.159 62.2248 254.275 62.2827L254.738 62.3986C255.318 62.1668 255.666 62.1089 255.782 62.1089C255.955 62.1089 256.361 62.1667 257.056 62.3406C257.462 62.4564 257.868 62.5144 258.215 62.5144C258.447 62.7462 258.563 62.9201 258.679 62.9201L259.2 63.0359C259.606 63.0938 260.07 63.4995 260.591 64.3108C260.881 64.8323 261.055 65.9333 261.113 67.6138C260.765 67.6138 260.359 67.6718 260.012 67.8457C259.606 67.9615 259.432 68.1354 259.432 68.2513C259.432 68.2513 259.954 68.541 260.939 69.0625C261.055 69.1205 261.113 69.2944 261.113 69.5262C261.113 69.758 260.997 70.2215 260.707 70.9169C260.707 70.9748 260.707 70.9748 260.707 71.0327C260.707 71.2065 260.881 71.4384 261.171 71.7861C261.113 72.0758 261.113 72.3656 261.113 72.5974C261.113 72.7712 261.229 73.1188 261.46 73.7563L261.518 74.9733L261.576 76.0741L261.518 77.0013C261.518 77.1751 261.576 77.407 261.75 77.8127C261.345 78.1024 261.055 78.3342 260.881 78.3922C260.823 78.4501 260.475 78.5659 259.838 78.7977C259.722 78.8556 259.374 79.0875 258.853 79.4352C258.447 78.9716 258.215 78.6239 258.215 78.3342C258.215 78.2183 258.331 77.6389 258.621 76.5958C258.621 76.5379 258.679 76.3639 258.679 76.0741C258.679 75.9582 258.679 75.8423 258.679 75.7265L259.142 75.5526C259.896 75.4367 260.301 75.3788 260.301 75.2629L260.07 75.0891C259.722 74.8573 259.142 74.6834 258.389 74.5096C258.505 73.8722 258.621 73.4665 258.737 73.3506L259.432 72.7132C259.78 72.3655 259.954 72.0758 259.954 71.7861C259.954 71.7281 259.432 71.4964 258.447 71.1487L258.505 70.3374L258.389 69.1205C258.389 69.1205 258.389 69.0626 258.447 68.9467C258.505 68.7728 258.563 68.5989 258.621 68.3092C258.389 68.0194 258.273 67.8456 258.273 67.7876V66.6288C258.273 66.455 258.157 66.281 257.926 65.9913C257.694 65.7595 257.578 65.4697 257.578 65.2379L257.462 65.1221C257.114 65.0062 256.882 64.9482 256.825 64.8903L256.187 63.7892C256.071 63.6154 255.955 63.4996 255.782 63.4996C255.55 63.4996 255.202 63.6733 254.854 63.9631C254.275 64.4267 253.811 64.7164 253.348 64.7164C253.29 64.7164 252.942 64.6585 252.421 64.5426L252.015 64.9483V65.0641C251.725 64.3108 251.377 63.9053 251.088 63.9053C251.088 63.9053 250.972 63.9631 250.856 64.0211C250.624 64.137 250.392 64.195 250.161 64.2529C249.871 64.3688 249.407 64.5426 248.944 64.8903C248.19 65.2959 247.785 65.5857 247.669 65.8174C247.437 66.1651 247.321 66.5128 247.321 66.8605C247.321 66.8605 247.321 67.382 247.379 68.3092V68.3672C247.379 68.6569 247.321 68.8307 247.205 68.8887L246.162 69.642C246.046 69.7 245.988 69.8159 245.988 69.8739C245.988 70.0477 246.104 70.1635 246.394 70.3374C246.973 70.6271 247.321 70.859 247.437 70.9749C247.495 71.0908 247.553 71.2065 247.553 71.3804C247.553 71.4383 247.553 71.5543 247.495 71.8441L247.553 73.5246C247.553 73.6405 247.437 73.8143 247.147 74.2199C247.089 74.2779 247.089 74.3357 247.089 74.4516C247.089 74.7413 247.263 75.0312 247.553 75.321L247.495 75.3788C247.553 75.7265 247.553 75.9583 247.553 76.1321C247.611 77.0013 247.727 77.6968 247.901 78.2183C247.727 78.5081 247.611 78.7397 247.437 78.7977C247.379 78.8556 247.147 78.8557 246.684 78.9137C246.626 78.9137 246.51 78.9716 246.394 79.0295C246.22 79.0875 246.104 79.1453 246.046 79.1453C245.93 79.1453 245.815 79.2613 245.699 79.4352C245.583 79.609 245.409 79.7249 245.177 79.7249C245.061 79.7249 244.945 79.609 244.771 79.4352C244.656 79.3193 244.598 79.2034 244.598 79.0295C244.598 78.9136 244.598 78.7977 244.656 78.6238C244.771 78.1603 244.829 77.9286 244.829 77.8127V76.0741C244.945 75.6105 245.061 75.3789 245.061 75.321C245.061 75.1471 245.003 74.9731 244.945 74.7993C244.887 74.5095 244.829 74.2778 244.829 74.1619C244.829 74.104 244.829 73.9302 244.887 73.6984C244.887 73.5246 244.887 73.4086 244.887 73.2927C244.887 73.1189 244.887 72.8292 244.887 72.4236C244.887 72.2497 244.887 72.0757 244.887 71.9019C244.887 71.728 244.945 71.4384 245.061 71.1487L245.699 70.8589C245.641 70.743 245.641 70.6271 245.525 70.5692C245.409 70.5113 245.177 70.5111 244.771 70.4532C244.771 70.1635 244.771 69.9317 244.771 69.7578C244.771 69.642 244.829 69.4102 244.887 69.0625C244.887 69.0046 244.887 68.8887 244.887 68.7728C244.887 68.4251 244.829 67.7876 244.656 66.8605L245.177 66.5708C244.887 66.1652 244.714 65.8754 244.714 65.8174C244.656 65.7595 244.656 65.5857 244.598 65.2959C244.366 65.0062 244.192 64.6586 243.844 64.2529Z" fill="#1F4D25"></path>
    <path d="M269.225 67.2072L270.037 67.381L270.211 67.2072L269.979 66.0483C270.269 65.8745 270.5 65.7586 270.558 65.7007C270.616 65.6427 271.022 65.2371 271.833 64.4258L272.471 64.0201C272.76 63.7883 272.992 63.6145 273.166 63.6145C273.282 63.6145 273.572 63.6725 273.977 63.7305L274.267 63.9621C274.557 63.7303 274.904 63.5565 275.31 63.4406V62.8611C275.426 62.7452 275.774 62.6294 276.353 62.3976L277.396 62.0499L278.149 61.9919C278.497 61.876 278.729 61.8181 278.787 61.8181C278.903 61.8181 279.077 61.8761 279.308 62.0499C279.772 62.3397 280.062 62.5136 280.178 62.6294L280.641 62.0499C281.105 62.1658 281.395 62.2818 281.568 62.2818C282.553 62.4556 283.075 62.5714 283.133 62.5714L283.654 62.9191C283.712 62.9771 283.77 62.9771 283.886 62.9771C284.118 62.9771 284.408 62.8612 284.697 62.5714C284.466 62.2817 284.35 62.1079 284.35 62.0499L284.234 60.6592L284.118 60.1956C285.045 59.5581 285.509 59.2105 285.509 59.1526C285.509 59.0367 285.219 58.6889 284.697 58.1674C284.35 57.7617 284.176 57.1243 284.176 56.1972L284.756 55.9075C284.64 55.6757 284.524 55.386 284.466 55.0383C284.234 54.3429 284.118 53.8794 284.118 53.5896L284.06 52.9521C284.06 52.4885 284.118 51.9091 284.118 51.2137C284.118 50.982 284.176 50.6343 284.292 50.1127L284.06 48.8379C284.06 48.7799 284.118 48.606 284.176 48.4322L284.582 48.2004C284.466 47.9686 284.35 47.8527 284.35 47.8527C284.292 47.7368 284.06 47.7369 283.712 47.7369L283.596 47.6788L283.539 47.621L285.393 46.4041L284.929 45.8246L284.756 44.7815C284.698 44.5497 284.466 44.318 284.002 44.1441C283.249 43.9123 282.901 43.6805 282.901 43.6225C282.901 43.5066 282.959 43.3908 283.133 43.2749C283.249 43.159 283.828 43.0431 284.813 42.8113C285.103 42.4056 285.799 42.1159 287.015 42C287.131 42.2318 287.189 42.5795 287.189 43.0431L287.247 43.4487C287.247 43.4487 287.189 43.7964 287.073 44.4338V45.0712L287.015 45.4769V46.4041V47.0415V47.9687C287.015 48.0846 286.957 48.2584 286.9 48.4322C286.784 48.8958 286.668 49.1275 286.668 49.1275L286.784 50.8081L286.32 51.6192C286.436 52.1408 286.668 52.5465 286.9 52.9521L286.668 53.7635L286.784 54.4008C286.668 54.7485 286.61 54.9804 286.61 55.0383C286.61 55.2701 286.668 55.6177 286.784 56.0233C286.842 56.1972 286.842 56.3131 286.842 56.429C286.842 56.5449 286.784 56.6608 286.726 56.8347L286.204 56.9505C286.03 57.2982 285.972 57.53 285.972 57.7039C285.972 57.8198 285.972 57.9356 285.972 58.0515C286.494 58.3413 286.784 58.6889 286.784 58.9207C286.784 58.9787 286.726 59.3844 286.668 60.2536C286.668 60.3115 286.668 60.3695 286.668 60.4854C286.668 60.891 286.726 61.2965 286.784 61.7601C286.842 61.9339 286.842 62.0499 286.842 62.1658C286.842 62.2237 286.842 62.2238 286.842 62.2818L286.784 62.6873V63.2088C286.61 63.5565 286.494 63.7303 286.494 63.7883L286.552 65.0053V65.4108L286.61 66.7437L286.784 68.2504V68.7139L286.9 69.7569L286.842 70.8579L287.189 72.8281V73.6975C287.421 74.5667 287.537 75.0881 287.537 75.3778C287.537 75.7255 287.595 76.0733 287.595 76.363C287.827 76.5948 288.001 76.8266 288.001 77.1164C288.001 77.2323 288.001 77.2901 288.001 77.406C287.827 77.5219 287.305 77.5798 286.378 77.6957C285.683 77.8695 285.161 77.9276 284.697 77.9855L284.408 77.6957C284.002 77.9854 283.654 78.1594 283.365 78.2174C283.249 78.2753 282.611 78.3911 281.452 78.6229C279.83 79.0285 278.671 79.2604 277.976 79.2604C276.875 79.4342 276.237 79.4922 275.947 79.4922C274.557 79.4922 273.456 79.3762 272.702 79.2024L272.297 78.5651C271.833 78.7968 271.601 78.9127 271.485 78.9127C271.37 78.9127 271.312 78.7967 271.254 78.6229C271.254 78.5649 271.196 78.4492 271.138 78.2174C271.138 78.1015 271.022 77.9856 270.906 77.8697C270.616 77.9856 270.384 78.1014 270.211 78.1014C269.979 78.1014 269.805 78.0436 269.631 77.8697C269.052 77.3482 268.588 77.0004 268.298 76.8265C268.356 76.5947 268.356 76.4209 268.356 76.247C268.356 75.9573 268.24 75.6676 267.951 75.4358C267.603 75.1461 267.429 74.9723 267.429 74.9143L267.371 74.5087C267.139 73.4076 267.023 72.8282 267.023 72.7123C267.023 72.4805 267.081 72.1328 267.139 71.7851C267.197 71.5533 267.255 71.2057 267.255 70.7421L267.661 70.0467C268.24 68.5981 268.588 67.7868 268.704 67.6709C268.646 67.6129 268.878 67.439 269.225 67.2072ZM270.5 74.6245C270.79 74.7983 271.022 74.9722 271.022 75.0302L271.254 75.5517C271.659 76.0732 271.891 76.421 272.007 76.5949C272.123 76.7108 272.413 77.0004 272.876 77.406L273.456 77.9855L274.093 78.2752C274.615 78.6808 274.846 78.8547 274.904 78.8547C275.194 78.8547 275.368 78.449 275.542 77.6957C276.063 77.9854 276.585 78.1594 276.99 78.1594L278.961 78.1014H279.888L281.858 77.6379C282.611 77.522 283.075 77.3481 283.249 77.2322C283.596 76.7107 283.886 76.3051 284.176 76.0153C284.06 75.7836 284.002 75.6096 284.002 75.5517L284.118 74.9143V73.1758V71.7271C284.002 71.3215 283.944 70.9739 283.944 70.6263L284.697 70.3364C284.582 70.1046 284.582 69.8729 284.582 69.6991C284.582 69.5832 284.582 69.4092 284.582 69.2354L284.06 69.1196L285.451 67.9605L284.118 66.396V65.9323C284.118 65.8744 284.06 65.8165 283.944 65.6427V64.8893C283.712 64.7734 283.539 64.7155 283.423 64.7155C283.365 64.7155 283.133 64.7735 282.727 64.9473C282.727 64.9473 282.611 64.9473 282.496 64.9473C282.032 64.9473 281.684 64.8893 281.568 64.7155L280.757 63.9621L279.192 63.4986L278.323 62.9191C277.686 63.7304 277.396 64.078 277.338 64.136H277.222H277.048C276.817 64.136 276.411 64.2518 275.89 64.4836L275.252 64.4258C274.904 64.4258 274.441 64.7155 273.977 65.237L273.224 65.1212C272.992 65.4109 272.818 65.5847 272.702 65.6427L271.949 66.0483C271.37 66.5699 271.08 67.0334 271.138 67.439C270.674 67.7288 270.327 68.0764 270.095 68.482L269.457 69.4092C269.399 69.5831 269.341 69.9887 269.341 70.5102C269.341 70.742 269.399 71.0317 269.515 71.3794L269.631 71.9009L269.863 72.4804L270.095 73.06C270.384 73.5235 270.5 73.8133 270.5 73.9871C270.5 74.2769 270.5 74.4506 270.5 74.6245Z" fill="#1F4D25"></path>
    <path d="M113.056 102.845C113.056 103.134 112.94 103.424 112.766 103.598C112.592 103.772 112.303 103.888 112.013 103.888H108.13C107.841 103.888 107.551 103.772 107.377 103.598C107.203 103.424 107.087 103.134 107.087 102.845V90.154C107.087 89.8643 107.203 89.5745 107.377 89.4007C107.551 89.2268 107.841 89.1108 108.13 89.1108H112.013C112.303 89.1108 112.592 89.2268 112.766 89.4007C112.94 89.5745 113.056 89.8643 113.056 90.154V93.5729H111.723V90.2699H108.362V102.729H111.723V97.6292H110.159V96.4703H113.056V102.845Z" fill="#ED2224"></path>
    <path d="M120.416 103.887H119.199V103.655C118.677 103.713 118.214 103.771 117.692 103.829C117.055 103.887 116.591 103.945 116.186 103.945C115.49 103.945 115.143 103.597 115.143 102.902V99.5409C115.143 98.8456 115.49 98.4979 116.186 98.4979H119.141V95.7164H116.417V97.2809H115.2V95.7164C115.2 95.021 115.548 94.6733 116.244 94.6733H119.257C119.952 94.6733 120.3 95.021 120.3 95.7164V103.887H120.416ZM119.199 102.786V99.5409H116.417V102.844L119.199 102.786Z" fill="#ED2224"></path>
    <path d="M127.312 97.7446H126.095V95.8322L123.777 95.8902V103.887H122.502V94.7312H123.777V94.963C124.182 94.9051 124.588 94.8471 125.052 94.7892C125.573 94.7312 125.979 94.6733 126.326 94.6733C127.022 94.6733 127.37 95.021 127.37 95.7164V97.7446H127.312Z" fill="#ED2224"></path>
    <path d="M138.147 103.887H136.872V95.8322L134.149 95.8902V103.887H132.932V95.8322L130.208 95.8902V103.887H128.934V94.7312H130.208V94.963C130.672 94.9051 131.193 94.8471 131.657 94.7892C132.237 94.7312 132.758 94.6733 133.164 94.6733C133.569 94.6733 133.859 94.7892 134.033 95.021C134.554 94.9631 135.076 94.9051 135.598 94.7892C136.293 94.6733 136.814 94.6733 137.162 94.6733C137.858 94.6733 138.205 95.021 138.205 95.7164V103.887H138.147Z" fill="#ED2224"></path>
    <path d="M145.275 102.846C145.275 103.541 144.927 103.889 144.232 103.889H141.218C140.523 103.889 140.175 103.541 140.175 102.846V95.7761C140.175 95.0807 140.523 94.7329 141.218 94.7329H144.232C144.927 94.7329 145.275 95.0807 145.275 95.7761V99.079L144.869 99.5427H141.392V102.846H144.116V101.165H145.333V102.846H145.275ZM144.058 98.5575V95.7761H141.334V98.5575H144.058Z" fill="#ED2224"></path>
    <path d="M152.634 103.887H151.359V95.8322L148.578 95.8902V103.887H147.303V94.7312H148.578V94.963C149.041 94.9051 149.563 94.8471 150.084 94.7892C150.664 94.7312 151.185 94.6733 151.591 94.6733C152.286 94.6733 152.634 95.021 152.634 95.7164V103.887Z" fill="#ED2224"></path>
    <path d="M157.966 103.887H156.17C155.474 103.887 155.126 103.54 155.126 102.844V95.8325H154.025V94.7315H155.126V91.8921H156.343V94.7315H157.966V95.8325H156.343V102.786H157.966V103.887Z" fill="#ED2224"></path>
    <path d="M164.512 102.844C164.512 103.54 164.165 103.887 163.469 103.887H160.572C159.876 103.887 159.529 103.54 159.529 102.844V100.758H160.746V102.844H163.295V100.99L159.992 98.3245C159.703 98.0927 159.529 97.7449 159.529 97.3393V95.8326C159.529 95.1372 159.876 94.7896 160.572 94.7896H163.411C164.107 94.7896 164.454 95.1372 164.454 95.8326V97.6869H163.237V95.8906H160.688V97.5131L163.991 100.179C164.28 100.41 164.454 100.758 164.454 101.164V102.844H164.512Z" fill="#ED2224"></path>
    <path d="M171.814 103.888H170.481V89.1108H171.814V103.888Z" fill="#ED2224"></path>
    <path d="M179.406 103.887H178.132V95.8322L175.35 95.8902V103.887H174.075V94.7312H175.35V94.963C175.814 94.9051 176.335 94.8471 176.857 94.7892C177.436 94.7312 177.958 94.6733 178.363 94.6733C179.059 94.6733 179.406 95.021 179.406 95.7164V103.887Z" fill="#ED2224"></path>
    <path d="M186.65 103.886H185.433V103.654C184.1 103.886 183.347 103.944 183.173 103.944C182.651 103.944 182.188 103.77 181.898 103.423C181.55 103.075 181.435 102.611 181.435 102.09V96.7008C181.435 96.1213 181.608 95.6576 182.014 95.3099C182.362 94.9622 182.825 94.7304 183.405 94.7304H185.491V89.1675H186.708V103.886H186.65ZM185.433 102.785V95.8314H183.695C182.999 95.8314 182.651 96.1792 182.651 96.8746V101.8C182.651 102.495 182.999 102.843 183.695 102.843C183.868 102.843 184.448 102.843 185.433 102.785Z" fill="#ED2224"></path>
    <path d="M194.008 103.887H192.791V103.655C192.269 103.713 191.806 103.771 191.284 103.829C190.705 103.887 190.183 103.945 189.777 103.945C189.082 103.945 188.734 103.597 188.734 102.902V94.6733H189.951V102.728L192.733 102.67V94.6733H193.95V103.887H194.008Z" fill="#ED2224"></path>
    <path d="M201.021 102.844C201.021 103.54 200.673 103.887 199.978 103.887H197.081C196.385 103.887 196.038 103.54 196.038 102.844V100.758H197.255V102.844H199.804V100.99L196.501 98.3245C196.211 98.0927 196.038 97.7449 196.038 97.3393V95.8326C196.038 95.1372 196.385 94.7896 197.081 94.7896H199.92C200.616 94.7896 200.963 95.1372 200.963 95.8326V97.6869H199.746V95.8906H197.197V97.5131L200.5 100.179C200.789 100.41 200.963 100.758 200.963 101.164V102.844H201.021Z" fill="#ED2224"></path>
    <path d="M206.293 103.887H204.497C203.802 103.887 203.454 103.54 203.454 102.844V95.8325H202.353V94.7315H203.454V91.8921H204.671V94.7315H206.293V95.8325H204.671V102.786H206.293V103.887Z" fill="#ED2224"></path>
    <path d="M212.725 97.7446H211.508V95.8322L209.19 95.8902V103.887H207.916V94.7312H209.19V94.963C209.596 94.9051 210.002 94.8471 210.465 94.7892C210.987 94.7312 211.392 94.6733 211.74 94.6733C212.435 94.6733 212.783 95.021 212.783 95.7164V97.7446H212.725Z" fill="#ED2224"></path>
    <path d="M219.449 94.7329L217.247 103.831L216.32 107.366H215.103L216.03 103.831L213.77 94.7329H215.045L216.609 101.976L218.174 94.7329H219.449Z" fill="#ED2224"></path>
    <path d="M229.645 103.888H224.952V89.1108H226.284V102.729H229.703V103.888H229.645Z" fill="#ED2224"></path>
    <path d="M232.602 92.7043H231.327V91.1396H232.602V92.7043ZM232.602 103.888H231.385V94.7324H232.602V103.888Z" fill="#ED2224"></path>
    <path d="M243.958 103.887H242.683V95.8322L239.96 95.8902V103.887H238.743V95.8322L236.019 95.8902V103.887H234.745V94.7312H236.019V94.963C236.483 94.9051 237.005 94.8471 237.468 94.7892C238.048 94.7312 238.569 94.6733 238.975 94.6733C239.38 94.6733 239.67 94.7892 239.844 95.021C240.366 94.9631 240.887 94.9051 241.409 94.7892C242.104 94.6733 242.626 94.6733 242.973 94.6733C243.669 94.6733 244.016 95.021 244.016 95.7164V103.887H243.958Z" fill="#ED2224"></path>
    <path d="M247.32 92.7043H246.045V91.1396H247.32V92.7043ZM247.32 103.888H246.103V94.7324H247.32V103.888Z" fill="#ED2224"></path>
    <path d="M252.768 103.887H250.971C250.276 103.887 249.928 103.54 249.928 102.844V95.8325H248.827V94.7315H249.928V91.8921H251.145V94.7315H252.768V95.8325H251.145V102.786H252.768V103.887Z" fill="#ED2224"></path>
    <path d="M259.489 102.846C259.489 103.541 259.141 103.889 258.446 103.889H255.433C254.737 103.889 254.39 103.541 254.39 102.846V95.7761C254.39 95.0807 254.737 94.7329 255.433 94.7329H258.446C259.141 94.7329 259.489 95.0807 259.489 95.7761V99.079L259.083 99.5427H255.607V102.846H258.33V101.165H259.547V102.846H259.489ZM258.272 98.5575V95.7761H255.549V98.5575H258.272Z" fill="#ED2224"></path>
    <path d="M266.792 103.886H265.575V103.654C264.242 103.886 263.489 103.944 263.315 103.944C262.793 103.944 262.33 103.77 262.04 103.423C261.692 103.075 261.577 102.611 261.577 102.09V96.7008C261.577 96.1213 261.75 95.6576 262.156 95.3099C262.504 94.9622 262.967 94.7304 263.547 94.7304H265.633V89.1675H266.85V103.886H266.792ZM265.575 102.785V95.8314H263.837C263.141 95.8314 262.794 96.1792 262.794 96.8746V101.8C262.794 102.495 263.141 102.843 263.837 102.843C263.953 102.843 264.532 102.843 265.575 102.785Z" fill="#ED2224"></path>
  </g>
  <defs>
    <linearGradient id="paint0_linear_54_3468" x1="62.1752" y1="72.6392" x2="21.956" y2="72.6392" gradientUnits="userSpaceOnUse">
      <stop stop-color="white"></stop>
      <stop offset="1" stop-color="#9D1F60"></stop>
    </linearGradient>
    <linearGradient id="paint1_linear_54_3468" x1="8.61256" y1="72.9625" x2="32.7936" y2="72.9625" gradientUnits="userSpaceOnUse">
      <stop stop-color="white"></stop>
      <stop offset="0.1187" stop-color="#FCD4D5"></stop>
      <stop offset="0.2867" stop-color="#F79FA0"></stop>
      <stop offset="0.4511" stop-color="#F47273"></stop>
      <stop offset="0.608" stop-color="#F14F51"></stop>
      <stop offset="0.7556" stop-color="#EF3638"></stop>
      <stop offset="0.8902" stop-color="#ED2729"></stop>
      <stop offset="1" stop-color="#ED2224"></stop>
    </linearGradient>
    <linearGradient id="paint2_linear_54_3468" x1="41.02" y1="93.9826" x2="0.0243376" y2="93.9826" gradientUnits="userSpaceOnUse">
      <stop stop-color="white"></stop>
      <stop offset="0.00293547" stop-color="#FDFEFE"></stop>
      <stop offset="0.1224" stop-color="#C4DCD0"></stop>
      <stop offset="0.2447" stop-color="#91BDA7"></stop>
      <stop offset="0.3677" stop-color="#66A385"></stop>
      <stop offset="0.4913" stop-color="#428E69"></stop>
      <stop offset="0.6156" stop-color="#277E53"></stop>
      <stop offset="0.7411" stop-color="#137243"></stop>
      <stop offset="0.8682" stop-color="#086B3A"></stop>
      <stop offset="1" stop-color="#046937"></stop>
    </linearGradient>
    <clipPath id="clip0_54_3468">
      <rect width="288" height="150" fill="white"></rect>
    </clipPath>
  </defs>
</svg>
