<svg xmlns="http://www.w3.org/2000/svg" width="365" height="145" viewBox="0 0 365 145" fill="none"><g clip-path="url(#clip0_52_1868)"><path d="M54.7778 11.3778L5.94189 101.289L187.278 23.1134V32.1991L200.906 16.1099L181.41 14.5954L187.278 20.4635L75.2205 60.2133L54.7778 11.3778Z" fill="url(#paint0_linear_52_1868)"></path><path d="M50.9919 39.5812L36.606 72.3276L61.4026 63.242L50.9919 39.5812Z" fill="url(#paint1_linear_52_1868)"></path><path d="M69.3521 82.3596L79.9522 77.2484L91.4987 103.559H78.6272L69.3521 82.3596Z" fill="url(#paint2_linear_52_1868)"></path><mask id="mask0_52_1868" style="mask-type:luminance" maskUnits="userSpaceOnUse" x="0" y="0" width="365" height="145"><path d="M0 0.000396729H365V144.121H0V0.000396729Z" fill="white"></path></mask><g mask="url(#mask0_52_1868)"><mask id="mask1_52_1868" style="mask-type:luminance" maskUnits="userSpaceOnUse" x="99" y="61" width="260" height="43"><path d="M99.2822 61.3531H358.45V103.761H99.2822V61.3531Z" fill="white"></path></mask><g mask="url(#mask1_52_1868)"><path d="M113.707 62.1904H125.742L134.045 97.2814C134.204 97.8984 134.383 98.446 134.582 98.9239C134.761 99.3025 135.16 99.6106 135.777 99.8494C136.294 100.069 136.653 100.288 136.852 100.507C137.051 100.726 137.15 101.025 137.15 101.402C137.15 102.438 136.374 102.956 134.821 102.956H119.919C119.321 102.956 118.844 102.811 118.485 102.523C118.127 102.234 117.948 101.851 117.948 101.373C117.948 100.975 118.027 100.676 118.186 100.477C118.346 100.278 118.704 100.029 119.262 99.7304C119.659 99.5314 119.938 99.312 120.098 99.0732C120.257 98.8341 120.337 98.5355 120.337 98.1769C120.337 97.8389 120.307 97.5402 120.247 97.2814L119.292 92.9511H110.959L111.766 89.397H118.455L112.96 65.1169L113.707 62.1904ZM111.646 69.7758L113.169 75.9578L107.883 95.2508C107.723 95.8083 107.644 96.3256 107.644 96.8035C107.644 98.0579 108.231 98.9539 109.406 99.4913L110.452 99.9692C111.108 100.268 111.437 100.766 111.437 101.462C111.437 102.458 110.71 102.956 109.257 102.956H101.671C100.935 102.956 100.352 102.802 99.9244 102.493C99.4958 102.184 99.2822 101.761 99.2822 101.224C99.2822 100.646 99.7199 100.169 100.596 99.7899C101.412 99.4314 102.015 99.1083 102.403 98.8191C102.791 98.5311 103.165 98.1375 103.523 97.6395C104.08 96.8236 104.538 95.7386 104.897 94.3844L111.646 69.7758Z" fill="#006837"></path><path d="M155.727 64.817V61.5319C156.921 61.6115 157.956 61.7659 158.833 61.9948C159.708 62.2237 160.953 62.6768 162.566 63.3537C162.964 63.5133 163.292 63.5924 163.551 63.5924C163.929 63.5924 164.208 63.4632 164.387 63.2044L165.045 62.338C165.363 61.9007 165.751 61.6812 166.209 61.6812C166.747 61.6812 167.14 61.8755 167.389 62.2635C167.637 62.6516 167.762 63.2639 167.762 64.1003V73.9554C167.762 74.533 167.598 75.0058 167.269 75.3742C166.941 75.7425 166.518 75.9265 166 75.9265C165.602 75.9265 165.233 75.7973 164.895 75.5385C164.716 75.3793 164.571 75.185 164.462 74.9557C164.353 74.7272 164.248 74.3439 164.149 73.8061C163.929 72.831 163.551 71.8255 163.014 70.7898C162.476 69.7548 161.849 68.8293 161.132 68.0126C159.699 66.4 157.896 65.3346 155.727 64.817ZM151.815 100.356V103.761C150.181 103.761 148.38 103.292 146.409 102.357C145.672 102.019 145.164 101.799 144.886 101.7C144.607 101.6 144.338 101.55 144.079 101.55C143.681 101.55 143.382 101.615 143.184 101.745C142.984 101.874 142.665 102.198 142.228 102.715C141.87 103.153 141.481 103.372 141.063 103.372C139.948 103.372 139.391 102.517 139.391 100.804V89.9331C139.391 89.376 139.55 88.9028 139.869 88.5143C140.187 88.1263 140.585 87.9226 141.063 87.9025C141.501 87.8828 141.844 88.0065 142.093 88.2756C142.342 88.5447 142.556 89.0174 142.736 89.6943C143.193 91.4066 143.856 93.0093 144.722 94.5025C145.588 95.9957 146.598 97.2604 147.753 98.2954C148.927 99.3702 150.281 100.057 151.815 100.356ZM153.367 61.3826V64.817C152.132 65.1558 151.192 65.6786 150.545 66.3846C149.898 67.0918 149.575 67.9629 149.575 68.9979C149.575 69.9939 149.843 70.8646 150.381 71.6112C150.919 72.3578 151.794 73.0697 153.009 73.7466C153.845 74.2044 155.736 75.0806 158.683 76.3745C160.475 77.151 161.864 77.8527 162.85 78.4799C163.835 79.1072 164.766 79.8888 165.642 80.8245C167.991 83.2932 169.166 86.23 169.166 89.6344C169.166 92.2028 168.529 94.5525 167.254 96.6824C165.98 98.8131 164.228 100.486 161.998 101.7C160.804 102.337 159.494 102.84 158.071 103.208C156.647 103.576 155.318 103.761 154.084 103.761V100.356C155.816 99.9379 157.066 99.3552 157.832 98.609C158.599 97.862 158.982 96.8522 158.982 95.5773C158.982 94.2437 158.385 93.0688 157.19 92.0535C156.393 91.3963 154.88 90.5804 152.651 89.6045C150.202 88.5297 148.524 87.763 147.618 87.3048C146.712 86.8474 145.841 86.3096 145.005 85.6922C141.262 83.0245 139.391 79.4704 139.391 75.0306C139.391 72.7609 139.858 70.6656 140.794 68.7442C141.73 66.8231 143.034 65.2752 144.707 64.1003C147.036 62.468 149.923 61.5618 153.367 61.3826Z" fill="#006837"></path><path d="M192.729 103.761V100.117C194.282 99.9974 195.914 99.4108 197.627 98.3549C198.542 97.7777 199.359 97.0063 200.076 96.0402C200.792 95.075 201.33 94.0151 201.688 92.86C201.887 92.2229 202.121 91.7698 202.39 91.5011C202.659 91.232 203.012 91.0977 203.451 91.0977C203.928 91.0977 204.326 91.2769 204.645 91.6355C204.963 91.994 205.123 92.442 205.123 92.9794C205.123 93.8753 204.779 94.9607 204.092 96.2345C203.406 97.509 202.525 98.6835 201.449 99.7586C200.136 101.073 198.787 102.048 197.403 102.686C196.019 103.323 194.461 103.681 192.729 103.761ZM192.639 65.0262V61.4125C193.615 61.5721 194.406 61.7411 195.014 61.92C195.621 62.0992 196.72 62.4779 198.314 63.055C199.329 63.4136 200.006 63.5924 200.345 63.5924C200.922 63.5924 201.36 63.334 201.659 62.8163L202.047 62.0992C202.285 61.6213 202.734 61.3826 203.391 61.3826C203.928 61.3826 204.341 61.5422 204.63 61.8605C204.918 62.1792 205.063 62.6473 205.063 63.2639V75.6878C205.063 76.4844 204.884 77.0612 204.525 77.4201C204.167 77.7783 203.759 77.9575 203.301 77.9575C202.823 77.9575 202.44 77.8035 202.152 77.4946C201.862 77.1861 201.629 76.6834 201.449 75.9864C201.031 74.414 200.623 73.1793 200.225 72.283C199.369 70.3918 198.393 68.8592 197.298 67.684C196.562 66.8881 195.825 66.2755 195.088 65.8476C194.351 65.4194 193.535 65.1455 192.639 65.0262ZM190.28 61.3826V64.9962C189.105 65.1755 188.229 65.6932 187.652 66.5493C187.074 67.4054 186.786 68.6299 186.786 70.2228V94.8906V96.175C186.786 96.6332 186.88 97.1158 187.069 97.6233C187.259 98.1311 187.502 98.5641 187.801 98.9226C188.119 99.3209 188.458 99.6046 188.817 99.7736C189.175 99.943 189.663 100.058 190.28 100.117V103.761C186.417 103.761 183.063 102.755 180.216 100.744C177.707 98.9726 175.815 96.5883 174.541 93.5916C173.267 90.5954 172.63 87.0463 172.63 82.945C172.63 79.9389 173.043 77.1361 173.869 74.5377C174.696 71.9398 175.895 69.685 177.468 67.7738C179.061 65.8429 180.967 64.2898 183.187 63.1145C185.407 61.9405 187.542 61.3526 189.593 61.3526L190.28 61.3826Z" fill="#006837"></path><path d="M228.597 102.956V99.73C229.89 99.5314 230.96 99.2525 231.807 98.8936C232.653 98.5355 233.504 97.9882 234.361 97.2511C235.216 96.5147 235.898 95.7535 236.406 94.9667C236.914 94.1807 237.396 93.1402 237.855 91.846C238.073 91.2089 238.302 90.7759 238.541 90.5466C238.78 90.3181 239.109 90.2035 239.527 90.2035C240.084 90.2035 240.472 90.3674 240.692 90.696C240.911 91.0245 241.02 91.597 241.02 92.4133V102.956H228.597ZM228.567 62.1904H240.602V72.7622C240.602 73.3795 240.483 73.8275 240.244 74.1061C240.005 74.385 239.627 74.5245 239.109 74.5245C238.671 74.5245 238.352 74.4346 238.153 74.2554C237.954 74.0761 237.765 73.7081 237.586 73.1506C236.829 70.8411 235.719 69.0792 234.256 67.8645C232.792 66.6503 230.896 65.9234 228.567 65.6842V62.1904ZM228.417 83.9316V80.4673C229.572 79.9102 230.428 79.3027 230.986 78.6455C231.543 77.9888 231.951 77.1125 232.21 76.0177C232.369 75.2612 232.578 74.7384 232.837 74.4492C233.096 74.1612 233.464 74.0166 233.942 74.0166C234.579 74.0166 235.017 74.266 235.256 74.7632C235.396 75.0225 235.465 75.6099 235.465 76.5251V87.9038C235.465 88.8399 235.361 89.4864 235.152 89.8449C234.943 90.2035 234.559 90.3823 234.002 90.3823C233.544 90.3823 233.185 90.2433 232.927 89.9643C232.668 89.6858 232.459 89.2177 232.3 88.5606C231.961 87.1871 231.479 86.132 230.851 85.3953C230.224 84.6589 229.412 84.1704 228.417 83.9316ZM225.909 62.1904V102.956H212.619H211.842C211.126 102.956 210.573 102.821 210.185 102.553C209.797 102.283 209.603 101.9 209.603 101.402C209.603 100.586 210 100.049 210.797 99.7899C211.454 99.5708 211.837 99.4365 211.947 99.3865C212.056 99.3368 212.171 99.2222 212.29 99.0429C212.529 98.725 212.649 98.2175 212.649 97.5202V67.6258C212.649 66.9288 212.529 66.4214 212.29 66.1023C212.171 65.9234 212.056 65.8091 211.947 65.7591C211.837 65.7095 211.454 65.5751 210.797 65.3557C210 65.0972 209.603 64.5598 209.603 63.7431C209.603 63.2455 209.797 62.8621 210.185 62.5934C210.573 62.3247 211.126 62.1904 211.842 62.1904H212.619H225.909Z" fill="#006837"></path><path d="M264.494 102.956V99.73C265.788 99.5314 266.858 99.2525 267.704 98.8936C268.55 98.5355 269.401 97.9882 270.258 97.2511C271.114 96.5147 271.796 95.7535 272.304 94.9667C272.811 94.1807 273.293 93.1402 273.752 91.846C273.971 91.2089 274.2 90.7759 274.439 90.5466C274.678 90.3181 275.006 90.2035 275.424 90.2035C275.981 90.2035 276.37 90.3674 276.589 90.696C276.808 91.0245 276.918 91.597 276.918 92.4133V102.956H264.494ZM264.464 62.1904H276.5V72.7622C276.5 73.3795 276.38 73.8275 276.141 74.1061C275.902 74.385 275.524 74.5245 275.006 74.5245C274.569 74.5245 274.249 74.4346 274.05 74.2554C273.851 74.0761 273.663 73.7081 273.484 73.1506C272.726 70.8411 271.617 69.0792 270.153 67.8645C268.69 66.6503 266.793 65.9234 264.464 65.6842V62.1904ZM264.315 83.9316V80.4673C265.469 79.9102 266.325 79.3027 266.883 78.6455C267.44 77.9888 267.849 77.1125 268.108 76.0177C268.267 75.2612 268.476 74.7384 268.735 74.4492C268.993 74.1612 269.362 74.0166 269.84 74.0166C270.477 74.0166 270.915 74.266 271.154 74.7632C271.293 75.0225 271.363 75.6099 271.363 76.5251V87.9038C271.363 88.8399 271.258 89.4864 271.049 89.8449C270.84 90.2035 270.457 90.3823 269.899 90.3823C269.441 90.3823 269.083 90.2433 268.824 89.9643C268.565 89.6858 268.356 89.2177 268.197 88.5606C267.859 87.1871 267.376 86.132 266.749 85.3953C266.122 84.6589 265.31 84.1704 264.315 83.9316ZM261.806 62.1904V102.956H248.516H247.74C247.023 102.956 246.47 102.821 246.082 102.553C245.694 102.283 245.5 101.9 245.5 101.402C245.5 100.586 245.898 100.049 246.695 99.7899C247.352 99.5708 247.735 99.4365 247.844 99.3865C247.954 99.3368 248.068 99.2222 248.188 99.0429C248.427 98.725 248.546 98.2175 248.546 97.5202V67.6258C248.546 66.9288 248.427 66.4214 248.188 66.1023C248.068 65.9234 247.954 65.8091 247.844 65.7591C247.735 65.7095 247.352 65.5751 246.695 65.3557C245.898 65.0972 245.5 64.5598 245.5 63.7431C245.5 63.2455 245.694 62.8621 246.082 62.5934C246.47 62.3247 247.023 62.1904 247.74 62.1904H248.516H261.806Z" fill="#006837"></path><path d="M314.189 85.0068L311.023 79.6608V71.3883C311.023 69.7159 310.779 68.437 310.291 67.5509C309.803 66.6653 308.942 65.9037 307.708 65.2662C307.29 65.0673 307.001 64.8533 306.842 64.624C306.682 64.3955 306.603 64.1012 306.603 63.7431C306.603 63.2057 306.777 62.8125 307.125 62.5635C307.474 62.3145 308.037 62.19 308.813 62.19H316.279C317.295 62.19 317.962 62.3496 318.28 62.6679C318.618 62.9866 318.788 63.3649 318.788 63.803C318.788 64.221 318.693 64.5346 318.504 64.7434C318.315 64.9526 317.862 65.2363 317.145 65.5948C316.09 66.1322 315.294 66.9584 314.756 68.0734C314.378 68.8901 314.189 69.9948 314.189 71.3883V85.0068ZM298.301 62.19L314.189 89.7851V102.956H306.036L285.758 68.0139C285.32 67.2574 284.961 66.7295 284.682 66.4308C284.403 66.1322 284.045 65.9135 283.607 65.7741L282.472 65.3557C282.174 65.2564 281.935 65.0771 281.756 64.8183C281.577 64.5598 281.487 64.271 281.487 63.9523C281.487 63.6139 281.577 63.3002 281.756 63.0115C281.935 62.7231 282.174 62.5186 282.472 62.3992C282.811 62.2601 283.727 62.19 285.22 62.19H298.301ZM285.787 72.6727L288.953 77.9285V93.9361C288.953 95.33 289.187 96.4745 289.655 97.3708C290.122 98.2664 290.865 99.0031 291.88 99.5807L292.776 100.088C293.293 100.387 293.552 100.835 293.552 101.432C293.552 101.891 293.363 102.268 292.985 102.567C292.666 102.826 292.009 102.956 291.014 102.956H284.115C282.303 102.956 281.397 102.438 281.397 101.402C281.397 101.044 281.492 100.76 281.681 100.551C281.87 100.342 282.283 100.059 282.921 99.7001C284.831 98.645 285.787 96.7239 285.787 93.9361V72.6727Z" fill="#006837"></path><path d="M344.8 94.414V70.851C344.8 69.3975 344.591 68.2428 344.173 67.3866C343.914 66.8292 343.595 66.421 343.217 66.1621C342.839 65.9037 342.242 65.6842 341.425 65.505V62.19C342.48 62.19 343.376 62.2302 344.113 62.3098C346.641 62.5887 349.09 63.6639 351.46 65.5349C353.809 67.3469 355.551 69.7064 356.686 72.6129C357.861 75.5599 358.448 78.8248 358.448 82.4081C358.448 86.4701 357.702 90.079 356.209 93.2344C354.715 96.3902 352.574 98.8739 349.787 100.686C348.434 101.562 347.174 102.159 346.009 102.478C344.845 102.796 343.317 102.956 341.425 102.956V99.73C342.262 99.5114 342.844 99.312 343.172 99.1327C343.501 98.9535 343.785 98.6745 344.023 98.2963C344.322 97.8586 344.527 97.3657 344.636 96.8185C344.745 96.2708 344.8 95.4699 344.8 94.414ZM338.767 62.19V102.956H325.478H324.701C323.985 102.956 323.432 102.821 323.044 102.552C322.655 102.283 322.461 101.9 322.461 101.402C322.461 100.586 322.859 100.049 323.656 99.7899C324.313 99.5708 324.696 99.4365 324.806 99.3865C324.915 99.3368 325.029 99.2222 325.149 99.0429C325.388 98.7246 325.507 98.2171 325.507 97.5202V67.6254C325.507 66.9288 325.388 66.421 325.149 66.1023C325.029 65.9234 324.915 65.8091 324.806 65.7591C324.696 65.7095 324.313 65.5751 323.656 65.3557C322.859 65.0972 322.461 64.5598 322.461 63.7431C322.461 63.2455 322.655 62.8621 323.044 62.593C323.432 62.3243 323.985 62.19 324.701 62.19H325.478H338.767Z" fill="#006837"></path></g></g><path d="M358.424 135.904H5.94189V112.087H358.424V135.904Z" fill="url(#paint3_linear_52_1868)"></path><mask id="mask2_52_1868" style="mask-type:luminance" maskUnits="userSpaceOnUse" x="0" y="0" width="364" height="145"><path d="M0 0.00126648H363.485V144.123H0V0.00126648Z" fill="white"></path></mask><g mask="url(#mask2_52_1868)"><path d="M106.68 122.277H110.799L108.694 116.667L106.68 122.277ZM110.685 127.921V127.517C111.252 127.409 111.653 127.276 111.887 127.119C112.12 126.961 112.237 126.74 112.237 126.455C112.237 126.224 112.148 125.87 111.971 125.393L111.172 123.27H106.237L105.553 125.104C105.379 125.573 105.292 125.95 105.292 126.235C105.292 126.843 105.754 127.271 106.68 127.517V127.921H102.213V127.517C102.751 127.424 103.221 127.144 103.621 126.674C104.021 126.205 104.418 125.439 104.811 124.377L108.787 113.735H110.676L114.881 124.804C115.266 125.789 115.644 126.476 116.014 126.865C116.384 127.253 116.866 127.471 117.46 127.517V127.921H110.685Z" fill="black"></path><path d="M106.68 122.277H110.799L108.694 116.667L106.68 122.277ZM110.685 127.921V127.517C111.252 127.409 111.653 127.276 111.887 127.119C112.12 126.961 112.237 126.74 112.237 126.455C112.237 126.224 112.148 125.87 111.971 125.393L111.172 123.27H106.237L105.553 125.104C105.379 125.573 105.292 125.95 105.292 126.235C105.292 126.843 105.754 127.271 106.68 127.517V127.921H102.213V127.517C102.751 127.424 103.221 127.144 103.621 126.674C104.021 126.205 104.418 125.439 104.811 124.377L108.787 113.735H110.676L114.881 124.804C115.266 125.789 115.644 126.476 116.014 126.865C116.384 127.253 116.866 127.471 117.46 127.517V127.921H110.685Z" stroke="#757575" stroke-width="0.333333" stroke-miterlimit="10"></path><path d="M123.808 126.386V123.004C122.631 123.504 121.852 123.935 121.471 124.296C121.09 124.658 120.9 125.124 120.9 125.693C120.9 126.178 121.013 126.569 121.24 126.865C121.467 127.161 121.765 127.309 122.135 127.309C122.635 127.309 123.193 127.001 123.808 126.386ZM120.784 128.279C120.046 128.279 119.417 128.05 118.897 127.592C118.378 127.134 118.118 126.582 118.118 125.935C118.118 125.289 118.376 124.752 118.892 124.326C119.407 123.898 120.484 123.469 122.123 123.038C122.916 122.831 123.485 122.661 123.832 122.531C123.832 121.707 123.654 121.111 123.301 120.741C122.946 120.372 122.385 120.188 121.616 120.188C120.407 120.188 119.515 120.684 118.938 121.676H118.591C118.83 120.714 119.297 119.97 119.994 119.443C120.69 118.916 121.554 118.652 122.585 118.652C123.778 118.652 124.73 118.945 125.442 119.53C126.153 120.114 126.509 120.934 126.509 121.988V126.19C126.509 126.982 126.69 127.379 127.052 127.379C127.429 127.379 127.664 127.101 127.756 126.547H128.137C128.091 127.101 127.879 127.528 127.502 127.828C127.125 128.129 126.613 128.279 125.967 128.279C125.42 128.279 124.98 128.181 124.645 127.985C124.31 127.788 124.031 127.467 123.808 127.02L123.601 127.217C122.8 127.925 121.862 128.279 120.784 128.279Z" fill="black"></path><path d="M123.808 126.386V123.004C122.631 123.504 121.852 123.935 121.471 124.296C121.09 124.658 120.9 125.124 120.9 125.693C120.9 126.178 121.013 126.569 121.24 126.865C121.467 127.161 121.765 127.309 122.135 127.309C122.635 127.309 123.193 127.001 123.808 126.386ZM120.784 128.279C120.046 128.279 119.417 128.05 118.897 127.592C118.378 127.134 118.118 126.582 118.118 125.935C118.118 125.289 118.376 124.752 118.892 124.326C119.407 123.898 120.484 123.469 122.123 123.038C122.916 122.831 123.485 122.661 123.832 122.531C123.832 121.707 123.654 121.111 123.301 120.741C122.946 120.372 122.385 120.188 121.616 120.188C120.407 120.188 119.515 120.684 118.938 121.676H118.591C118.83 120.714 119.297 119.97 119.994 119.443C120.69 118.916 121.554 118.652 122.585 118.652C123.778 118.652 124.73 118.945 125.442 119.53C126.153 120.114 126.509 120.934 126.509 121.988V126.19C126.509 126.982 126.69 127.379 127.052 127.379C127.429 127.379 127.664 127.101 127.756 126.547H128.137C128.091 127.101 127.879 127.528 127.502 127.828C127.125 128.129 126.613 128.279 125.967 128.279C125.42 128.279 124.98 128.181 124.645 127.985C124.31 127.788 124.031 127.467 123.808 127.02L123.601 127.217C122.8 127.925 121.862 128.279 120.784 128.279Z" stroke="#757575" stroke-width="0.333333" stroke-miterlimit="10"></path><path d="M129.465 128.279V124.839H129.868C130.758 126.709 131.835 127.644 133.099 127.644C133.53 127.644 133.902 127.517 134.214 127.263C134.526 127.008 134.682 126.704 134.682 126.349C134.682 125.964 134.539 125.631 134.255 125.35C133.97 125.069 133.354 124.743 132.408 124.373C131.2 123.903 130.404 123.447 130.019 123.004C129.634 122.561 129.441 122.019 129.441 121.38C129.441 120.609 129.732 119.963 130.313 119.439C130.894 118.914 131.642 118.652 132.558 118.652C132.897 118.652 133.485 118.718 134.324 118.848C134.655 118.895 134.855 118.918 134.924 118.918C135.063 118.918 135.243 118.829 135.467 118.652H135.871V121.446H135.467C135.197 120.769 134.82 120.24 134.335 119.859C133.851 119.478 133.312 119.287 132.72 119.287C132.296 119.287 131.942 119.382 131.658 119.57C131.373 119.759 131.23 119.996 131.23 120.281C131.23 120.567 131.35 120.815 131.589 121.027C131.827 121.239 132.362 121.503 133.193 121.818C134.478 122.312 135.336 122.811 135.767 123.319C136.198 123.826 136.413 124.453 136.413 125.199C136.413 126.06 136.084 126.789 135.426 127.385C134.768 127.981 134.024 128.279 133.193 128.279C132.7 128.279 132.212 128.229 131.727 128.129C131.234 128.021 130.888 127.967 130.688 127.967C130.334 127.967 130.061 128.071 129.868 128.279H129.465Z" fill="black"></path><path d="M129.465 128.279V124.839H129.868C130.758 126.709 131.835 127.644 133.099 127.644C133.53 127.644 133.902 127.517 134.214 127.263C134.526 127.008 134.682 126.704 134.682 126.349C134.682 125.964 134.539 125.631 134.255 125.35C133.97 125.069 133.354 124.743 132.408 124.373C131.2 123.903 130.404 123.447 130.019 123.004C129.634 122.561 129.441 122.019 129.441 121.38C129.441 120.609 129.732 119.963 130.313 119.439C130.894 118.914 131.642 118.652 132.558 118.652C132.897 118.652 133.485 118.718 134.324 118.848C134.655 118.895 134.855 118.918 134.924 118.918C135.063 118.918 135.243 118.829 135.467 118.652H135.871V121.446H135.467C135.197 120.769 134.82 120.24 134.335 119.859C133.851 119.478 133.312 119.287 132.72 119.287C132.296 119.287 131.942 119.382 131.658 119.57C131.373 119.759 131.23 119.996 131.23 120.281C131.23 120.567 131.35 120.815 131.589 121.027C131.827 121.239 132.362 121.503 133.193 121.818C134.478 122.312 135.336 122.811 135.767 123.319C136.198 123.826 136.413 124.453 136.413 125.199C136.413 126.06 136.084 126.789 135.426 127.385C134.768 127.981 134.024 128.279 133.193 128.279C132.7 128.279 132.212 128.229 131.727 128.129C131.234 128.021 130.888 127.967 130.688 127.967C130.334 127.967 130.061 128.071 129.868 128.279H129.465Z" stroke="#757575" stroke-width="0.333333" stroke-miterlimit="10"></path><path d="M147.402 118.652L147.598 121.895H147.194C146.347 120.095 145.255 119.195 143.916 119.195C143.008 119.195 142.292 119.547 141.769 120.251C141.246 120.955 140.984 121.919 140.984 123.142C140.984 124.396 141.275 125.379 141.856 126.091C142.436 126.803 143.239 127.159 144.262 127.159C144.932 127.159 145.491 127.038 145.942 126.795C146.392 126.553 146.875 126.116 147.39 125.485H147.864C146.979 127.347 145.378 128.279 143.062 128.279C141.561 128.279 140.348 127.852 139.42 126.998C138.493 126.143 138.029 125.024 138.029 123.638C138.029 122.223 138.54 121.038 139.561 120.084C140.582 119.129 141.854 118.652 143.38 118.652C143.881 118.652 144.467 118.702 145.137 118.802C145.715 118.894 146.108 118.941 146.316 118.941C146.555 118.941 146.79 118.844 147.021 118.652H147.402Z" fill="black"></path><path d="M147.402 118.652L147.598 121.895H147.194C146.347 120.095 145.255 119.195 143.916 119.195C143.008 119.195 142.292 119.547 141.769 120.251C141.246 120.955 140.984 121.919 140.984 123.142C140.984 124.396 141.275 125.379 141.856 126.091C142.436 126.803 143.239 127.159 144.262 127.159C144.932 127.159 145.491 127.038 145.942 126.795C146.392 126.553 146.875 126.116 147.39 125.485H147.864C146.979 127.347 145.378 128.279 143.062 128.279C141.561 128.279 140.348 127.852 139.42 126.998C138.493 126.143 138.029 125.024 138.029 123.638C138.029 122.223 138.54 121.038 139.561 120.084C140.582 119.129 141.854 118.652 143.38 118.652C143.881 118.652 144.467 118.702 145.137 118.802C145.715 118.894 146.108 118.941 146.316 118.941C146.555 118.941 146.79 118.844 147.021 118.652H147.402Z" stroke="#757575" stroke-width="0.333333" stroke-miterlimit="10"></path><path d="M152.019 122.127H155.909C155.855 121.288 155.643 120.605 155.272 120.078C154.902 119.551 154.446 119.287 153.906 119.287C153.366 119.287 152.926 119.545 152.586 120.061C152.247 120.576 152.058 121.265 152.019 122.127ZM158.379 125.174H158.783C158.383 126.136 157.756 126.894 156.902 127.448C156.048 128.002 155.086 128.279 154.016 128.279C152.623 128.279 151.463 127.827 150.536 126.923C149.608 126.019 149.145 124.885 149.145 123.523C149.145 122.138 149.62 120.98 150.57 120.049C151.521 119.118 152.7 118.653 154.108 118.653C155.378 118.653 156.434 119.016 157.277 119.743C158.119 120.47 158.622 121.446 158.783 122.669H152.031C152.023 122.792 152.019 122.915 152.019 123.038C152.019 124.247 152.323 125.228 152.93 125.982C153.536 126.736 154.289 127.113 155.188 127.113C156.47 127.113 157.534 126.467 158.379 125.174Z" fill="black"></path><path d="M152.019 122.127H155.909C155.855 121.288 155.643 120.605 155.272 120.078C154.902 119.551 154.446 119.287 153.906 119.287C153.366 119.287 152.926 119.545 152.586 120.061C152.247 120.576 152.058 121.265 152.019 122.127ZM158.379 125.174H158.783C158.383 126.136 157.756 126.894 156.902 127.448C156.048 128.002 155.086 128.279 154.016 128.279C152.623 128.279 151.463 127.827 150.536 126.923C149.608 126.019 149.145 124.885 149.145 123.523C149.145 122.138 149.62 120.98 150.57 120.049C151.521 119.118 152.7 118.653 154.108 118.653C155.378 118.653 156.434 119.016 157.277 119.743C158.119 120.47 158.622 121.446 158.783 122.669H152.031C152.023 122.792 152.019 122.915 152.019 123.038C152.019 124.247 152.323 125.228 152.93 125.982C153.536 126.736 154.289 127.113 155.188 127.113C156.47 127.113 157.534 126.467 158.379 125.174Z" stroke="#757575" stroke-width="0.333333" stroke-miterlimit="10"></path><path d="M163.11 122.127H167C166.946 121.288 166.734 120.605 166.364 120.078C165.993 119.551 165.538 119.287 164.998 119.287C164.457 119.287 164.017 119.545 163.677 120.061C163.338 120.576 163.149 121.265 163.11 122.127ZM169.471 125.174H169.874C169.474 126.136 168.847 126.894 167.993 127.448C167.139 128.002 166.177 128.279 165.107 128.279C163.714 128.279 162.555 127.827 161.627 126.923C160.7 126.019 160.236 124.885 160.236 123.523C160.236 122.138 160.711 120.98 161.662 120.049C162.612 119.118 163.792 118.653 165.2 118.653C166.469 118.653 167.525 119.016 168.368 119.743C169.211 120.47 169.713 121.446 169.874 122.669H163.122C163.114 122.792 163.11 122.915 163.11 123.038C163.11 124.247 163.414 125.228 164.021 125.982C164.627 126.736 165.38 127.113 166.279 127.113C167.562 127.113 168.625 126.467 169.471 125.174Z" fill="black"></path><path d="M163.11 122.127H167C166.946 121.288 166.734 120.605 166.364 120.078C165.993 119.551 165.538 119.287 164.998 119.287C164.457 119.287 164.017 119.545 163.677 120.061C163.338 120.576 163.149 121.265 163.11 122.127ZM169.471 125.174H169.874C169.474 126.136 168.847 126.894 167.993 127.448C167.139 128.002 166.177 128.279 165.107 128.279C163.714 128.279 162.555 127.827 161.627 126.923C160.7 126.019 160.236 124.885 160.236 123.523C160.236 122.138 160.711 120.98 161.662 120.049C162.612 119.118 163.792 118.653 165.2 118.653C166.469 118.653 167.525 119.016 168.368 119.743C169.211 120.47 169.713 121.446 169.874 122.669H163.122C163.114 122.792 163.11 122.915 163.11 123.038C163.11 124.247 163.414 125.228 164.021 125.982C164.627 126.736 165.38 127.113 166.279 127.113C167.562 127.113 168.625 126.467 169.471 125.174Z" stroke="#757575" stroke-width="0.333333" stroke-miterlimit="10"></path><path d="M175.185 118.652V120.834H175.231C176.085 119.38 177.212 118.652 178.613 118.652C179.49 118.652 180.229 118.947 180.829 119.535C181.429 120.124 181.729 120.911 181.729 121.896V125.797C181.729 126.359 181.829 126.754 182.029 126.98C182.229 127.207 182.595 127.386 183.126 127.517V127.921H177.643V127.517C178.166 127.402 178.532 127.227 178.739 126.992C178.948 126.757 179.051 126.397 179.051 125.913V122.219C179.051 121.55 178.907 121.028 178.619 120.655C178.33 120.282 177.924 120.095 177.401 120.095C176.485 120.095 175.746 120.614 175.185 121.653V125.82C175.185 126.351 175.277 126.728 175.462 126.951C175.646 127.175 175.993 127.363 176.5 127.517V127.921H171.11V127.517C171.633 127.386 171.997 127.209 172.201 126.986C172.405 126.763 172.507 126.428 172.507 125.982V120.995C172.507 120.488 172.389 120.118 172.155 119.888C171.92 119.657 171.502 119.499 170.902 119.414V119.01L174.781 118.652H175.185Z" fill="black"></path><path d="M175.185 118.652V120.834H175.231C176.085 119.38 177.212 118.652 178.613 118.652C179.49 118.652 180.229 118.947 180.829 119.535C181.429 120.124 181.729 120.911 181.729 121.896V125.797C181.729 126.359 181.829 126.754 182.029 126.98C182.229 127.207 182.595 127.386 183.126 127.517V127.921H177.643V127.517C178.166 127.402 178.532 127.227 178.739 126.992C178.948 126.757 179.051 126.397 179.051 125.913V122.219C179.051 121.55 178.907 121.028 178.619 120.655C178.33 120.282 177.924 120.095 177.401 120.095C176.485 120.095 175.746 120.614 175.185 121.653V125.82C175.185 126.351 175.277 126.728 175.462 126.951C175.646 127.175 175.993 127.363 176.5 127.517V127.921H171.11V127.517C171.633 127.386 171.997 127.209 172.201 126.986C172.405 126.763 172.507 126.428 172.507 125.982V120.995C172.507 120.488 172.389 120.118 172.155 119.888C171.92 119.657 171.502 119.499 170.902 119.414V119.01L174.781 118.652H175.185Z" stroke="#757575" stroke-width="0.333333" stroke-miterlimit="10"></path><path d="M192.487 125.347V120.73C191.809 119.768 190.975 119.287 189.982 119.287C189.228 119.287 188.63 119.635 188.187 120.332C187.745 121.028 187.523 121.973 187.523 123.166C187.523 124.481 187.839 125.512 188.47 126.259C189.101 127.005 189.901 127.378 190.871 127.378C191.471 127.378 191.89 127.228 192.129 126.928C192.367 126.628 192.487 126.101 192.487 125.347ZM194.749 113.124H195.153V125.486C195.153 126.224 195.259 126.715 195.47 126.957C195.682 127.2 196.169 127.386 196.93 127.517V127.921H190.259C188.435 127.921 187.031 127.513 186.046 126.698C185.061 125.882 184.568 124.762 184.568 123.338C184.568 121.954 185.005 120.826 185.879 119.957C186.752 119.087 187.889 118.652 189.289 118.652C190.513 118.652 191.579 118.953 192.487 119.553V115.467C192.487 114.859 192.323 114.432 191.996 114.185C191.669 113.939 191.098 113.804 190.282 113.782V113.377L194.749 113.124Z" fill="black"></path><path d="M192.487 125.347V120.73C191.809 119.768 190.975 119.287 189.982 119.287C189.228 119.287 188.63 119.635 188.187 120.332C187.745 121.028 187.523 121.973 187.523 123.166C187.523 124.481 187.839 125.512 188.47 126.259C189.101 127.005 189.901 127.378 190.871 127.378C191.471 127.378 191.89 127.228 192.129 126.928C192.367 126.628 192.487 126.101 192.487 125.347ZM194.749 113.124H195.153V125.486C195.153 126.224 195.259 126.715 195.47 126.957C195.682 127.2 196.169 127.386 196.93 127.517V127.921H190.259C188.435 127.921 187.031 127.513 186.046 126.698C185.061 125.882 184.568 124.762 184.568 123.338C184.568 121.954 185.005 120.826 185.879 119.957C186.752 119.087 187.889 118.652 189.289 118.652C190.513 118.652 191.579 118.953 192.487 119.553V115.467C192.487 114.859 192.323 114.432 191.996 114.185C191.669 113.939 191.098 113.804 190.282 113.782V113.377L194.749 113.124Z" stroke="#757575" stroke-width="0.333333" stroke-miterlimit="10"></path><path d="M216.495 114.093V117.971H216.068C215.66 116.917 215.027 116.078 214.169 115.455C213.311 114.832 212.362 114.52 211.324 114.52C209.923 114.52 208.84 115.117 208.074 116.309C207.309 117.502 206.926 119.183 206.926 121.353C206.926 123.354 207.307 124.878 208.068 125.924C208.83 126.971 209.931 127.494 211.37 127.494C212.755 127.494 213.448 127.005 213.448 126.028V123.973C213.448 123.027 212.974 122.461 212.028 122.276V121.873H217.845V122.276C217.337 122.415 216.985 122.637 216.789 122.94C216.593 123.244 216.495 123.716 216.495 124.354V127.286C215.109 127.948 213.32 128.279 211.127 128.279C209.665 128.279 208.369 127.975 207.238 127.367C206.106 126.759 205.22 125.895 204.577 124.775C203.934 123.656 203.613 122.434 203.613 121.111C203.613 118.995 204.325 117.237 205.749 115.836C207.172 114.435 208.965 113.735 211.127 113.735C211.982 113.735 212.912 113.916 213.921 114.278C214.451 114.47 214.836 114.566 215.075 114.566C215.429 114.566 215.76 114.409 216.068 114.093H216.495Z" fill="black"></path><path d="M216.495 114.093V117.971H216.068C215.66 116.917 215.027 116.078 214.169 115.455C213.311 114.832 212.362 114.52 211.324 114.52C209.923 114.52 208.84 115.117 208.074 116.309C207.309 117.502 206.926 119.183 206.926 121.353C206.926 123.354 207.307 124.878 208.068 125.924C208.83 126.971 209.931 127.494 211.37 127.494C212.755 127.494 213.448 127.005 213.448 126.028V123.973C213.448 123.027 212.974 122.461 212.028 122.276V121.873H217.845V122.276C217.337 122.415 216.985 122.637 216.789 122.94C216.593 123.244 216.495 123.716 216.495 124.354V127.286C215.109 127.948 213.32 128.279 211.127 128.279C209.665 128.279 208.369 127.975 207.238 127.367C206.106 126.759 205.22 125.895 204.577 124.775C203.934 123.656 203.613 122.434 203.613 121.111C203.613 118.995 204.325 117.237 205.749 115.836C207.172 114.435 208.965 113.735 211.127 113.735C211.982 113.735 212.912 113.916 213.921 114.278C214.451 114.47 214.836 114.566 215.075 114.566C215.429 114.566 215.76 114.409 216.068 114.093H216.495Z" stroke="#757575" stroke-width="0.333333" stroke-miterlimit="10"></path><path d="M223.097 118.652V121.492H223.144C223.99 119.599 224.975 118.652 226.098 118.652C226.714 118.652 227.241 118.905 227.68 119.408L227.091 122.104C226.283 121.334 225.614 120.949 225.083 120.949C224.69 120.949 224.348 121.042 224.056 121.226C223.763 121.411 223.444 121.742 223.097 122.219V125.867C223.097 126.436 223.198 126.824 223.398 127.032C223.598 127.24 224.002 127.402 224.61 127.517V127.921H218.931V127.517C219.515 127.378 219.91 127.198 220.114 126.975C220.318 126.752 220.42 126.382 220.42 125.867V121.157C220.42 120.596 220.291 120.176 220.033 119.899C219.775 119.622 219.362 119.46 218.792 119.414V119.01L222.694 118.652H223.097Z" fill="black"></path><path d="M223.097 118.652V121.492H223.144C223.99 119.599 224.975 118.652 226.098 118.652C226.714 118.652 227.241 118.905 227.68 119.408L227.091 122.104C226.283 121.334 225.614 120.949 225.083 120.949C224.69 120.949 224.348 121.042 224.056 121.226C223.763 121.411 223.444 121.742 223.097 122.219V125.867C223.097 126.436 223.198 126.824 223.398 127.032C223.598 127.24 224.002 127.402 224.61 127.517V127.921H218.931V127.517C219.515 127.378 219.91 127.198 220.114 126.975C220.318 126.752 220.42 126.382 220.42 125.867V121.157C220.42 120.596 220.291 120.176 220.033 119.899C219.775 119.622 219.362 119.46 218.792 119.414V119.01L222.694 118.652H223.097Z" stroke="#757575" stroke-width="0.333333" stroke-miterlimit="10"></path><path d="M236.984 123.46C236.984 122.135 236.759 121.108 236.308 120.38C235.858 119.651 235.218 119.287 234.386 119.287C233.532 119.287 232.882 119.661 232.436 120.409C231.989 121.156 231.766 122.227 231.766 123.622C231.766 124.847 232.003 125.823 232.476 126.552C232.95 127.28 233.586 127.644 234.386 127.644C235.202 127.644 235.839 127.277 236.297 126.54C236.755 125.805 236.984 124.778 236.984 123.46ZM239.938 123.454C239.938 124.824 239.429 125.97 238.409 126.894C237.389 127.817 236.049 128.279 234.386 128.279C232.724 128.279 231.38 127.819 230.352 126.899C229.325 125.98 228.812 124.831 228.812 123.454C228.812 122.6 229.048 121.788 229.521 121.019C229.995 120.249 230.645 119.662 231.472 119.259C232.299 118.855 233.271 118.653 234.386 118.653C236.056 118.653 237.399 119.114 238.415 120.037C239.431 120.961 239.938 122.1 239.938 123.454Z" fill="black"></path><path d="M236.984 123.46C236.984 122.135 236.759 121.108 236.308 120.38C235.858 119.651 235.218 119.287 234.386 119.287C233.532 119.287 232.882 119.661 232.436 120.409C231.989 121.156 231.766 122.227 231.766 123.622C231.766 124.847 232.003 125.823 232.476 126.552C232.95 127.28 233.586 127.644 234.386 127.644C235.202 127.644 235.839 127.277 236.297 126.54C236.755 125.805 236.984 124.778 236.984 123.46ZM239.938 123.454C239.938 124.824 239.429 125.97 238.409 126.894C237.389 127.817 236.049 128.279 234.386 128.279C232.724 128.279 231.38 127.819 230.352 126.899C229.325 125.98 228.812 124.831 228.812 123.454C228.812 122.6 229.048 121.788 229.521 121.019C229.995 120.249 230.645 119.662 231.472 119.259C232.299 118.855 233.271 118.653 234.386 118.653C236.056 118.653 237.399 119.114 238.415 120.037C239.431 120.961 239.938 122.1 239.938 123.454Z" stroke="#757575" stroke-width="0.333333" stroke-miterlimit="10"></path><path d="M249.299 126.097H249.252C248.298 127.552 247.117 128.279 245.709 128.279C244.785 128.279 244.062 128.038 243.539 127.557C243.016 127.076 242.754 126.409 242.754 125.555V120.95C242.754 120.457 242.654 120.101 242.454 119.882C242.254 119.662 241.888 119.506 241.357 119.414V119.01L245.028 118.653H245.42V125.232C245.42 125.724 245.566 126.107 245.859 126.38C246.151 126.653 246.559 126.79 247.082 126.79C247.536 126.79 247.923 126.673 248.242 126.438C248.562 126.203 248.914 125.782 249.299 125.174V120.73C249.299 120.015 248.833 119.576 247.902 119.414V119.01L251.572 118.653H251.976V125.751C251.976 126.344 252.065 126.749 252.242 126.969C252.419 127.188 252.803 127.371 253.396 127.517V127.921L249.299 128.279V126.097Z" fill="black"></path><path d="M249.299 126.097H249.252C248.298 127.552 247.117 128.279 245.709 128.279C244.785 128.279 244.062 128.038 243.539 127.557C243.016 127.076 242.754 126.409 242.754 125.555V120.95C242.754 120.457 242.654 120.101 242.454 119.882C242.254 119.662 241.888 119.506 241.357 119.414V119.01L245.028 118.653H245.42V125.232C245.42 125.724 245.566 126.107 245.859 126.38C246.151 126.653 246.559 126.79 247.082 126.79C247.536 126.79 247.923 126.673 248.242 126.438C248.562 126.203 248.914 125.782 249.299 125.174V120.73C249.299 120.015 248.833 119.576 247.902 119.414V119.01L251.572 118.653H251.976V125.751C251.976 126.344 252.065 126.749 252.242 126.969C252.419 127.188 252.803 127.371 253.396 127.517V127.921L249.299 128.279V126.097Z" stroke="#757575" stroke-width="0.333333" stroke-miterlimit="10"></path><path d="M258.925 121.019V126.34C259.618 127.032 260.349 127.379 261.119 127.379C261.911 127.379 262.552 127.036 263.04 126.351C263.529 125.667 263.774 124.762 263.774 123.639C263.774 122.469 263.54 121.544 263.075 120.863C262.609 120.182 261.981 119.841 261.188 119.841C260.326 119.841 259.572 120.234 258.925 121.019ZM258.925 118.652V120.384C259.926 119.23 261.123 118.652 262.515 118.652C263.724 118.652 264.728 119.101 265.528 119.997C266.328 120.894 266.729 122.015 266.729 123.362C266.729 124.793 266.288 125.97 265.406 126.894C264.525 127.817 263.404 128.279 262.042 128.279C261.465 128.279 260.963 128.188 260.535 128.008C260.108 127.827 259.572 127.482 258.925 126.975V132.607C258.925 133.239 259.033 133.675 259.248 133.917C259.464 134.16 259.906 134.35 260.576 134.489V134.87H254.643V134.466C255.289 134.389 255.718 134.208 255.93 133.923C256.142 133.638 256.247 133.073 256.247 132.226V121.33C256.247 120.646 256.142 120.188 255.93 119.957C255.718 119.726 255.289 119.545 254.643 119.414V119.01L258.521 118.652H258.925Z" fill="black"></path><path d="M258.925 121.019V126.34C259.618 127.032 260.349 127.379 261.119 127.379C261.911 127.379 262.552 127.036 263.04 126.351C263.529 125.667 263.774 124.762 263.774 123.639C263.774 122.469 263.54 121.544 263.075 120.863C262.609 120.182 261.981 119.841 261.188 119.841C260.326 119.841 259.572 120.234 258.925 121.019ZM258.925 118.652V120.384C259.926 119.23 261.123 118.652 262.515 118.652C263.724 118.652 264.728 119.101 265.528 119.997C266.328 120.894 266.729 122.015 266.729 123.362C266.729 124.793 266.288 125.97 265.406 126.894C264.525 127.817 263.404 128.279 262.042 128.279C261.465 128.279 260.963 128.188 260.535 128.008C260.108 127.827 259.572 127.482 258.925 126.975V132.607C258.925 133.239 259.033 133.675 259.248 133.917C259.464 134.16 259.906 134.35 260.576 134.489V134.87H254.643V134.466C255.289 134.389 255.718 134.208 255.93 133.923C256.142 133.638 256.247 133.073 256.247 132.226V121.33C256.247 120.646 256.142 120.188 255.93 119.957C255.718 119.726 255.289 119.545 254.643 119.414V119.01L258.521 118.652H258.925Z" stroke="#757575" stroke-width="0.333333" stroke-miterlimit="10"></path></g></g><defs><linearGradient id="paint0_linear_52_1868" x1="5.94199" y1="56.333" x2="200.906" y2="56.333" gradientUnits="userSpaceOnUse"><stop stop-color="#006837"></stop><stop offset="1.4e-07" stop-color="#006837"></stop><stop offset="0.0408411" stop-color="#006837"></stop><stop offset="1" stop-color="white"></stop></linearGradient><linearGradient id="paint1_linear_52_1868" x1="36.6061" y1="55.9545" x2="61.4026" y2="55.9545" gradientUnits="userSpaceOnUse"><stop stop-color="#006837"></stop><stop offset="1.4e-07" stop-color="#006837"></stop><stop offset="0.0408411" stop-color="#006837"></stop><stop offset="1" stop-color="white"></stop></linearGradient><linearGradient id="paint2_linear_52_1868" x1="69.3522" y1="90.404" x2="91.4987" y2="90.404" gradientUnits="userSpaceOnUse"><stop stop-color="#006837"></stop><stop offset="1.4e-07" stop-color="#006837"></stop><stop offset="0.0408411" stop-color="#006837"></stop><stop offset="1" stop-color="white"></stop></linearGradient><linearGradient id="paint3_linear_52_1868" x1="5.94199" y1="123.996" x2="358.424" y2="123.996" gradientUnits="userSpaceOnUse"><stop stop-color="#006837"></stop><stop offset="1.4e-07" stop-color="#006837"></stop><stop offset="0.0408411" stop-color="#006837"></stop><stop offset="1" stop-color="#E6E6E6"></stop></linearGradient><clipPath id="clip0_52_1868"><rect width="365" height="144.122" fill="white" transform="matrix(1 0 0 -1 0 144.123)"></rect></clipPath></defs></svg>