<?xml version="1.0" encoding="UTF-8"?>
<svg xmlns="http://www.w3.org/2000/svg" width="288" height="150" viewBox="0 0 288 150" fill="none">
  <path d="M213.194 107.265V78.7785C213.194 73.1624 217.731 68.6289 223.351 68.6289C228.971 68.6289 233.508 73.1624 233.508 78.7785V107.265C233.508 112.881 228.971 117.415 223.351 117.415C217.731 117.415 213.194 112.813 213.194 107.265Z" fill="#1C5A2D"></path>
  <path d="M253.483 123.842H52.9183C48.7201 123.842 45.3345 120.459 45.3345 116.263C45.3345 112.068 48.7201 108.685 52.9183 108.685H253.415C257.613 108.685 260.999 112.068 260.999 116.263C261.066 120.459 257.681 123.842 253.483 123.842Z" fill="#1C5A2D"></path>
  <path d="M233.709 6.10654C233.709 6.10654 226.125 4.82093 230.188 11.1813L251.653 41.4947H256.19L233.709 6.10654Z" fill="#1C5A2D"></path>
  <path d="M220.506 6.58154C220.506 6.58154 164.305 19.9114 155.705 47.3152H192.067L220.506 6.58154Z" fill="#ED2024"></path>
  <path d="M222.471 30.1943H213.194V56.7862H222.471V30.1943Z" fill="#1C5A2D"></path>
  <path d="M236.892 30.1943H227.616V56.7862H236.892V30.1943Z" fill="#1C5A2D"></path>
  <path d="M142.097 89.2672V101.041C142.097 101.244 142.165 101.447 142.233 101.582C142.368 101.717 142.503 101.785 142.774 101.853V102.191H137.967V101.853C138.238 101.785 138.441 101.65 138.508 101.582C138.644 101.447 138.644 101.311 138.644 101.041V89.2672H133.904C133.701 89.2672 133.498 89.3349 133.362 89.4026C133.227 89.5379 133.159 89.6733 133.091 89.9439H132.753V85.9517H133.091C133.159 86.2223 133.295 86.4253 133.362 86.493C133.498 86.6283 133.633 86.6283 133.904 86.6283H146.905C147.108 86.6283 147.311 86.5606 147.447 86.493C147.582 86.4253 147.65 86.2223 147.717 85.9517H148.056V89.9439H147.717C147.65 89.6733 147.514 89.4702 147.447 89.4026C147.311 89.2673 147.176 89.2672 146.905 89.2672H142.097Z" fill="#1C5A2D"></path>
  <path d="M155.368 89.1987C157.399 89.1987 159.092 89.74 160.446 90.755C162.071 91.9729 162.884 93.7322 162.884 95.9651C162.884 98.0627 162.071 99.6866 160.446 100.972C159.092 101.987 157.399 102.529 155.436 102.529C153.472 102.529 151.711 101.987 150.425 100.972C148.8 99.7542 147.987 98.0626 147.987 95.8974C147.987 93.7321 148.8 92.0405 150.425 90.8226C151.711 89.74 153.404 89.2664 155.368 89.1987ZM155.436 91.6346C154.149 91.6346 153.066 92.0406 152.253 92.9203C151.508 93.7322 151.102 94.6794 151.102 95.8974C151.102 97.0477 151.508 98.0627 152.253 98.8746C153.066 99.7542 154.149 100.16 155.503 100.16C156.79 100.16 157.873 99.7542 158.686 98.8746C159.431 98.0627 159.837 97.1154 159.837 95.9651C159.837 94.7472 159.431 93.7322 158.686 92.9203C157.806 92.0406 156.722 91.6346 155.436 91.6346Z" fill="#1C5A2D"></path>
  <path d="M174.262 93.3938L171.486 100.296C171.35 100.634 171.283 100.904 171.283 101.107C171.283 101.513 171.553 101.784 172.027 101.852V102.19H167.288V101.852C167.762 101.716 167.965 101.513 167.965 101.107C167.965 100.904 167.897 100.634 167.762 100.296L164.376 91.6345C164.105 90.9579 163.902 90.5519 163.699 90.2813C163.496 90.0106 163.225 89.8752 162.886 89.8076V89.4692H167.762V89.8076C167.288 89.9429 167.084 90.2136 167.084 90.5519C167.084 90.6872 167.152 90.9578 167.288 91.3638L169.657 97.3859L172.027 91.4315C172.163 91.0932 172.231 90.8225 172.231 90.6195C172.231 90.2135 171.96 90.0105 171.486 89.8752V89.537H177.174V89.8752C176.7 90.0105 176.429 90.2813 176.429 90.6872C176.429 90.8226 176.496 91.0932 176.632 91.4315L178.934 97.4536L181.236 91.3638C181.304 91.0932 181.372 90.8902 181.372 90.6872C181.372 90.4843 181.304 90.2812 181.236 90.2135C181.101 90.0782 180.965 90.0106 180.627 89.9429V89.6046H185.57V89.9429C185.231 90.0783 184.893 90.2813 184.757 90.4843C184.554 90.6873 184.351 91.0931 184.08 91.7698L180.695 100.431C180.559 100.769 180.491 101.04 180.491 101.243C180.491 101.649 180.762 101.919 181.236 102.055V102.393H176.293V102.055C176.767 101.919 177.038 101.649 177.038 101.243C177.038 101.107 176.97 100.905 176.767 100.431L174.262 93.3938Z" fill="#1C5A2D"></path>
  <path d="M190.037 93.7997V101.04C190.037 101.243 190.105 101.446 190.173 101.581C190.308 101.716 190.443 101.784 190.714 101.919V102.258H186.516V101.919C186.787 101.852 186.99 101.784 187.058 101.649C187.193 101.513 187.193 101.31 187.193 101.107V90.6872C187.193 90.4843 187.126 90.2812 187.058 90.1459C186.922 90.0106 186.787 89.9429 186.516 89.8076V89.4692H191.459V89.8076C191.121 89.8752 190.985 90.0106 190.985 90.2813C190.985 90.4843 191.121 90.6872 191.324 90.8902L198.163 97.6566V90.6195C198.163 90.4165 198.095 90.2135 198.027 90.0782C197.892 89.9429 197.756 89.8752 197.486 89.8076V89.4692H201.684V89.8076C201.413 89.8752 201.21 90.0105 201.142 90.0782C201.007 90.2135 201.007 90.4165 201.007 90.6195V101.04C201.007 101.243 201.074 101.446 201.142 101.581C201.277 101.716 201.413 101.784 201.684 101.919V102.258H197.147V101.919C197.486 101.852 197.621 101.716 197.621 101.513C197.621 101.378 197.553 101.31 197.486 101.175C197.418 101.04 197.215 100.837 196.876 100.498L190.037 93.7997Z" fill="#1C5A2D"></path>
  <path d="M50.1426 142.72V134.6C50.1426 134.397 50.0749 134.262 50.0072 134.194C49.9395 134.126 49.8041 133.991 49.5332 133.924V133.653H55.3565C56.5753 133.653 57.5233 133.788 58.2004 134.127C59.1484 134.533 59.8932 135.277 60.2995 136.224C60.5703 136.901 60.7734 137.713 60.7734 138.592C60.7734 140.284 60.2995 141.57 59.2838 142.449C58.8098 142.855 58.2681 143.126 57.6587 143.261C57.0493 143.464 56.3045 143.532 55.3565 143.532H49.5332V143.261C49.7363 143.193 49.8717 143.126 49.9395 143.058C50.0749 143.058 50.1426 142.923 50.1426 142.72ZM52.5126 141.84H55.0179C56.169 141.84 57.0493 141.57 57.5233 141.028C58.065 140.487 58.3358 139.675 58.3358 138.66C58.3358 137.645 58.065 136.833 57.5233 136.292C57.2524 136.021 56.9139 135.818 56.5076 135.683C56.1013 135.547 55.6273 135.48 55.0179 135.48H52.5126V141.84Z" fill="#1C5A2D"></path>
  <path d="M65.2421 139.405V141.841H71.5393C71.7425 141.841 71.8779 141.773 71.9456 141.705C72.0133 141.638 72.1487 141.502 72.1487 141.232H72.4196V144.141H72.1487C72.081 143.938 72.0133 143.803 71.9456 143.735C71.8779 143.668 71.6747 143.6 71.5393 143.6H62.3304V143.329C62.5336 143.262 62.669 143.194 62.7367 143.126C62.8044 143.059 62.8721 142.856 62.8721 142.72V134.601C62.8721 134.398 62.8044 134.262 62.7367 134.195C62.669 134.127 62.5335 133.992 62.2627 133.924V133.653H71.2007C71.4039 133.653 71.5393 133.586 71.607 133.518C71.6748 133.45 71.8102 133.315 71.8102 133.044H72.081V135.954H71.8102C71.7425 135.751 71.6748 135.616 71.607 135.48C71.5393 135.345 71.3362 135.345 71.2007 135.345H65.1743V137.51H68.8985C69.1017 137.51 69.2371 137.443 69.3048 137.375C69.3725 137.307 69.5079 137.172 69.5757 136.901H69.8465V139.743H69.5757C69.5079 139.54 69.4402 139.405 69.3725 139.337C69.3048 139.27 69.1017 139.202 68.9663 139.202H65.2421V139.405Z" fill="#1C5A2D"></path>
  <path d="M79.2575 140.489L81.6952 135.278C81.8306 135.008 81.8983 134.737 81.8983 134.602C81.8983 134.331 81.6951 134.128 81.3566 133.993V133.722H85.2162V133.993C85.013 134.06 84.81 134.196 84.6745 134.263C84.5391 134.399 84.4036 134.602 84.2682 134.94L80.8149 142.248C80.6795 142.518 80.6117 142.721 80.6117 142.857C80.6117 143.127 80.8149 143.33 81.2212 143.398V143.669H77.3616V143.398C77.7678 143.33 77.9033 143.127 77.9033 142.857C77.9033 142.721 77.8355 142.518 77.7001 142.248L74.2468 134.94C74.1114 134.602 73.9759 134.331 73.8405 134.263C73.7051 134.128 73.5697 134.06 73.2988 133.993V133.722H77.2938V133.993C76.8876 134.128 76.7521 134.331 76.7521 134.602C76.7521 134.737 76.8198 134.94 76.9553 135.278L79.2575 140.489Z" fill="#1C5A2D"></path>
  <path d="M89.077 139.405V141.841H95.3742C95.5774 141.841 95.7128 141.773 95.7805 141.705C95.8483 141.638 95.9837 141.502 95.9837 141.232H96.2545V144.141H95.9837C95.916 143.938 95.8483 143.803 95.7805 143.735C95.7128 143.668 95.5097 143.6 95.3742 143.6H86.1653V143.329C86.3685 143.262 86.5039 143.194 86.5716 143.126C86.6394 143.059 86.707 142.856 86.707 142.72V134.601C86.707 134.398 86.6394 134.262 86.5716 134.195C86.5039 134.127 86.3685 133.992 86.0977 133.924V133.653H95.0357C95.2388 133.653 95.3742 133.586 95.442 133.518C95.5097 133.45 95.6451 133.315 95.6451 133.044H95.9159V135.954H95.6451C95.5774 135.751 95.5097 135.616 95.442 135.48C95.3742 135.345 95.1711 135.345 95.0357 135.345H89.0093V137.51H92.7334C92.9366 137.51 93.072 137.443 93.1398 137.375C93.2075 137.307 93.3429 137.172 93.4106 136.901H93.6814V139.743H93.4106C93.3429 139.54 93.2751 139.405 93.2074 139.337C93.1397 139.27 92.9366 139.202 92.8012 139.202H89.077V139.405Z" fill="#1C5A2D"></path>
  <path d="M100.724 141.842H106.276C106.479 141.842 106.615 141.774 106.682 141.707C106.75 141.639 106.885 141.504 106.953 141.233H107.224V144.142H106.953C106.885 143.939 106.818 143.804 106.75 143.669C106.682 143.601 106.479 143.534 106.344 143.534H97.8797V143.263C98.0829 143.195 98.2183 143.127 98.286 143.06C98.3537 142.992 98.4215 142.789 98.4215 142.654V134.534C98.4215 134.331 98.3537 134.196 98.286 134.128C98.2183 134.061 98.0829 133.925 97.812 133.858V133.587H101.333V133.858C101.13 133.925 100.995 133.993 100.859 134.061C100.791 134.128 100.724 134.331 100.724 134.467V141.842Z" fill="#1C5A2D"></path>
  <path d="M113.726 133.518C115.283 133.518 116.638 133.924 117.653 134.735C118.94 135.683 119.549 137.036 119.549 138.795C119.549 140.419 118.94 141.705 117.653 142.652C116.638 143.464 115.283 143.87 113.726 143.87C112.169 143.87 110.814 143.464 109.799 142.652C108.512 141.705 107.903 140.352 107.903 138.66C107.903 136.968 108.512 135.615 109.799 134.668C110.882 133.924 112.169 133.518 113.726 133.518ZM113.726 135.412C112.71 135.412 111.898 135.75 111.221 136.427C110.611 137.036 110.34 137.78 110.34 138.728C110.34 139.675 110.611 140.419 111.221 141.028C111.898 141.705 112.71 142.043 113.726 142.043C114.742 142.043 115.554 141.705 116.231 141.028C116.841 140.419 117.112 139.675 117.112 138.795C117.112 137.848 116.841 137.036 116.231 136.427C115.622 135.75 114.742 135.412 113.726 135.412Z" fill="#1C5A2D"></path>
  <path d="M124.017 139.607V142.787C124.017 142.99 124.085 143.126 124.153 143.193C124.221 143.261 124.356 143.396 124.627 143.464V143.735H121.106V143.464C121.309 143.396 121.444 143.329 121.512 143.261C121.58 143.193 121.648 142.99 121.648 142.855V134.735C121.648 134.532 121.58 134.397 121.512 134.329C121.444 134.262 121.309 134.126 121.038 134.059V133.788H127.471C128.757 133.788 129.705 133.991 130.382 134.329C130.789 134.532 131.06 134.871 131.263 135.277C131.466 135.683 131.601 136.156 131.601 136.698C131.601 137.713 131.263 138.389 130.586 138.863C129.908 139.337 128.893 139.607 127.471 139.607H124.017ZM124.017 137.78H127.403C128.012 137.78 128.486 137.713 128.69 137.577C129.028 137.374 129.231 137.104 129.231 136.63C129.231 136.156 129.028 135.886 128.69 135.683C128.486 135.547 128.012 135.48 127.403 135.48H124.017V137.78Z" fill="#1C5A2D"></path>
  <path d="M139.253 143.667L135.664 137.171V142.787C135.664 142.99 135.732 143.126 135.8 143.193C135.868 143.261 136.003 143.396 136.274 143.464V143.735H132.956V143.464C133.159 143.396 133.294 143.329 133.362 143.261C133.43 143.193 133.498 142.99 133.498 142.855V134.735C133.498 134.532 133.43 134.397 133.362 134.329C133.294 134.262 133.159 134.126 132.888 134.126V133.856H137.086V134.126C136.816 134.194 136.68 134.397 136.68 134.6C136.68 134.871 136.748 135.141 136.951 135.48L139.456 139.946L141.962 135.547C142.233 135.074 142.368 134.735 142.368 134.532C142.368 134.262 142.233 134.126 141.962 134.059V133.788H146.024V134.059C145.821 134.126 145.686 134.194 145.55 134.262C145.483 134.329 145.415 134.532 145.415 134.668V142.787C145.415 142.99 145.483 143.126 145.55 143.193C145.618 143.261 145.754 143.396 146.024 143.464V143.735H142.503V143.464C142.706 143.396 142.842 143.329 142.91 143.261C142.977 143.193 143.045 142.99 143.045 142.855V137.239L139.253 143.667Z" fill="#1C5A2D"></path>
  <path d="M150.696 139.405V141.841H156.993C157.197 141.841 157.332 141.773 157.4 141.705C157.467 141.638 157.603 141.502 157.603 141.232H157.874V144.141H157.603C157.535 143.938 157.467 143.803 157.4 143.735C157.332 143.668 157.129 143.6 156.993 143.6H147.785V143.329C147.988 143.262 148.123 143.194 148.191 143.126C148.258 143.059 148.326 142.856 148.326 142.72V134.601C148.326 134.398 148.258 134.262 148.191 134.195C148.123 134.127 147.988 133.992 147.717 133.924V133.653H156.655C156.858 133.653 156.993 133.586 157.061 133.518C157.129 133.45 157.264 133.315 157.264 133.044H157.603V135.954H157.332C157.264 135.751 157.197 135.616 157.129 135.48C157.061 135.413 156.858 135.345 156.723 135.345H150.696V137.51H154.42C154.623 137.51 154.759 137.443 154.827 137.375C154.894 137.307 155.03 137.172 155.097 136.901H155.368V139.743H155.097C155.03 139.54 154.962 139.405 154.894 139.337C154.827 139.27 154.623 139.202 154.488 139.202H150.696V139.405Z" fill="#1C5A2D"></path>
  <path d="M162.073 137.105V142.721C162.073 142.924 162.141 143.06 162.208 143.127C162.276 143.195 162.411 143.33 162.615 143.398V143.669H159.297V143.398C159.5 143.33 159.635 143.263 159.703 143.195C159.771 143.127 159.838 142.924 159.838 142.789V134.669C159.838 134.466 159.771 134.331 159.703 134.263C159.635 134.196 159.5 134.06 159.229 133.993V133.722H163.021V133.993C162.75 134.06 162.615 134.196 162.615 134.331C162.615 134.466 162.682 134.669 162.885 134.805L168.235 140.082V134.602C168.235 134.399 168.167 134.263 168.099 134.196C168.032 134.128 167.896 133.993 167.625 133.993V133.722H170.943V133.993C170.74 134.06 170.605 134.128 170.469 134.196C170.402 134.263 170.334 134.466 170.334 134.602V142.721C170.334 142.924 170.402 143.06 170.469 143.127C170.537 143.195 170.672 143.33 170.943 143.398V143.669H167.422V143.398C167.693 143.33 167.829 143.263 167.829 143.06C167.829 142.992 167.761 142.924 167.693 142.789C167.625 142.721 167.49 142.518 167.219 142.248L162.073 137.105Z" fill="#1C5A2D"></path>
  <path d="M178.322 135.548V142.72C178.322 142.923 178.39 143.059 178.457 143.126C178.525 143.194 178.661 143.329 178.931 143.397V143.668H175.41V143.397C175.613 143.329 175.749 143.262 175.817 143.194C175.884 143.126 175.952 142.923 175.952 142.788V135.616H173.04C172.837 135.616 172.702 135.683 172.634 135.751C172.566 135.819 172.431 135.954 172.431 136.157H172.16V133.247H172.431C172.499 133.45 172.566 133.586 172.634 133.653C172.702 133.721 172.905 133.789 173.04 133.789H181.234C181.437 133.789 181.572 133.721 181.64 133.653C181.708 133.586 181.843 133.45 181.843 133.18H182.114V136.089H181.843C181.775 135.886 181.708 135.751 181.64 135.683C181.572 135.616 181.369 135.548 181.234 135.548H178.322Z" fill="#1C5A2D"></path>
  <path d="M190.579 141.842H196.131C196.334 141.842 196.47 141.774 196.537 141.707C196.605 141.639 196.74 141.504 196.808 141.233H197.079V144.142H196.808C196.74 143.939 196.673 143.804 196.605 143.669C196.537 143.601 196.334 143.534 196.199 143.534H187.735V143.263C187.938 143.195 188.073 143.127 188.141 143.06C188.209 142.992 188.276 142.789 188.276 142.654V134.534C188.276 134.331 188.209 134.196 188.141 134.128C188.073 134.061 187.938 133.925 187.667 133.858V133.587H191.188V133.858C190.985 133.925 190.849 133.993 190.714 134.061C190.646 134.128 190.579 134.331 190.579 134.467V141.842Z" fill="#1C5A2D"></path>
  <path d="M201.008 134.668V142.787C201.008 142.99 201.075 143.126 201.143 143.193C201.211 143.261 201.346 143.396 201.617 143.464V143.735H198.096V143.464C198.299 143.396 198.435 143.329 198.502 143.261C198.57 143.193 198.638 142.99 198.638 142.855V134.735C198.638 134.532 198.57 134.397 198.502 134.329C198.435 134.262 198.299 134.126 198.028 134.059V133.788H201.549V134.059C201.346 134.126 201.211 134.194 201.075 134.262C201.075 134.329 201.008 134.465 201.008 134.668Z" fill="#1C5A2D"></path>
  <path d="M209.674 143.667L206.085 137.171V142.787C206.085 142.99 206.153 143.126 206.221 143.193C206.288 143.261 206.424 143.396 206.695 143.464V143.735H203.377V143.464C203.58 143.396 203.715 143.329 203.783 143.261C203.851 143.193 203.918 142.99 203.918 142.855V134.735C203.918 134.532 203.851 134.397 203.783 134.329C203.715 134.262 203.58 134.126 203.309 134.126V133.856H207.507V134.126C207.236 134.194 207.101 134.397 207.101 134.6C207.101 134.871 207.169 135.141 207.372 135.48L209.809 139.946L212.315 135.547C212.586 135.074 212.721 134.735 212.721 134.532C212.721 134.262 212.586 134.126 212.315 134.059V133.788H216.378V134.059C216.174 134.126 216.039 134.194 215.904 134.262C215.768 134.329 215.768 134.532 215.768 134.668V142.787C215.768 142.99 215.836 143.126 215.904 143.193C215.971 143.261 216.107 143.396 216.378 143.464V143.735H212.857V143.464C213.06 143.396 213.195 143.329 213.263 143.261C213.331 143.193 213.398 142.99 213.398 142.855V137.239L209.674 143.667Z" fill="#1C5A2D"></path>
  <path d="M221.117 134.668V142.787C221.117 142.99 221.184 143.126 221.252 143.193C221.32 143.261 221.455 143.396 221.726 143.464V143.735H218.205V143.464C218.408 143.396 218.543 143.329 218.611 143.261C218.679 143.193 218.747 142.99 218.747 142.855V134.735C218.747 134.532 218.679 134.397 218.611 134.329C218.543 134.262 218.408 134.126 218.137 134.059V133.788H221.658V134.059C221.455 134.126 221.32 134.194 221.184 134.262C221.117 134.329 221.117 134.465 221.117 134.668Z" fill="#1C5A2D"></path>
  <path d="M228.905 135.548V142.72C228.905 142.923 228.973 143.059 229.04 143.126C229.108 143.194 229.244 143.329 229.514 143.397V143.668H225.993V143.397C226.196 143.329 226.332 143.262 226.4 143.194C226.467 143.126 226.535 142.923 226.535 142.788V135.616H223.623C223.42 135.616 223.285 135.683 223.217 135.751C223.149 135.819 223.014 135.954 223.014 136.157H222.743V133.247H223.014C223.082 133.45 223.149 133.586 223.217 133.653C223.285 133.721 223.488 133.789 223.623 133.789H231.817C232.02 133.789 232.155 133.721 232.223 133.653C232.291 133.586 232.426 133.45 232.426 133.18H232.697V136.089H232.426C232.358 135.886 232.291 135.751 232.223 135.683C232.155 135.616 231.952 135.548 231.817 135.548H228.905Z" fill="#1C5A2D"></path>
  <path d="M236.759 139.405V141.841H243.056C243.259 141.841 243.394 141.773 243.462 141.705C243.53 141.638 243.665 141.502 243.665 141.232H243.936V144.141H243.665C243.598 143.938 243.53 143.803 243.462 143.735C243.394 143.668 243.191 143.6 243.056 143.6H233.847V143.329C234.05 143.262 234.186 143.194 234.253 143.126C234.321 143.059 234.389 142.856 234.389 142.72V134.601C234.389 134.398 234.321 134.262 234.253 134.195C234.186 134.127 234.05 133.992 233.779 133.924V133.653H242.717C242.92 133.653 243.056 133.586 243.124 133.518C243.191 133.45 243.327 133.315 243.327 133.044H243.598V135.954H243.327C243.259 135.751 243.191 135.616 243.124 135.48C243.056 135.345 242.853 135.345 242.717 135.345H236.691V137.51H240.415C240.618 137.51 240.754 137.443 240.821 137.375C240.889 137.307 241.025 137.172 241.092 136.901H241.363V139.743H241.092C241.025 139.54 240.957 139.405 240.889 139.337C240.821 139.27 240.618 139.202 240.483 139.202H236.759V139.405Z" fill="#1C5A2D"></path>
  <path d="M246.037 142.72V134.6C246.037 134.397 245.969 134.262 245.901 134.194C245.834 134.126 245.698 133.991 245.427 133.924V133.653H251.251C252.469 133.653 253.417 133.788 254.094 134.127C255.042 134.533 255.787 135.277 256.194 136.224C256.464 136.901 256.667 137.713 256.667 138.592C256.667 140.284 256.194 141.57 255.178 142.449C254.704 142.855 254.162 143.126 253.553 143.261C252.943 143.464 252.198 143.532 251.251 143.532H245.427V143.261C245.63 143.193 245.766 143.126 245.834 143.058C245.969 143.058 246.037 142.923 246.037 142.72ZM248.407 141.84H250.912C252.063 141.84 252.943 141.57 253.417 141.028C253.959 140.487 254.23 139.675 254.23 138.66C254.23 137.645 253.959 136.833 253.417 136.292C253.146 136.021 252.808 135.818 252.402 135.683C251.995 135.547 251.521 135.48 250.912 135.48H248.407V141.84Z" fill="#1C5A2D"></path>
  <path d="M44.9281 73.0926H35.5161L34.0941 76.0022C33.891 76.4082 33.8233 76.7465 33.8233 76.9495C33.8233 77.4232 34.1618 77.6938 34.839 77.8968V78.3704H28V77.8968C28.4063 77.8292 28.7448 77.6937 28.948 77.4908C29.1511 77.2878 29.422 76.8818 29.6928 76.3405L37.2766 60.4395C37.5475 59.9659 37.6152 59.5598 37.6152 59.2215C37.6152 58.7479 37.3443 58.4096 36.7349 58.2066V57.7329H44.0479V58.2066C43.4385 58.4096 43.1676 58.6803 43.1676 59.0863C43.1676 59.3569 43.2353 59.6952 43.4384 60.1012L51.2931 76.0699C51.6317 76.7465 51.9025 77.2201 52.1733 77.4231C52.4442 77.6938 52.7828 77.8292 53.189 77.8968V78.3704H45.5375V77.8968C46.2146 77.7615 46.5532 77.4908 46.5532 76.9495C46.5532 76.7465 46.4855 76.4082 46.2823 76.0022L44.9281 73.0926ZM43.6416 70.2508L40.2559 62.8754L36.8703 70.2508H43.6416Z" fill="#ED2024"></path>
  <path d="M68.7639 74.1058H60.977L60.0967 75.9327C59.8936 76.4064 59.7582 76.7447 59.7582 76.9477C59.7582 77.4214 60.0967 77.7597 60.7061 77.895V78.301H54.4766V77.895C54.8828 77.8274 55.1537 77.692 55.3569 77.5567C55.56 77.3537 55.7631 77.0153 56.034 76.5417L62.2635 64.0239C62.4666 63.5503 62.6021 63.1442 62.6021 62.8059C62.6021 62.3999 62.3312 62.0616 61.7218 61.8586V61.4526H68.2899V61.8586C67.7482 62.0616 67.4774 62.4 67.4774 62.8736C67.4774 63.2119 67.6128 63.6179 67.8837 64.0915L74.3163 76.271C74.6549 76.9477 74.9258 77.3537 75.1289 77.5567C75.332 77.7597 75.6706 77.895 76.0769 77.9626V78.3686H69.1702V77.9626C69.8473 77.8273 70.1859 77.5567 70.1859 77.0154C70.1859 76.677 70.0504 76.3387 69.7796 75.8651L68.7639 74.1058ZM67.5451 71.7376L64.7689 66.2568L62.1281 71.7376H67.5451Z" fill="#ED2024"></path>
  <path d="M93.7488 62.8747L91.7174 66.7992L91.3788 66.5962C91.3788 66.2579 91.2434 65.9872 91.0403 65.7842C90.4309 65.2429 89.6183 64.8369 88.4672 64.4985C87.3161 64.1602 86.2327 64.0249 85.0816 64.0249C84.1336 64.0249 83.2534 64.1602 82.4408 64.4309C81.3574 64.8369 80.8157 65.3782 80.8157 66.1225C80.8157 66.5961 81.0865 67.0022 81.6282 67.2052C82.1699 67.4081 83.1857 67.5434 84.6753 67.6787L87.0453 67.8817C89.1443 68.0171 90.7017 68.4231 91.8528 69.0997C92.4622 69.4381 92.9362 69.9794 93.3425 70.5883C93.8165 71.3326 94.0874 72.2122 94.0874 73.1595C94.0874 74.9188 93.3425 76.2721 91.7851 77.2194C90.2954 78.1667 88.2641 78.6404 85.7587 78.6404C83.1856 78.6404 80.748 78.099 78.3103 77.0164C78.1749 76.9487 78.0395 76.881 77.9041 76.881C77.7009 76.881 77.4978 77.0164 77.3624 77.2194L76.9561 77.084L78.7166 72.9565L79.1229 73.0919C79.1229 73.1595 79.1229 73.1596 79.1229 73.2272C79.1229 73.4979 79.1906 73.7008 79.3937 73.9038C79.8677 74.3775 80.748 74.7159 82.0345 75.0542C83.2533 75.3925 84.5399 75.5278 85.691 75.5278C86.7744 75.5278 87.7223 75.3925 88.6026 75.1218C89.686 74.7835 90.16 74.2422 90.16 73.4302C90.16 72.8212 89.8214 72.4152 89.0766 72.1446C88.6026 72.0093 87.7223 71.8739 86.4358 71.7386L84.0659 71.5356C82.7793 71.468 81.8314 71.3327 81.1542 71.1297C80.4771 70.9267 79.8677 70.7237 79.3937 70.3854C78.7166 69.9794 78.2426 69.438 77.9041 68.7614C77.5655 68.0848 77.3624 67.2728 77.3624 66.4608C77.3624 64.6339 78.1749 63.2129 79.7323 62.198C81.222 61.3184 82.9825 60.8447 85.1493 60.8447C86.3004 60.8447 87.3838 60.98 88.3995 61.2507C89.4152 61.5213 90.634 61.9273 91.9882 62.604C92.3945 62.8069 92.6654 62.8747 92.8685 62.8747C93.0717 62.8747 93.2071 62.7393 93.4779 62.5363L93.7488 62.8747Z" fill="#ED2024"></path>
  <path d="M113.181 72.2815L115.754 76.0031L115.416 76.2737C115.145 76.0707 115.01 76.0031 114.806 76.0031C114.603 76.0031 114.265 76.206 113.588 76.5443C112.233 77.3563 110.947 77.8976 109.931 78.2359C108.915 78.5742 107.629 78.7096 106.275 78.7096C103.498 78.7096 101.264 78.033 99.5034 76.7474C98.4878 76.0031 97.7429 75.0557 97.1335 73.9054C96.5241 72.6875 96.1855 71.3342 96.1855 69.9133C96.1855 67.951 96.795 66.1918 97.9461 64.6355C99.7743 62.2673 102.551 61.0493 106.275 61.0493C107.629 61.0493 108.915 61.1847 109.999 61.523C111.082 61.8613 112.301 62.4026 113.655 63.2146C114.265 63.6206 114.671 63.7558 114.874 63.7558C115.01 63.7558 115.213 63.6882 115.484 63.4852L115.822 63.7558L113.249 67.4774L112.911 67.2068C112.911 67.0714 112.911 67.0038 112.911 67.0038C112.911 66.9361 112.911 66.8685 112.911 66.8008C112.911 66.3271 112.233 65.7182 110.879 65.1092C109.593 64.5002 108.306 64.2295 106.952 64.2295C105.124 64.2295 103.566 64.7031 102.415 65.6504C101.061 66.733 100.384 68.154 100.384 69.8456C100.384 71.5372 101.061 72.9581 102.415 74.0408C103.634 74.9881 105.124 75.4618 106.952 75.4618C108.374 75.4618 109.796 75.1234 111.218 74.3791C112.301 73.8378 112.911 73.2965 112.911 72.8905C112.911 72.8905 112.911 72.7552 112.843 72.4845L113.181 72.2815Z" fill="#ED2024"></path>
  <path d="M123.204 71.1289V75.2564H133.971C134.309 75.2564 134.512 75.1887 134.716 75.0534C134.851 74.9181 134.986 74.6474 135.122 74.3091H135.528V79.3162H135.122C135.054 78.9778 134.919 78.7072 134.716 78.5719C134.512 78.4365 134.309 78.3689 133.971 78.3689H118.126V77.9629C118.465 77.8952 118.735 77.7599 118.871 77.5569C119.006 77.354 119.074 77.151 119.074 76.8126V62.9415C119.074 62.6032 119.006 62.4002 118.871 62.1972C118.735 61.9942 118.465 61.9266 118.126 61.7912V61.3853H133.497C133.835 61.3853 134.038 61.3176 134.242 61.1823C134.377 61.047 134.512 60.7763 134.648 60.438H135.054V65.4451H134.648C134.58 65.1067 134.445 64.8361 134.242 64.7007C134.106 64.5654 133.835 64.4978 133.497 64.4978H123.204V68.2193H129.637C129.976 68.2193 130.179 68.1516 130.382 68.0163C130.585 67.881 130.721 67.6103 130.788 67.272H131.194V72.1438H130.788C130.721 71.8055 130.585 71.5348 130.382 71.3995C130.247 71.2642 129.976 71.1965 129.637 71.1965H123.204V71.1289Z" fill="#ED2024"></path>
  <path d="M143.178 71.1289V75.2564H153.944C154.283 75.2564 154.486 75.1887 154.689 75.0534C154.825 74.9181 154.96 74.6474 155.095 74.3091H155.502V79.3162H155.095C155.028 78.9778 154.892 78.7072 154.689 78.5719C154.486 78.4365 154.283 78.3689 153.944 78.3689H138.1V77.9629C138.438 77.8952 138.709 77.7599 138.844 77.5569C138.98 77.354 139.048 77.151 139.048 76.8126V62.9415C139.048 62.6032 138.98 62.4002 138.844 62.1972C138.709 62.0619 138.438 61.9266 138.1 61.7912V61.3853H153.47C153.809 61.3853 154.012 61.3176 154.215 61.1823C154.351 61.047 154.486 60.7763 154.621 60.438H155.028V65.4451H154.621C154.554 65.1067 154.418 64.8361 154.215 64.7007C154.08 64.5654 153.809 64.4978 153.47 64.4978H143.178V68.2193H149.611C149.949 68.2193 150.152 68.1516 150.356 68.0163C150.559 67.881 150.694 67.6103 150.762 67.272H151.168V72.1438H150.762C150.694 71.8055 150.559 71.5348 150.356 71.3995C150.22 71.2642 149.949 71.1965 149.611 71.1965H143.178V71.1289Z" fill="#ED2024"></path>
  <path d="M162.748 67.1365V76.7448C162.748 77.0832 162.816 77.2861 162.951 77.489C163.087 77.692 163.358 77.8275 163.696 77.8951V78.3011H158.076V77.8951C158.415 77.8275 158.686 77.692 158.821 77.489C158.956 77.2861 159.024 77.0832 159.024 76.7448V62.8737C159.024 62.5354 158.956 62.3324 158.821 62.1294C158.686 61.9941 158.415 61.8588 158.076 61.7235V61.3174H164.577V61.7235C164.103 61.8588 163.899 62.0617 163.899 62.3324C163.899 62.6031 164.035 62.8737 164.373 63.2121L173.515 72.279V62.9414C173.515 62.603 173.447 62.4 173.311 62.197C173.176 62.0617 172.905 61.9264 172.567 61.7911V61.3851H178.187V61.7911C177.848 61.8587 177.577 61.9941 177.442 62.197C177.307 62.3324 177.239 62.603 177.239 62.9414V76.8125C177.239 77.1508 177.307 77.3538 177.442 77.5568C177.577 77.6921 177.848 77.8951 178.187 77.9627V78.3687H172.093V77.9627C172.567 77.8951 172.77 77.6921 172.77 77.4214C172.77 77.2861 172.702 77.1508 172.567 77.0155C172.431 76.8801 172.16 76.5418 171.754 76.1358L162.748 67.1365Z" fill="#ED2024"></path>
  <path d="M182.114 76.8141V62.943C182.114 62.6046 182.046 62.4016 181.911 62.1987C181.775 62.0633 181.505 61.928 181.166 61.7927V61.3867H191.12C193.219 61.3867 194.844 61.6574 195.995 62.131C197.688 62.8753 198.907 64.0933 199.651 65.7172C200.193 66.8675 200.396 68.2884 200.396 69.8447C200.396 72.7543 199.516 74.9195 197.823 76.4081C197.078 77.0848 196.13 77.5583 195.047 77.829C193.964 78.0997 192.677 78.3027 191.12 78.3027H181.166V77.8967C181.505 77.8291 181.775 77.6936 181.911 77.4907C182.046 77.3553 182.114 77.0847 182.114 76.8141ZM186.177 75.2578H190.51C192.474 75.2578 193.964 74.7841 194.844 73.9045C195.792 72.9572 196.266 71.604 196.266 69.8447C196.266 68.0854 195.792 66.7321 194.844 65.7848C194.37 65.3112 193.828 64.9729 193.083 64.7699C192.406 64.5669 191.526 64.4316 190.443 64.4316H186.109V75.2578H186.177Z" fill="#ED2024"></path>
</svg>
