<?xml version="1.0" encoding="UTF-8"?>
<svg xmlns="http://www.w3.org/2000/svg" width="288" height="150" viewBox="0 0 288 150" fill="none">
  <path d="M5 92.8034L10.4259 92.7522L26.9594 64.9574L66.5786 121.11L113.466 40.7969L136.654 73.5569L215.074 70.7416L140.084 69.0012L112.494 32.0439L92.3259 33.0164L89.357 39.3636L88.9475 28.2048L83.624 28L83.7776 33.17L75.9971 33.5283L66.3738 50.5225L82.6514 52.5189L54.3447 54.3616L49.8403 64.3432L49.6355 44.6359L38.6302 45.3526L38.9373 54.5152L26.4987 55.1805L5 92.8034Z" fill="url(#paint0_radial_54_4192)"></path>
  <path d="M119.507 61.3218H107.887V72.2759H119.507V61.3218Z" fill="url(#paint1_linear_54_4192)"></path>
  <path d="M119.507 66.2383H107.887V67.3133H119.507V66.2383Z" fill="#ED2224"></path>
  <path d="M114.267 72.2661L114.276 61.312L113.201 61.3111L113.192 72.2652L114.267 72.2661Z" fill="#ED2224"></path>
  <path d="M118.482 85.6885L124.113 100.226C124.42 100.994 124.779 101.505 125.188 101.761C125.598 102.017 126.109 102.222 126.724 102.324V102.632H118.738V102.324C119.813 102.273 120.376 101.915 120.376 101.301C120.376 101.198 120.376 101.045 120.325 100.891C120.274 100.738 120.223 100.533 120.172 100.328C120.12 100.123 120.069 100.021 120.069 99.9698L118.687 96.3866H113.671L112.494 99.8162C112.34 100.226 112.289 100.584 112.289 100.942C112.289 101.454 112.442 101.812 112.749 101.966C113.057 102.12 113.415 102.273 113.824 102.324V102.632H108.757V102.324C109.269 102.273 109.781 102.017 110.241 101.608C110.702 101.147 111.163 100.379 111.572 99.202L116.333 85.6885H118.482ZM114.08 95.2605H118.278L116.128 89.5787L114.08 95.2605Z" fill="#175027"></path>
  <path d="M137.013 85.6885L142.644 100.226C142.951 100.994 143.309 101.505 143.719 101.761C144.128 102.017 144.64 102.222 145.254 102.324V102.632H137.269V102.324C138.344 102.273 138.907 101.915 138.907 101.301C138.907 101.198 138.907 101.045 138.856 100.891C138.805 100.738 138.754 100.533 138.702 100.328C138.651 100.123 138.6 100.021 138.6 99.9698L137.218 96.3866H132.202L131.024 99.8162C130.871 100.226 130.82 100.584 130.82 100.942C130.82 101.454 130.973 101.812 131.28 101.966C131.587 102.12 131.946 102.273 132.355 102.324V102.632H127.288V102.324C127.799 102.273 128.311 102.017 128.772 101.608C129.233 101.147 129.693 100.379 130.103 99.202L134.863 85.6885H137.013ZM132.611 95.2605H136.808L134.659 89.5787L132.611 95.2605Z" fill="#175027"></path>
  <path d="M155.746 89.9882H155.286C154.979 88.9133 154.518 88.0943 153.853 87.5312C153.187 86.917 152.368 86.6098 151.447 86.6098C150.986 86.6098 150.577 86.7122 150.167 86.8658C149.758 87.0705 149.502 87.3265 149.246 87.6848C149.041 88.0431 148.887 88.4526 148.887 88.8621C148.887 89.118 148.939 89.374 149.041 89.6299C149.143 89.8859 149.348 90.193 149.655 90.5513C150.013 90.9096 150.474 91.3191 151.191 91.7798C151.959 92.2405 152.419 92.5476 152.573 92.7011C153.545 93.3154 154.313 93.8785 154.927 94.3903C155.542 94.9022 156.002 95.4653 156.31 96.0795C156.617 96.6938 156.77 97.3592 156.77 98.127C156.77 98.8436 156.617 99.4579 156.361 100.021C156.105 100.584 155.695 101.096 155.183 101.505C154.672 101.915 154.108 102.273 153.392 102.478C152.726 102.734 151.959 102.836 151.14 102.836C150.321 102.836 149.348 102.683 148.273 102.376C148.171 102.324 148.017 102.324 147.812 102.273C147.608 102.222 147.454 102.222 147.301 102.222C146.942 102.222 146.686 102.427 146.533 102.785H146.226L146.328 98.0247H146.789C146.942 98.9461 147.249 99.6627 147.71 100.277C148.171 100.891 148.734 101.301 149.348 101.608C149.962 101.864 150.525 102.017 151.14 102.017C151.959 102.017 152.675 101.761 153.238 101.301C153.801 100.84 154.057 100.277 154.057 99.5603C154.057 99.0996 153.955 98.6901 153.699 98.383C153.443 98.0246 153.136 97.7175 152.675 97.3592C152.215 97.0521 151.344 96.4379 150.065 95.6189C149.399 95.1582 148.836 94.7487 148.324 94.3392C147.864 93.9297 147.454 93.5202 147.198 93.1619C146.942 92.8036 146.737 92.3941 146.635 92.0358C146.533 91.6774 146.482 91.2679 146.482 90.8072C146.482 89.9882 146.686 89.1692 147.096 88.4014C147.505 87.5824 148.12 86.9681 148.887 86.4563C149.655 85.9444 150.525 85.6885 151.549 85.6885C152.01 85.6885 152.47 85.7397 152.88 85.842C152.982 85.842 153.136 85.8932 153.341 85.9444C153.545 85.9956 153.699 86.0468 153.801 86.0468C154.16 86.098 154.364 86.1491 154.569 86.1491C154.825 86.1491 155.03 86.098 155.132 86.0468C155.235 85.9445 155.337 85.842 155.439 85.6885H155.798V89.9882H155.746Z" fill="#175027"></path>
  <path d="M173.56 91.6259H173.151C173.049 90.8069 172.793 90.0903 172.434 89.476C172.076 88.8618 171.667 88.2986 171.155 87.8891C170.643 87.4796 170.131 87.1726 169.517 86.9678C168.902 86.7631 168.237 86.6607 167.571 86.6607C166.65 86.6607 165.831 86.8654 165.166 87.2238C164.449 87.6333 163.937 88.0939 163.579 88.657C163.118 89.3736 162.811 90.1926 162.606 91.0628C162.402 91.933 162.35 92.9056 162.35 93.8781C162.35 95.7209 162.658 97.1541 163.323 98.2803C163.988 99.4064 164.756 100.123 165.626 100.584C166.548 100.993 167.418 101.249 168.288 101.249C170.387 101.249 172.23 100.225 173.765 98.1266V99.6623C173.253 100.277 172.69 100.788 172.127 101.249C171.564 101.71 170.796 102.068 169.926 102.375C169.056 102.682 168.032 102.836 166.855 102.836C165.473 102.836 164.244 102.58 163.169 102.119C162.094 101.659 161.173 101.044 160.456 100.225C159.74 99.4575 159.177 98.5362 158.818 97.5124C158.46 96.4887 158.255 95.4649 158.255 94.3388C158.255 93.4174 158.358 92.5472 158.614 91.7282C158.87 90.9092 159.177 90.2438 159.586 89.5783C159.996 88.9641 160.456 88.401 161.02 87.838C161.992 86.9678 162.965 86.3536 163.988 86.0465C165.012 85.7393 166.138 85.5857 167.316 85.5857C168.493 85.5857 169.773 85.7905 171.155 86.1488C171.667 86.2512 171.974 86.3023 172.23 86.3023C172.639 86.3023 172.946 86.0465 173.202 85.4834H173.509V91.6259H173.56Z" fill="#175027"></path>
  <path d="M186.664 85.8413L186.818 89.6292H186.511C186.357 89.015 186.204 88.4519 185.999 88.0424C185.794 87.6329 185.538 87.3257 185.231 87.121C184.924 86.9162 184.412 86.8139 183.849 86.8139H180.471V93.8778H183.183C184.002 93.8778 184.566 93.7242 184.924 93.3659C185.282 93.0076 185.487 92.4957 185.589 91.7791H185.896V96.693H185.589C185.487 95.9252 185.18 95.4646 184.77 95.2086C184.31 94.9527 183.798 94.8503 183.183 94.8503H180.471V99.7132C180.471 101.095 181.187 101.812 182.62 101.812H183.644C184.361 101.812 184.924 101.709 185.333 101.556C185.794 101.351 186.152 101.044 186.408 100.634C186.715 100.174 186.971 99.5596 187.176 98.7406H187.483L187.227 102.784H174.584V102.477C175.454 102.477 176.017 102.273 176.273 101.863C176.529 101.454 176.683 100.942 176.683 100.276V88.5031C176.683 87.8888 176.58 87.377 176.324 86.9163C176.068 86.5068 175.557 86.302 174.686 86.302H174.584V85.9949H186.664V85.8413Z" fill="#175027"></path>
  <path d="M200.332 85.8413L200.485 89.6292H200.178C200.025 89.015 199.871 88.4519 199.666 88.0424C199.461 87.6329 199.206 87.3257 198.898 87.121C198.591 86.9162 198.079 86.8139 197.516 86.8139H194.138V93.8778H196.851C197.67 93.8778 198.233 93.7242 198.591 93.3659C198.95 93.0076 199.154 92.4957 199.257 91.7791H199.564V96.693H199.257C199.154 95.9252 198.847 95.4646 198.438 95.2086C197.977 94.9527 197.465 94.8503 196.851 94.8503H194.138V99.7132C194.138 101.095 194.855 101.812 196.288 101.812H197.312C198.028 101.812 198.591 101.709 199.001 101.556C199.461 101.351 199.82 101.044 200.076 100.634C200.332 100.225 200.639 99.5596 200.843 98.7406H201.151L200.895 102.784H188.2V102.477C189.07 102.477 189.633 102.273 189.889 101.863C190.145 101.454 190.299 100.942 190.299 100.276V88.5031C190.299 87.8888 190.197 87.377 189.941 86.9163C189.685 86.5068 189.173 86.302 188.303 86.302H188.2V85.9949H200.332V85.8413Z" fill="#175027"></path>
  <path d="M207.908 85.8413L218.146 96.693V89.0149C218.146 87.9912 217.941 87.3258 217.531 86.9674C217.122 86.6091 216.508 86.3532 215.638 86.2508V85.9437H221.422V86.2508C220.807 86.302 220.296 86.5068 219.988 86.7627C219.681 87.0187 219.477 87.3769 219.374 87.7352C219.272 88.0935 219.221 88.5543 219.221 89.0661V102.938H218.811L206.526 89.9875V99.4572C206.526 100.225 206.68 100.942 207.038 101.505C207.396 102.068 208.011 102.375 208.932 102.426V102.733H202.943V102.426C204.632 102.273 205.451 101.453 205.451 99.969V88.8614C205.4 88.8102 205.349 88.759 205.246 88.7078C205.195 88.6566 205.042 88.5542 204.888 88.4007C204.735 88.2471 204.581 88.0935 204.479 87.9912C203.455 87.0186 202.585 86.4556 201.817 86.3532V86.0461H207.908V85.8413Z" fill="#175027"></path>
  <path d="M221.933 85.8413H231.096C232.58 85.8413 233.962 86.0461 235.139 86.5068C236.317 86.9675 237.34 87.5817 238.108 88.4007C238.927 89.2197 239.49 90.1411 239.9 91.1649C240.309 92.1886 240.514 93.3147 240.514 94.4408C240.514 95.567 240.309 96.6419 239.951 97.6144C239.593 98.587 239.03 99.4572 238.262 100.225C237.494 100.993 236.573 101.556 235.395 101.965C234.269 102.375 232.99 102.58 231.556 102.58H221.933V102.273C222.803 102.273 223.366 102.068 223.622 101.709C223.878 101.3 223.981 100.788 223.981 100.123V88.3495C223.981 87.7353 223.878 87.2234 223.622 86.7627C223.417 86.3532 222.854 86.0973 221.984 86.0973H221.882V85.8413H221.933ZM227.768 86.9674V99.3036C227.768 99.9179 227.82 100.379 227.973 100.737C228.127 101.095 228.331 101.351 228.741 101.505C229.099 101.658 229.662 101.761 230.379 101.761C231.044 101.761 231.659 101.709 232.171 101.607C232.682 101.505 233.194 101.351 233.655 101.095C234.32 100.686 234.883 100.174 235.344 99.4572C235.805 98.7406 236.112 98.024 236.317 97.1538C236.521 96.3348 236.624 95.4646 236.624 94.5944C236.624 93.673 236.521 92.7517 236.266 91.8815C236.01 90.9601 235.6 90.1411 235.088 89.3733C234.525 88.6054 233.809 87.9912 232.836 87.5305C231.915 87.0698 230.737 86.8139 229.406 86.8139C228.895 86.7627 228.383 86.8651 227.768 86.9674Z" fill="#175027"></path>
  <path d="M110.907 113.688V115.735C110.907 115.991 110.958 116.145 111.009 116.298C111.112 116.401 111.214 116.503 111.316 116.554C111.419 116.606 111.572 116.606 111.777 116.606V116.759H108.552V116.606C108.757 116.606 108.962 116.554 109.115 116.452C109.269 116.35 109.371 116.145 109.371 115.838V111.026C109.371 110.719 109.32 110.463 109.167 110.361C109.013 110.258 108.808 110.156 108.552 110.156V110.002H112.135C112.647 110.002 113.057 110.105 113.364 110.258C113.671 110.463 113.876 110.668 114.029 110.975C114.183 111.231 114.234 111.538 114.234 111.845C114.234 112.204 114.183 112.459 114.029 112.715C113.876 112.971 113.722 113.125 113.517 113.278C113.313 113.432 113.057 113.534 112.801 113.637C112.545 113.739 112.187 113.739 111.726 113.739C111.47 113.739 111.214 113.739 110.907 113.688ZM110.907 110.412V113.33C111.06 113.381 111.214 113.381 111.368 113.381C111.726 113.381 111.982 113.278 112.187 113.125C112.391 112.971 112.545 112.767 112.647 112.511C112.75 112.255 112.75 112.05 112.75 111.794C112.75 111.538 112.698 111.333 112.596 111.077C112.494 110.873 112.34 110.668 112.135 110.566C111.931 110.412 111.675 110.361 111.316 110.361C111.214 110.412 111.06 110.412 110.907 110.412Z" fill="#ED2224"></path>
  <path d="M117.1 113.584H116.895V115.734C116.895 115.99 116.946 116.195 116.998 116.297C117.049 116.4 117.151 116.502 117.253 116.553C117.356 116.605 117.509 116.605 117.714 116.605V116.707H114.541V116.553C114.899 116.553 115.104 116.451 115.206 116.297C115.308 116.144 115.36 115.939 115.36 115.683V110.974C115.36 110.667 115.308 110.411 115.155 110.308C115.001 110.155 114.796 110.104 114.541 110.104V109.95H118.021C118.482 109.95 118.891 110.001 119.25 110.155C119.608 110.308 119.864 110.513 120.069 110.769C120.274 111.025 120.325 111.332 120.325 111.691C120.325 111.946 120.274 112.202 120.171 112.407C120.069 112.612 119.915 112.817 119.71 112.919C119.506 113.073 119.301 113.175 119.045 113.226C119.352 113.431 119.659 113.789 119.966 114.301L120.785 115.683C120.939 115.939 121.041 116.093 121.144 116.246C121.246 116.4 121.348 116.451 121.451 116.502C121.553 116.553 121.656 116.553 121.758 116.605V116.758H119.608C119.403 116.4 119.25 116.093 119.147 115.837C118.789 115.12 118.533 114.659 118.38 114.352C118.226 114.045 118.021 113.892 117.868 113.738C117.612 113.636 117.407 113.584 117.1 113.584ZM117.253 110.411H116.895V113.226H117.202C117.714 113.226 118.124 113.124 118.38 112.868C118.636 112.612 118.789 112.254 118.789 111.793C118.789 111.486 118.738 111.23 118.636 111.076C118.533 110.872 118.328 110.718 118.124 110.616C117.868 110.462 117.612 110.411 117.253 110.411Z" fill="#ED2224"></path>
  <path d="M121.707 113.381C121.707 112.92 121.809 112.511 121.962 112.05C122.116 111.589 122.372 111.282 122.679 110.975C122.986 110.668 123.345 110.412 123.805 110.258C124.215 110.105 124.727 110.002 125.29 110.002C125.853 110.002 126.313 110.105 126.774 110.258C127.184 110.412 127.593 110.668 127.9 110.975C128.207 111.282 128.412 111.64 128.566 112.05C128.719 112.459 128.822 112.92 128.822 113.381C128.822 113.842 128.77 114.302 128.617 114.712C128.463 115.121 128.259 115.48 127.951 115.787C127.644 116.094 127.286 116.35 126.825 116.554C126.365 116.759 125.904 116.81 125.341 116.81C124.727 116.81 124.215 116.708 123.754 116.503C123.293 116.299 122.935 116.043 122.679 115.684C122.372 115.326 122.167 114.968 122.065 114.558C121.962 114.149 121.707 113.739 121.707 113.381ZM123.293 113.278C123.293 113.739 123.345 114.2 123.396 114.609C123.447 115.07 123.652 115.48 123.908 115.838C124.215 116.247 124.624 116.401 125.187 116.401C126.006 116.401 126.518 116.094 126.723 115.428C126.928 114.763 127.081 114.097 127.081 113.432C127.081 112.92 127.03 112.408 126.928 111.948C126.825 111.487 126.672 111.077 126.365 110.77C126.109 110.463 125.699 110.258 125.187 110.258C124.624 110.258 124.164 110.463 123.908 110.821C123.6 111.18 123.447 111.589 123.396 111.999C123.345 112.511 123.293 112.869 123.293 113.278Z" fill="#ED2224"></path>
  <path d="M131.484 113.688V115.735C131.484 115.991 131.535 116.145 131.586 116.298C131.689 116.401 131.791 116.503 131.894 116.554C131.996 116.606 132.149 116.606 132.354 116.606V116.759H129.129V116.606C129.334 116.606 129.539 116.554 129.692 116.452C129.846 116.35 129.948 116.145 129.948 115.838V111.026C129.948 110.719 129.897 110.463 129.744 110.361C129.59 110.207 129.385 110.156 129.129 110.156V110.002H132.713C133.224 110.002 133.634 110.105 133.941 110.258C134.248 110.463 134.453 110.668 134.606 110.975C134.76 111.231 134.811 111.538 134.811 111.845C134.811 112.204 134.76 112.459 134.606 112.715C134.453 112.971 134.299 113.125 134.095 113.278C133.89 113.432 133.634 113.534 133.378 113.637C133.122 113.739 132.764 113.739 132.303 113.739C132.047 113.739 131.791 113.739 131.484 113.688ZM131.484 110.412V113.33C131.638 113.381 131.791 113.381 131.945 113.381C132.303 113.381 132.559 113.278 132.764 113.125C132.968 112.971 133.122 112.767 133.224 112.511C133.327 112.255 133.327 112.05 133.327 111.794C133.327 111.538 133.276 111.333 133.173 111.077C133.071 110.821 132.917 110.668 132.713 110.566C132.508 110.412 132.252 110.361 131.894 110.361C131.791 110.412 131.638 110.412 131.484 110.412Z" fill="#ED2224"></path>
  <path d="M139.982 110.002L140.034 111.487H139.88C139.829 111.231 139.726 111.026 139.675 110.873C139.624 110.719 139.47 110.566 139.368 110.514C139.215 110.412 139.061 110.361 138.805 110.361H137.474V113.176H138.549C138.856 113.176 139.112 113.125 139.266 112.971C139.419 112.818 139.522 112.613 139.522 112.357H139.675V114.353H139.522C139.47 114.046 139.368 113.841 139.163 113.739C138.959 113.637 138.754 113.586 138.549 113.586H137.474V115.531C137.474 116.094 137.781 116.35 138.344 116.35H138.754C139.01 116.35 139.266 116.299 139.419 116.247C139.573 116.196 139.726 116.043 139.829 115.889C139.931 115.735 140.034 115.48 140.136 115.121H140.289L140.187 116.759H135.12V116.606C135.478 116.606 135.683 116.503 135.785 116.35C135.887 116.196 135.939 115.991 135.939 115.735V111.026C135.939 110.77 135.887 110.566 135.785 110.412C135.683 110.258 135.478 110.156 135.12 110.156H135.068V110.002H139.982Z" fill="#ED2224"></path>
  <path d="M143.154 113.584H142.949V115.734C142.949 115.99 143 116.195 143.051 116.297C143.102 116.4 143.205 116.502 143.307 116.553C143.41 116.605 143.563 116.605 143.768 116.605V116.707H140.594V116.553C140.953 116.553 141.157 116.451 141.26 116.297C141.362 116.144 141.413 115.939 141.413 115.683V110.974C141.413 110.667 141.362 110.411 141.208 110.308C141.055 110.206 140.85 110.104 140.594 110.104V109.95H144.075C144.536 109.95 144.945 110.001 145.303 110.155C145.662 110.308 145.918 110.513 146.122 110.769C146.327 111.025 146.378 111.332 146.378 111.691C146.378 111.946 146.327 112.202 146.225 112.407C146.122 112.612 145.969 112.817 145.764 112.919C145.559 113.073 145.355 113.175 145.099 113.226C145.406 113.431 145.713 113.789 146.02 114.301L146.839 115.683C146.993 115.939 147.095 116.093 147.197 116.246C147.3 116.4 147.402 116.451 147.505 116.502C147.607 116.553 147.709 116.553 147.812 116.605V116.758H145.662C145.457 116.4 145.303 116.093 145.201 115.837C144.843 115.12 144.587 114.659 144.433 114.352C144.28 114.096 144.075 113.892 143.921 113.738C143.614 113.636 143.41 113.584 143.154 113.584ZM143.307 110.411H142.949V113.226H143.256C143.768 113.226 144.177 113.124 144.433 112.868C144.689 112.612 144.843 112.254 144.843 111.793C144.843 111.486 144.792 111.23 144.689 111.076C144.587 110.872 144.382 110.718 144.177 110.616C143.921 110.462 143.614 110.411 143.307 110.411Z" fill="#ED2224"></path>
  <path d="M148.324 110.002H153.033C153.238 110.002 153.443 109.951 153.596 109.9H153.75L153.801 111.487H153.699C153.648 111.026 153.494 110.719 153.34 110.617C153.187 110.514 152.982 110.412 152.777 110.412H151.498V115.735C151.498 115.889 151.498 116.042 151.549 116.196C151.6 116.298 151.651 116.401 151.805 116.503C151.907 116.606 152.112 116.605 152.317 116.605V116.759H149.143V116.605C149.501 116.605 149.706 116.503 149.808 116.35C149.911 116.196 149.962 115.991 149.962 115.735V110.412H148.682C148.478 110.412 148.273 110.463 148.17 110.617C148.068 110.77 147.915 111.026 147.761 111.487H147.607L147.659 109.9H147.812C147.915 110.002 148.119 110.002 148.324 110.002Z" fill="#ED2224"></path>
  <path d="M161.429 110.002V110.156C161.121 110.156 160.814 110.258 160.558 110.463C160.302 110.617 160.046 110.924 159.739 111.333L158.511 113.176V115.787C158.511 116.094 158.562 116.298 158.716 116.452C158.818 116.606 159.074 116.657 159.381 116.657V116.81H156.207V116.657C156.566 116.657 156.77 116.554 156.873 116.401C156.975 116.247 157.026 116.043 157.026 115.787V113.534L155.03 110.873C154.825 110.565 154.621 110.412 154.518 110.31C154.365 110.207 154.211 110.207 154.006 110.207V110.054H157.334V110.207C157.18 110.207 157.026 110.258 156.924 110.258C156.822 110.31 156.77 110.361 156.77 110.514C156.77 110.617 156.873 110.821 157.026 111.026L158.255 112.818L159.279 111.333C159.432 111.077 159.535 110.821 159.535 110.617C159.535 110.514 159.483 110.412 159.381 110.31C159.279 110.207 159.125 110.156 158.92 110.156V110.002H161.429Z" fill="#ED2224"></path>
  <path d="M164.858 110.002H168.544C169.158 110.002 169.67 110.105 170.182 110.258C170.694 110.412 171.052 110.719 171.359 111.026C171.666 111.333 171.922 111.743 172.076 112.152C172.229 112.562 172.332 113.022 172.332 113.483C172.332 113.944 172.281 114.353 172.127 114.763C171.973 115.172 171.769 115.48 171.462 115.787C171.154 116.094 170.796 116.299 170.335 116.503C169.875 116.657 169.363 116.759 168.8 116.759H164.961V116.606C165.319 116.606 165.524 116.503 165.626 116.35C165.729 116.196 165.78 115.991 165.78 115.735V111.026C165.78 110.77 165.729 110.566 165.626 110.412C165.524 110.258 165.319 110.156 164.961 110.156H164.91V110.002H164.858ZM167.162 110.463V115.377C167.162 115.633 167.213 115.787 167.264 115.94C167.315 116.094 167.418 116.196 167.571 116.247C167.725 116.299 167.93 116.35 168.237 116.35C168.493 116.35 168.749 116.35 168.953 116.298C169.158 116.247 169.363 116.196 169.568 116.094C169.824 115.94 170.08 115.735 170.233 115.428C170.387 115.172 170.54 114.865 170.643 114.507C170.745 114.149 170.745 113.841 170.745 113.483C170.745 113.125 170.694 112.767 170.591 112.408C170.489 112.05 170.335 111.692 170.131 111.385C169.926 111.077 169.619 110.821 169.261 110.617C168.902 110.412 168.442 110.31 167.878 110.31C167.623 110.412 167.418 110.412 167.162 110.463Z" fill="#ED2224"></path>
  <path d="M177.603 110.002L177.654 111.487H177.501C177.449 111.231 177.347 111.026 177.296 110.873C177.245 110.719 177.091 110.566 176.989 110.514C176.835 110.412 176.682 110.361 176.426 110.361H175.095V113.176H176.17C176.477 113.176 176.733 113.125 176.886 112.971C177.04 112.818 177.142 112.613 177.142 112.357H177.296V114.353H177.142C177.091 114.046 176.989 113.841 176.784 113.739C176.579 113.637 176.374 113.586 176.17 113.586H175.095V115.531C175.095 116.094 175.402 116.35 175.965 116.35H176.374C176.63 116.35 176.886 116.299 177.04 116.247C177.193 116.196 177.347 116.043 177.449 115.889C177.552 115.735 177.654 115.48 177.757 115.121H177.91L177.808 116.759H172.74V116.606C173.098 116.606 173.303 116.503 173.406 116.35C173.508 116.196 173.559 115.991 173.559 115.735V111.026C173.559 110.77 173.508 110.566 173.406 110.412C173.303 110.258 173.098 110.156 172.74 110.156H172.689V110.002H177.603Z" fill="#ED2224"></path>
  <path d="M184.872 110.001V110.155C184.616 110.206 184.411 110.308 184.258 110.462C184.104 110.616 183.9 110.974 183.695 111.486L181.801 116.809H181.647L179.344 111.025C179.242 110.718 179.088 110.513 178.934 110.36C178.781 110.206 178.525 110.155 178.218 110.104V109.95H181.289V110.104C181.135 110.104 181.033 110.155 180.931 110.155C180.828 110.206 180.777 110.308 180.777 110.462C180.777 110.564 180.828 110.718 180.88 110.923L182.21 114.25L183.234 111.332C183.337 111.076 183.388 110.872 183.388 110.718C183.388 110.616 183.337 110.513 183.285 110.36C183.183 110.206 183.029 110.155 182.722 110.104V109.95H184.872V110.001Z" fill="#ED2224"></path>
  <path d="M189.991 110.002L190.042 111.487H189.889C189.838 111.231 189.735 111.026 189.684 110.873C189.633 110.719 189.479 110.566 189.377 110.514C189.223 110.412 189.07 110.361 188.814 110.361H187.483V113.176H188.558C188.865 113.176 189.121 113.125 189.275 112.971C189.428 112.818 189.531 112.613 189.531 112.357H189.684V114.353H189.531C189.479 114.046 189.377 113.841 189.172 113.739C188.967 113.637 188.763 113.586 188.558 113.586H187.483V115.531C187.483 116.094 187.79 116.35 188.353 116.35H188.763C189.019 116.35 189.275 116.299 189.428 116.247C189.582 116.196 189.735 116.043 189.838 115.889C189.94 115.735 190.042 115.48 190.145 115.121H190.298L190.196 116.759H185.128V116.606C185.487 116.606 185.691 116.503 185.794 116.35C185.896 116.196 185.947 115.991 185.947 115.735V111.026C185.947 110.77 185.896 110.566 185.794 110.412C185.691 110.258 185.487 110.156 185.128 110.156V110.002H189.991Z" fill="#ED2224"></path>
  <path d="M195.725 116.759H190.606V116.606C190.964 116.606 191.169 116.503 191.271 116.35C191.374 116.196 191.425 115.991 191.425 115.735V111.026C191.425 110.719 191.374 110.514 191.22 110.361C191.118 110.207 190.862 110.156 190.555 110.156V110.002H193.728V110.156C193.37 110.156 193.165 110.258 193.063 110.412C192.961 110.566 192.909 110.77 192.909 111.026V115.531C192.909 115.787 192.961 116.043 193.063 116.145C193.165 116.298 193.37 116.35 193.677 116.35H194.138C194.445 116.35 194.752 116.247 195.008 116.094C195.264 115.94 195.52 115.582 195.776 114.968H195.929L195.725 116.759Z" fill="#ED2224"></path>
  <path d="M196.338 113.381C196.338 112.92 196.441 112.511 196.594 112.05C196.748 111.589 197.004 111.282 197.311 110.975C197.618 110.668 197.976 110.412 198.437 110.258C198.847 110.105 199.358 110.002 199.922 110.002C200.485 110.002 200.945 110.105 201.406 110.258C201.815 110.412 202.225 110.668 202.532 110.975C202.839 111.282 203.044 111.64 203.198 112.05C203.351 112.459 203.453 112.92 203.453 113.381C203.453 113.842 203.402 114.302 203.249 114.712C203.095 115.121 202.89 115.48 202.583 115.787C202.276 116.094 201.918 116.35 201.457 116.554C200.996 116.759 200.536 116.81 199.973 116.81C199.358 116.81 198.847 116.708 198.386 116.503C197.925 116.299 197.567 116.043 197.311 115.684C197.004 115.326 196.799 114.968 196.697 114.558C196.39 114.149 196.338 113.739 196.338 113.381ZM197.925 113.278C197.925 113.739 197.976 114.2 198.028 114.609C198.079 115.07 198.284 115.48 198.539 115.838C198.847 116.247 199.256 116.401 199.819 116.401C200.638 116.401 201.15 116.094 201.355 115.428C201.56 114.763 201.713 114.097 201.713 113.432C201.713 112.92 201.662 112.408 201.56 111.948C201.457 111.487 201.304 111.077 200.996 110.77C200.741 110.463 200.331 110.258 199.819 110.258C199.256 110.258 198.795 110.463 198.539 110.821C198.232 111.18 198.079 111.589 198.028 111.999C197.976 112.511 197.925 112.869 197.925 113.278Z" fill="#ED2224"></path>
  <path d="M206.064 113.688V115.735C206.064 115.991 206.115 116.145 206.166 116.298C206.268 116.401 206.371 116.503 206.473 116.554C206.575 116.606 206.729 116.606 206.934 116.606V116.759H203.709V116.606C203.914 116.606 204.118 116.554 204.272 116.452C204.426 116.35 204.528 116.145 204.528 115.838V111.026C204.528 110.719 204.477 110.463 204.323 110.361C204.17 110.207 203.965 110.156 203.709 110.156V110.002H207.292C207.804 110.002 208.213 110.105 208.521 110.258C208.828 110.463 209.032 110.668 209.186 110.975C209.34 111.231 209.391 111.538 209.391 111.845C209.391 112.204 209.34 112.459 209.186 112.715C209.032 112.971 208.879 113.125 208.674 113.278C208.469 113.432 208.213 113.534 207.958 113.637C207.702 113.739 207.343 113.739 206.883 113.739C206.678 113.739 206.422 113.739 206.064 113.688ZM206.064 110.412V113.33C206.217 113.381 206.371 113.381 206.524 113.381C206.883 113.381 207.139 113.278 207.343 113.125C207.548 112.971 207.702 112.767 207.804 112.511C207.906 112.255 207.906 112.05 207.906 111.794C207.906 111.538 207.855 111.333 207.753 111.077C207.65 110.821 207.497 110.668 207.292 110.566C207.087 110.412 206.831 110.361 206.473 110.361C206.371 110.412 206.217 110.412 206.064 110.412Z" fill="#ED2224"></path>
  <path d="M218.297 110.002V110.156C218.144 110.156 217.99 110.207 217.837 110.207C217.734 110.258 217.632 110.309 217.529 110.412C217.478 110.514 217.427 110.719 217.427 110.924L217.785 115.428C217.837 115.735 217.837 115.991 217.939 116.145C217.99 116.298 218.093 116.401 218.195 116.452C218.297 116.503 218.451 116.554 218.656 116.605V116.759H215.584V116.605C215.84 116.605 216.045 116.554 216.199 116.401C216.352 116.247 216.403 115.991 216.352 115.633L216.045 111.333L213.844 116.708H213.69L211.438 111.487L211.131 115.223C211.08 115.582 211.131 115.889 211.233 116.094C211.336 116.298 211.438 116.401 211.54 116.452C211.643 116.503 211.848 116.554 212.001 116.554V116.708H209.698V116.554C210.005 116.554 210.21 116.401 210.363 116.196C210.517 115.991 210.619 115.633 210.67 115.121L211.131 110.872C210.824 110.412 210.466 110.156 209.954 110.053V109.9H212.359L214.305 114.302L216.096 109.9H218.297V110.002Z" fill="#ED2224"></path>
  <path d="M223.724 110.002L223.775 111.487H223.622C223.571 111.231 223.468 111.026 223.417 110.873C223.366 110.719 223.212 110.566 223.11 110.514C222.956 110.412 222.803 110.361 222.547 110.361H221.216V113.176H222.291C222.598 113.176 222.854 113.125 223.008 112.971C223.161 112.818 223.264 112.613 223.264 112.357H223.417V114.353H223.264C223.212 114.046 223.11 113.841 222.905 113.739C222.7 113.637 222.496 113.586 222.291 113.586H221.216V115.531C221.216 116.094 221.523 116.35 222.086 116.35H222.496C222.752 116.35 223.008 116.299 223.161 116.247C223.315 116.196 223.468 116.043 223.571 115.889C223.673 115.735 223.775 115.48 223.878 115.121H224.031L223.929 116.759H218.913V116.606C219.271 116.606 219.476 116.503 219.578 116.35C219.68 116.196 219.732 115.991 219.732 115.735V111.026C219.732 110.77 219.68 110.566 219.578 110.412C219.476 110.258 219.271 110.156 218.913 110.156V110.002H223.724Z" fill="#ED2224"></path>
  <path d="M226.795 110.002L230.89 114.353V111.282C230.89 110.873 230.788 110.617 230.634 110.463C230.48 110.31 230.225 110.207 229.866 110.156V110.002H232.17V110.156C231.914 110.207 231.709 110.258 231.607 110.361C231.504 110.463 231.402 110.617 231.351 110.77C231.299 110.924 231.299 111.077 231.299 111.282V116.81H231.146L226.232 111.64V115.428C226.232 115.735 226.283 115.991 226.437 116.247C226.59 116.452 226.846 116.606 227.204 116.606V116.759H224.799V116.606C225.464 116.554 225.822 116.196 225.822 115.633V111.18L225.771 111.129C225.72 111.077 225.72 111.077 225.618 110.975C225.566 110.924 225.515 110.873 225.464 110.821C225.055 110.412 224.696 110.207 224.389 110.156V110.002H226.795Z" fill="#ED2224"></path>
  <path d="M233.194 110.002H237.903C238.108 110.002 238.312 109.951 238.466 109.9H238.62L238.671 111.487H238.568C238.517 111.026 238.364 110.719 238.21 110.617C238.057 110.514 237.852 110.412 237.647 110.412H236.367V115.735C236.367 115.889 236.367 116.042 236.418 116.196C236.47 116.298 236.521 116.401 236.674 116.503C236.777 116.606 236.982 116.605 237.186 116.605V116.759H234.013V116.605C234.371 116.605 234.576 116.503 234.678 116.35C234.78 116.196 234.832 115.991 234.832 115.735V110.412H233.552C233.347 110.412 233.142 110.463 233.04 110.617C232.938 110.77 232.784 111.026 232.631 111.487H232.477L232.528 109.9H232.682C232.784 110.002 232.938 110.002 233.194 110.002Z" fill="#ED2224"></path>
  <path d="M247.167 116.759H242.048V116.606C242.407 116.606 242.611 116.503 242.714 116.35C242.816 116.196 242.867 115.991 242.867 115.735V111.026C242.867 110.719 242.816 110.514 242.663 110.361C242.509 110.207 242.304 110.156 241.997 110.156V110.002H245.171V110.156C244.812 110.156 244.608 110.258 244.505 110.412C244.403 110.566 244.352 110.77 244.352 111.026V115.531C244.352 115.787 244.403 116.043 244.505 116.145C244.608 116.298 244.812 116.35 245.12 116.35H245.58C245.887 116.35 246.194 116.247 246.45 116.094C246.706 115.94 246.962 115.582 247.218 114.968H247.372L247.167 116.759Z" fill="#ED2224"></path>
  <path d="M247.681 110.155V110.052H250.855V110.206C250.496 110.206 250.292 110.308 250.189 110.462C250.087 110.615 250.036 110.82 250.036 111.076V115.785C250.036 115.939 250.036 116.092 250.087 116.195C250.138 116.297 250.189 116.4 250.292 116.502C250.394 116.604 250.599 116.655 250.804 116.655H250.855V116.809H247.681V116.655C248.039 116.655 248.244 116.553 248.347 116.4C248.449 116.246 248.5 116.041 248.5 115.785V111.076C248.5 110.769 248.449 110.564 248.295 110.411C248.193 110.206 247.988 110.155 247.681 110.155Z" fill="#ED2224"></path>
  <path d="M259.657 110.002V110.156C259.503 110.156 259.35 110.207 259.196 110.207C259.094 110.258 258.991 110.309 258.889 110.412C258.838 110.514 258.786 110.719 258.786 110.924L259.145 115.428C259.196 115.735 259.196 115.991 259.298 116.145C259.35 116.298 259.452 116.401 259.554 116.452C259.657 116.503 259.81 116.554 260.015 116.605V116.759H256.944V116.605C257.2 116.605 257.404 116.554 257.558 116.401C257.712 116.247 257.763 115.991 257.712 115.633L257.404 111.333L255.203 116.708H255.05L252.798 111.487L252.49 115.223C252.439 115.582 252.49 115.889 252.593 116.094C252.695 116.298 252.798 116.401 252.9 116.452C253.002 116.503 253.207 116.554 253.361 116.554V116.708H251.057V116.554C251.364 116.554 251.569 116.401 251.723 116.196C251.876 115.991 251.978 115.633 252.03 115.121L252.49 110.872C252.183 110.412 251.825 110.156 251.313 110.053V109.9H253.719L255.664 114.302L257.456 109.9H259.657V110.002Z" fill="#ED2224"></path>
  <path d="M260.272 110.155V110.052H263.446V110.206C263.088 110.206 262.883 110.308 262.781 110.462C262.678 110.615 262.627 110.82 262.627 111.076V115.785C262.627 115.939 262.627 116.092 262.678 116.195C262.729 116.297 262.781 116.4 262.883 116.502C262.985 116.604 263.19 116.655 263.395 116.655H263.446V116.809H260.272V116.655C260.631 116.655 260.836 116.553 260.938 116.4C261.04 116.246 261.091 116.041 261.091 115.785V111.076C261.091 110.769 261.04 110.564 260.887 110.411C260.733 110.257 260.528 110.155 260.272 110.155Z" fill="#ED2224"></path>
  <path d="M264.418 110.002H269.128C269.332 110.002 269.537 109.951 269.691 109.9H269.844L269.895 111.487H269.793C269.742 111.026 269.588 110.719 269.435 110.617C269.281 110.514 269.076 110.412 268.872 110.412H267.592V115.735C267.592 115.889 267.592 116.042 267.643 116.196C267.694 116.298 267.745 116.401 267.899 116.503C268.001 116.606 268.206 116.605 268.411 116.605V116.759H265.237V116.605C265.596 116.605 265.8 116.503 265.903 116.35C266.005 116.196 266.056 115.991 266.056 115.735V110.412H264.777C264.572 110.412 264.367 110.463 264.265 110.617C264.162 110.77 264.009 111.026 263.855 111.487H263.702L263.753 109.9H263.906C264.009 110.002 264.214 110.002 264.418 110.002Z" fill="#ED2224"></path>
  <path d="M274.963 110.002L275.015 111.487H274.861C274.81 111.231 274.707 111.026 274.656 110.873C274.605 110.719 274.452 110.566 274.349 110.514C274.196 110.412 274.042 110.361 273.786 110.361H272.455V113.176H273.53C273.837 113.176 274.093 113.125 274.247 112.971C274.4 112.818 274.503 112.613 274.503 112.357H274.656V114.353H274.503C274.452 114.046 274.349 113.841 274.144 113.739C273.94 113.637 273.735 113.586 273.53 113.586H272.455V115.531C272.455 116.094 272.762 116.35 273.325 116.35H273.735C273.991 116.35 274.247 116.299 274.4 116.247C274.554 116.196 274.707 116.043 274.81 115.889C274.912 115.735 275.015 115.48 275.117 115.121H275.271L275.168 116.759H270.101V116.606C270.459 116.606 270.664 116.503 270.766 116.35C270.868 116.196 270.92 115.991 270.92 115.735V111.026C270.92 110.77 270.868 110.566 270.766 110.412C270.664 110.258 270.459 110.156 270.101 110.156V110.002H274.963Z" fill="#ED2224"></path>
  <path d="M275.526 110.002H279.212C279.826 110.002 280.338 110.105 280.85 110.258C281.362 110.412 281.72 110.719 282.027 111.026C282.334 111.333 282.59 111.743 282.744 112.152C282.897 112.562 283 113.022 283 113.483C283 113.944 282.949 114.353 282.795 114.763C282.641 115.172 282.437 115.48 282.13 115.787C281.822 116.094 281.464 116.299 281.003 116.503C280.543 116.657 280.031 116.759 279.468 116.759H275.629V116.606C275.987 116.606 276.192 116.503 276.294 116.35C276.397 116.196 276.448 115.991 276.448 115.735V111.026C276.448 110.77 276.397 110.566 276.294 110.412C276.192 110.258 275.987 110.156 275.629 110.156H275.578V110.002H275.526ZM277.83 110.463V115.377C277.83 115.633 277.881 115.787 277.932 115.94C277.983 116.094 278.086 116.196 278.239 116.247C278.393 116.299 278.598 116.35 278.905 116.35C279.161 116.35 279.417 116.35 279.621 116.298C279.826 116.247 280.031 116.196 280.236 116.094C280.492 115.94 280.748 115.735 280.901 115.428C281.055 115.172 281.208 114.865 281.311 114.507C281.413 114.149 281.413 113.841 281.413 113.483C281.413 113.125 281.362 112.767 281.259 112.408C281.157 112.05 281.003 111.692 280.799 111.385C280.594 111.077 280.287 110.821 279.928 110.617C279.57 110.412 279.109 110.31 278.546 110.31C278.29 110.412 278.086 110.412 277.83 110.463Z" fill="#ED2224"></path>
  <path d="M34.0229 80.3652H22.4033V91.3194H34.0229V80.3652Z" fill="url(#paint2_linear_54_4192)"></path>
  <path d="M34.0229 85.2783H22.4033V86.3533H34.0229V85.2783Z" fill="#ED2224"></path>
  <path d="M28.7629 91.3164L28.772 80.3623L27.697 80.3614L27.6879 91.3155L28.7629 91.3164Z" fill="#ED2224"></path>
  <defs>
    <radialGradient id="paint0_radial_54_4192" cx="0" cy="0" r="1" gradientUnits="userSpaceOnUse" gradientTransform="translate(110.062 81.681) rotate(13.8862) scale(78.2411 78.2411)">
      <stop offset="2.66389e-07" stop-color="#1A1A1A"></stop>
      <stop offset="0.000234634" stop-color="#1C1B1B"></stop>
      <stop offset="0.00579192" stop-color="#412924"></stop>
      <stop offset="0.0118" stop-color="#613028"></stop>
      <stop offset="0.0186" stop-color="#813429"></stop>
      <stop offset="0.0261" stop-color="#A03529"></stop>
      <stop offset="0.0345" stop-color="#B93228"></stop>
      <stop offset="0.0444" stop-color="#CE2D26"></stop>
      <stop offset="0.0566" stop-color="#DD2725"></stop>
      <stop offset="0.0737" stop-color="#E92324"></stop>
      <stop offset="0.1212" stop-color="#ED2224"></stop>
      <stop offset="0.1857" stop-color="#CE4027"></stop>
      <stop offset="0.3006" stop-color="#A5572C"></stop>
      <stop offset="0.4175" stop-color="#816130"></stop>
      <stop offset="0.5343" stop-color="#636533"></stop>
      <stop offset="0.6509" stop-color="#486735"></stop>
      <stop offset="0.7674" stop-color="#2E6836"></stop>
      <stop offset="0.8837" stop-color="#156937"></stop>
      <stop offset="1" stop-color="#046937"></stop>
    </radialGradient>
    <linearGradient id="paint1_linear_54_4192" x1="107.903" y1="66.7866" x2="119.539" y2="66.7866" gradientUnits="userSpaceOnUse">
      <stop stop-color="#ED2224"></stop>
      <stop offset="5.15004e-10" stop-color="#E92324"></stop>
      <stop offset="1.27267e-08" stop-color="#B33328"></stop>
      <stop offset="2.59421e-08" stop-color="#893529"></stop>
      <stop offset="4.08172e-08" stop-color="#683228"></stop>
      <stop offset="5.72569e-08" stop-color="#4F2D26"></stop>
      <stop offset="7.58397e-08" stop-color="#3C2824"></stop>
      <stop offset="9.75353e-08" stop-color="#2E2320"></stop>
      <stop offset="1.24357e-07" stop-color="#231E1D"></stop>
      <stop offset="1.61971e-07" stop-color="#1C1B1B"></stop>
      <stop offset="2.66389e-07" stop-color="#1A1A1A"></stop>
      <stop offset="0.0229" stop-color="#1E2420"></stop>
      <stop offset="0.082" stop-color="#223729"></stop>
      <stop offset="0.1489" stop-color="#22462E"></stop>
      <stop offset="0.2244" stop-color="#1F5232"></stop>
      <stop offset="0.3127" stop-color="#195D34"></stop>
      <stop offset="0.4218" stop-color="#106436"></stop>
      <stop offset="0.575" stop-color="#086837"></stop>
      <stop offset="1" stop-color="#046937"></stop>
    </linearGradient>
    <linearGradient id="paint2_linear_54_4192" x1="21.4612" y1="84.2175" x2="34.9592" y2="87.5545" gradientUnits="userSpaceOnUse">
      <stop stop-color="#ED2224"></stop>
      <stop offset="5.15004e-10" stop-color="#E92324"></stop>
      <stop offset="1.27267e-08" stop-color="#B33328"></stop>
      <stop offset="2.59421e-08" stop-color="#893529"></stop>
      <stop offset="4.08172e-08" stop-color="#683228"></stop>
      <stop offset="5.72569e-08" stop-color="#4F2D26"></stop>
      <stop offset="7.58397e-08" stop-color="#3C2824"></stop>
      <stop offset="9.75353e-08" stop-color="#2E2320"></stop>
      <stop offset="1.24357e-07" stop-color="#231E1D"></stop>
      <stop offset="1.61971e-07" stop-color="#1C1B1B"></stop>
      <stop offset="2.66389e-07" stop-color="#1A1A1A"></stop>
      <stop offset="0.0229" stop-color="#1E2420"></stop>
      <stop offset="0.082" stop-color="#223729"></stop>
      <stop offset="0.1489" stop-color="#22462E"></stop>
      <stop offset="0.2244" stop-color="#1F5232"></stop>
      <stop offset="0.3127" stop-color="#195D34"></stop>
      <stop offset="0.4218" stop-color="#106436"></stop>
      <stop offset="0.575" stop-color="#086837"></stop>
      <stop offset="1" stop-color="#046937"></stop>
    </linearGradient>
  </defs>
</svg>
